Literata-M6Italic.ufo
<glyph name="exclam" format="2">
	<unicode hex="0021"/>
	<advance width="353"/>
	<outline>
		<contour>
			<point x="126" y="412" type="curve" smooth="yes"/>
			<point x="161" y="237" type="line"/>
			<point x="176" y="237" type="line"/>
			<point x="219" y="448"/>
			<point x="258" y="589"/>
			<point x="317" y="701" type="curve"/>
			<point x="296" y="723"/>
			<point x="257" y="745"/>
			<point x="211" y="745" type="curve" smooth="yes"/>
			<point x="152" y="745"/>
			<point x="94" y="710"/>
			<point x="94" y="625" type="curve" smooth="yes"/>
			<point x="94" y="561"/>
			<point x="107" y="505"/>
		</contour>
		<contour>
			<point x="48" y="72" type="curve" smooth="yes"/>
			<point x="48" y="21"/>
			<point x="85" y="-22"/>
			<point x="159" y="-22" type="curve" smooth="yes"/>
			<point x="217" y="-22"/>
			<point x="280" y="11"/>
			<point x="280" y="91" type="curve" smooth="yes"/>
			<point x="280" y="145"/>
			<point x="238" y="187"/>
			<point x="171" y="187" type="curve" smooth="yes"/>
			<point x="96" y="187"/>
			<point x="48" y="139"/>
		</contour>
	</outline>
</glyph>
<glyph name="numbersign" format="2">
	<unicode hex="0023"/>
	<advance width="641"/>
	<outline>
		<contour>
			<point x="146" y="1" type="line"/>
			<point x="174" y="1" type="line"/>
			<point x="207" y="179" type="line"/>
			<point x="392" y="179" type="line"/>
			<point x="359" y="1" type="line"/>
			<point x="387" y="1" type="line"/>
			<point x="420" y="179" type="line"/>
			<point x="542" y="179" type="line"/>
			<point x="546" y="203" type="line"/>
			<point x="424" y="203" type="line"/>
			<point x="458" y="382" type="line"/>
			<point x="572" y="382" type="line"/>
			<point x="576" y="406" type="line"/>
			<point x="462" y="406" type="line"/>
			<point x="494" y="578" type="line"/>
			<point x="466" y="578" type="line"/>
			<point x="434" y="406" type="line"/>
			<point x="249" y="406" type="line"/>
			<point x="281" y="578" type="line"/>
			<point x="253" y="578" type="line"/>
			<point x="221" y="406" type="line"/>
			<point x="100" y="406" type="line"/>
			<point x="96" y="382" type="line"/>
			<point x="217" y="382" type="line"/>
			<point x="183" y="203" type="line"/>
			<point x="71" y="203" type="line"/>
			<point x="67" y="179" type="line"/>
			<point x="179" y="179" type="line"/>
		</contour>
		<contour>
			<point x="245" y="382" type="line"/>
			<point x="430" y="382" type="line"/>
			<point x="396" y="203" type="line"/>
			<point x="211" y="203" type="line"/>
		</contour>
	</outline>
</glyph>
<glyph name="quotesingle" format="2">
	<unicode hex="0027"/>
	<advance width="312"/>
	<outline>
		<contour>
			<point x="159" y="517" type="line"/>
			<point x="191" y="577" type="line" smooth="yes"/>
			<point x="236" y="661"/>
			<point x="247" y="681"/>
			<point x="247" y="718" type="curve" smooth="yes"/>
			<point x="247" y="763"/>
			<point x="213" y="780"/>
			<point x="173" y="780" type="curve" smooth="yes"/>
			<point x="116" y="780"/>
			<point x="86" y="751"/>
			<point x="86" y="711" type="curve" smooth="yes"/>
			<point x="86" y="684"/>
			<point x="94" y="660"/>
			<point x="127" y="577" type="curve" smooth="yes"/>
			<point x="151" y="517" type="line"/>
		</contour>
	</outline>
</glyph>
<glyph name="parenright" format="2">
	<unicode hex="0029"/>
	<advance width="457"/>
	<outline>
		<contour>
			<point x="377" y="310" type="curve"/>
			<point x="377" y="515"/>
			<point x="228" y="694"/>
			<point x="110" y="814" type="curve"/>
			<point x="104" y="808" type="line"/>
			<point x="161" y="668"/>
			<point x="182" y="533"/>
			<point x="182" y="316" type="curve" smooth="yes"/>
			<point x="182" y="90"/>
			<point x="127" y="-77"/>
			<point x="52" y="-205" type="curve"/>
			<point x="61" y="-214" type="line"/>
			<point x="199" y="-59"/>
			<point x="377" y="109"/>
		</contour>
	</outline>
</glyph>
<glyph name="hyphen" format="2">
	<unicode hex="002D"/>
	<advance width="381"/>
	<outline>
		<contour>
			<point x="63" y="387" type="line"/>
			<point x="57" y="185" type="line"/>
			<point x="342" y="185" type="line"/>
			<point x="348" y="387" type="line"/>
		</contour>
	</outline>
</glyph>
<glyph name="period" format="2">
	<unicode hex="002E"/>
	<advance width="435"/>
	<outline>
		<contour>
			<point x="82" y="82" type="curve" smooth="yes"/>
			<point x="82" y="27"/>
			<point x="121" y="-32"/>
			<point x="211" y="-32" type="curve" smooth="yes"/>
			<point x="283" y="-32"/>
			<point x="357" y="15"/>
			<point x="357" y="106" type="curve" smooth="yes"/>
			<point x="357" y="165"/>
			<point x="308" y="223"/>
			<point x="226" y="223" type="curve" smooth="yes"/>
			<point x="135" y="223"/>
			<point x="82" y="158"/>
		</contour>
	</outline>
</glyph>
<glyph name="slash" format="2">
	<unicode hex="002F"/>
	<advance width="436"/>
	<outline>
		<contour>
			<point x="-13" y="-110" type="line"/>
			<point x="18" y="-110" type="line"/>
			<point x="455" y="802" type="line"/>
			<point x="424" y="802" type="line"/>
		</contour>
	</outline>
</glyph>
<glyph name="zero" format="2">
	<unicode hex="0030"/>
	<advance width="726"/>
	<outline>
		<contour>
			<point x="38" y="340" type="curve" smooth="yes"/>
			<point x="38" y="147"/>
			<point x="157" y="-13"/>
			<point x="363" y="-13" type="curve" smooth="yes"/>
			<point x="545" y="-13"/>
			<point x="695" y="144"/>
			<point x="695" y="398" type="curve" smooth="yes"/>
			<point x="695" y="590"/>
			<point x="583" y="743"/>
			<point x="386" y="743" type="curve" smooth="yes"/>
			<point x="175" y="743"/>
			<point x="38" y="598"/>
		</contour>
		<contour>
			<point x="376" y="727" type="curve" smooth="yes"/>
			<point x="479" y="727"/>
			<point x="480" y="616"/>
			<point x="472" y="376" type="curve" smooth="yes"/>
			<point x="463" y="97"/>
			<point x="441" y="3"/>
			<point x="357" y="3" type="curve" smooth="yes"/>
			<point x="260" y="3"/>
			<point x="253" y="119"/>
			<point x="262" y="376" type="curve" smooth="yes"/>
			<point x="271" y="641"/>
			<point x="284" y="727"/>
		</contour>
	</outline>
</glyph>
<glyph name="four" format="2">
	<unicode hex="0034"/>
	<advance width="659"/>
	<outline>
		<contour>
			<point x="518" y="285" type="line"/>
			<point x="536" y="741" type="line"/>
			<point x="523" y="750" type="line"/>
			<point x="334" y="705" type="line"/>
			<point x="15" y="249" type="line"/>
			<point x="24" y="169" type="line"/>
			<point x="308" y="169" type="line"/>
			<point x="302" y="35" type="line"/>
			<point x="172" y="20" type="line"/>
			<point x="170" y="0" type="line"/>
			<point x="624" y="0" type="line"/>
			<point x="627" y="17" type="line"/>
			<point x="505" y="38" type="line"/>
			<point x="511" y="169" type="line"/>
			<point x="630" y="169" type="line"/>
			<point x="644" y="285" type="line"/>
		</contour>
		<contour>
			<point x="314" y="285" type="line"/>
			<point x="77" y="285" type="line"/>
			<point x="334" y="655" type="line"/>
		</contour>
	</outline>
</glyph>
<glyph name="five" format="2">
	<unicode hex="0035"/>
	<advance width="611"/>
	<outline>
		<contour>
			<point x="368" y="266" type="curve" smooth="yes"/>
			<point x="368" y="134"/>
			<point x="310" y="16"/>
			<point x="229" y="16" type="curve" smooth="yes"/>
			<point x="160" y="16"/>
			<point x="172" y="74"/>
			<point x="197" y="126" type="curve" smooth="yes"/>
			<point x="223" y="181" type="line"/>
			<point x="205" y="209"/>
			<point x="166" y="231"/>
			<point x="126" y="231" type="curve" smooth="yes"/>
			<point x="61" y="231"/>
			<point x="20" y="191"/>
			<point x="20" y="123" type="curve" smooth="yes"/>
			<point x="20" y="41"/>
			<point x="110" y="-14"/>
			<point x="231" y="-14" type="curve" smooth="yes"/>
			<point x="428" y="-14"/>
			<point x="571" y="101"/>
			<point x="571" y="279" type="curve" smooth="yes"/>
			<point x="571" y="400"/>
			<point x="496" y="476"/>
			<point x="350" y="476" type="curve" smooth="yes"/>
			<point x="253" y="476"/>
			<point x="181" y="433"/>
			<point x="129" y="391" type="curve"/>
			<point x="150" y="579" type="line"/>
			<point x="533" y="579" type="line"/>
			<point x="553" y="730" type="line"/>
			<point x="150" y="730" type="line"/>
			<point x="130" y="714" type="line"/>
			<point x="100" y="368" type="line"/>
			<point x="123" y="355" type="line"/>
			<point x="167" y="390"/>
			<point x="216" y="418"/>
			<point x="270" y="418" type="curve" smooth="yes"/>
			<point x="346" y="418"/>
			<point x="368" y="351"/>
		</contour>
	</outline>
</glyph>
<glyph name="seven" format="2">
	<unicode hex="0037"/>
	<advance width="585"/>
	<outline>
		<contour>
			<point x="107" y="0" type="line"/>
			<point x="364" y="0" type="line"/>
			<point x="577" y="602" type="line"/>
			<point x="559" y="730" type="line"/>
			<point x="67" y="730" type="line"/>
			<point x="36" y="459" type="line"/>
			<point x="61" y="459" type="line"/>
			<point x="78" y="506" type="line" smooth="yes"/>
			<point x="96" y="557"/>
			<point x="118" y="567"/>
			<point x="208" y="567" type="curve" smooth="yes"/>
			<point x="514" y="567" type="line"/>
			<point x="101" y="10" type="line"/>
		</contour>
	</outline>
</glyph>
<glyph name="equal" format="2">
	<unicode hex="003D"/>
	<advance width="582"/>
	<outline>
		<contour>
			<point x="99" y="204" type="line"/>
			<point x="467" y="204" type="line"/>
			<point x="468" y="223" type="line"/>
			<point x="100" y="223" type="line"/>
		</contour>
		<contour>
			<point x="105" y="384" type="line"/>
			<point x="472" y="384" type="line"/>
			<point x="473" y="403" type="line"/>
			<point x="106" y="403" type="line"/>
		</contour>
	</outline>
</glyph>
<glyph name="C" format="2">
	<unicode hex="0043"/>
	<advance width="716"/>
	<outline>
		<contour>
			<point x="512" y="587" type="curve" smooth="yes"/>
			<point x="485" y="522" type="line"/>
			<point x="522" y="491"/>
			<point x="557" y="477"/>
			<point x="606" y="477" type="curve" smooth="yes"/>
			<point x="664" y="477"/>
			<point x="707" y="519"/>
			<point x="707" y="577" type="curve" smooth="yes"/>
			<point x="707" y="673"/>
			<point x="592" y="745"/>
			<point x="438" y="745" type="curve" smooth="yes"/>
			<point x="203" y="745"/>
			<point x="50" y="594"/>
			<point x="45" y="339" type="curve" smooth="yes"/>
			<point x="41" y="125"/>
			<point x="146" y="-14"/>
			<point x="375" y="-14" type="curve" smooth="yes"/>
			<point x="479" y="-14"/>
			<point x="592" y="14"/>
			<point x="670" y="158" type="curve"/>
			<point x="656" y="167" type="line"/>
			<point x="603" y="73"/>
			<point x="532" y="41"/>
			<point x="457" y="41" type="curve" smooth="yes"/>
			<point x="316" y="41"/>
			<point x="281" y="130"/>
			<point x="281" y="355" type="curve" smooth="yes"/>
			<point x="281" y="623"/>
			<point x="330" y="729"/>
			<point x="439" y="729" type="curve" smooth="yes"/>
			<point x="527" y="729"/>
			<point x="548" y="674"/>
		</contour>
	</outline>
	<anchor name="bottom" x="382" y="-30"/>
	<anchor name="top" x="424" y="730"/>
</glyph>
<glyph name="E" format="2">
	<unicode hex="0045"/>
	<advance width="640"/>
	<outline>
		<contour>
			<point x="121" y="697" type="line"/>
			<point x="93" y="27" type="line"/>
			<point x="12" y="18" type="line"/>
			<point x="10" y="0" type="line"/>
			<point x="571" y="0" type="line"/>
			<point x="602" y="185" type="line"/>
			<point x="581" y="186" type="line"/>
			<point x="557" y="116" type="line" smooth="yes"/>
			<point x="536" y="55"/>
			<point x="487" y="23"/>
			<point x="411" y="23" type="curve" smooth="yes"/>
			<point x="320" y="23" type="line"/>
			<point x="332" y="362" type="line"/>
			<point x="537" y="362" type="line"/>
			<point x="539" y="386" type="line"/>
			<point x="333" y="386" type="line"/>
			<point x="345" y="707" type="line"/>
			<point x="433" y="707" type="line" smooth="yes"/>
			<point x="501" y="707"/>
			<point x="542" y="683"/>
			<point x="565" y="599" type="curve" smooth="yes"/>
			<point x="582" y="537" type="line"/>
			<point x="603" y="538" type="line"/>
			<point x="583" y="730" type="line"/>
			<point x="51" y="730" type="line"/>
			<point x="47" y="712" type="line"/>
		</contour>
	</outline>
	<anchor name="bottom" x="322" y="-30"/>
	<anchor name="top" x="346" y="730"/>
</glyph>
<glyph name="L" format="2">
	<unicode hex="004C"/>
	<advance width="655"/>
	<outline>
		<contour>
			<point x="12" y="18" type="line"/>
			<point x="10" y="0" type="line"/>
			<point x="581" y="0" type="line"/>
			<point x="618" y="218" type="line"/>
			<point x="601" y="218" type="line"/>
			<point x="567" y="131" type="line" smooth="yes"/>
			<point x="540" y="61"/>
			<point x="500" y="23"/>
			<point x="415" y="23" type="curve" smooth="yes"/>
			<point x="320" y="23" type="line"/>
			<point x="345" y="700" type="line"/>
			<point x="428" y="712" type="line"/>
			<point x="431" y="730" type="line"/>
			<point x="51" y="730" type="line"/>
			<point x="47" y="712" type="line"/>
			<point x="121" y="697" type="line"/>
			<point x="93" y="27" type="line"/>
		</contour>
	</outline>
	<anchor name="bottom" x="322" y="-33"/>
	<anchor name="top" x="235" y="730"/>
</glyph>
<glyph name="O" format="2">
	<unicode hex="004F"/>
	<advance width="796"/>
	<outline>
		<contour>
			<point x="45" y="339" type="curve" smooth="yes"/>
			<point x="42" y="125"/>
			<point x="142" y="-14"/>
			<point x="373" y="-14" type="curve" smooth="yes"/>
			<point x="600" y="-14"/>
			<point x="761" y="153"/>
			<point x="761" y="407" type="curve" smooth="yes"/>
			<point x="761" y="624"/>
			<point x="641" y="745"/>
			<point x="428" y="745" type="curve" smooth="yes"/>
			<point x="203" y="745"/>
			<point x="49" y="594"/>
		</contour>
		<contour>
			<point x="280" y="372" type="curve" smooth="yes"/>
			<point x="285" y="610"/>
			<point x="305" y="729"/>
			<point x="409" y="729" type="curve" smooth="yes"/>
			<point x="500" y="729"/>
			<point x="531" y="603"/>
			<point x="525" y="378" type="curve" smooth="yes"/>
			<point x="518" y="127"/>
			<point x="499" y="4"/>
			<point x="391" y="4" type="curve" smooth="yes"/>
			<point x="308" y="4"/>
			<point x="275" y="145"/>
		</contour>
	</outline>
	<anchor name="bottom" x="392" y="-30"/>
	<anchor name="top" x="418" y="730"/>
</glyph>
<glyph name="R" format="2">
	<unicode hex="0052"/>
	<advance width="829"/>
	<outline>
		<contour>
			<point x="361" y="381" type="curve"/>
			<point x="359" y="357" type="line"/>
			<point x="377" y="350"/>
			<point x="386" y="335"/>
			<point x="403" y="277" type="curve" smooth="yes"/>
			<point x="452" y="106" type="line" smooth="yes"/>
			<point x="476" y="23"/>
			<point x="525" y="-14"/>
			<point x="622" y="-14" type="curve" smooth="yes"/>
			<point x="698" y="-14"/>
			<point x="781" y="22"/>
			<point x="822" y="57" type="curve"/>
			<point x="813" y="71" type="line"/>
			<point x="788" y="56"/>
			<point x="773" y="50"/>
			<point x="751" y="50" type="curve" smooth="yes"/>
			<point x="724" y="50"/>
			<point x="710" y="74"/>
			<point x="695" y="113" type="curve" smooth="yes"/>
			<point x="633" y="272" type="line" smooth="yes"/>
			<point x="606" y="342"/>
			<point x="548" y="364"/>
			<point x="443" y="373" type="curve"/>
			<point x="443" y="377" type="line"/>
			<point x="631" y="398"/>
			<point x="697" y="467"/>
			<point x="697" y="562" type="curve" smooth="yes"/>
			<point x="697" y="686"/>
			<point x="603" y="730"/>
			<point x="427" y="730" type="curve" smooth="yes"/>
			<point x="41" y="730" type="line"/>
			<point x="38" y="712" type="line"/>
			<point x="118" y="700" type="line"/>
			<point x="91" y="28" type="line"/>
			<point x="13" y="18" type="line"/>
			<point x="10" y="0" type="line"/>
			<point x="396" y="0" type="line"/>
			<point x="399" y="18" type="line"/>
			<point x="318" y="28" type="line"/>
			<point x="342" y="707" type="line"/>
			<point x="350" y="707" type="line" smooth="yes"/>
			<point x="432" y="707"/>
			<point x="470" y="680"/>
			<point x="470" y="568" type="curve" smooth="yes"/>
			<point x="470" y="467"/>
			<point x="447" y="384"/>
		</contour>
	</outline>
	<anchor name="bottom" x="402" y="-30"/>
	<anchor name="top" x="379" y="730"/>
</glyph>
<glyph name="W" format="2">
	<unicode hex="0057"/>
	<advance width="1184"/>
	<outline>
		<contour>
			<point x="921" y="64" type="line"/>
			<point x="777" y="747" type="line"/>
			<point x="555" y="713" type="line"/>
			<point x="630" y="404" type="line"/>
			<point x="504" y="64" type="line"/>
			<point x="503" y="64" type="line"/>
			<point x="334" y="703" type="line"/>
			<point x="430" y="712" type="line"/>
			<point x="432" y="730" type="line"/>
			<point x="23" y="730" type="line"/>
			<point x="21" y="712" type="line"/>
			<point x="104" y="702" type="line"/>
			<point x="295" y="-14" type="line"/>
			<point x="513" y="13" type="line"/>
			<point x="641" y="358" type="line"/>
			<point x="731" y="-14" type="line"/>
			<point x="934" y="13" type="line"/>
			<point x="1117" y="703" type="line"/>
			<point x="1193" y="712" type="line"/>
			<point x="1195" y="730" type="line"/>
			<point x="992" y="730" type="line"/>
			<point x="989" y="712" type="line"/>
			<point x="1089" y="703" type="line"/>
			<point x="922" y="64" type="line"/>
		</contour>
	</outline>
	<anchor name="top" x="680" y="730"/>
</glyph>
<glyph name="X" format="2">
	<unicode hex="0058"/>
	<advance width="781"/>
	<outline>
		<contour>
			<point x="6" y="0" type="line"/>
			<point x="209" y="0" type="line"/>
			<point x="212" y="18" type="line"/>
			<point x="105" y="28" type="line"/>
			<point x="300" y="341" type="line"/>
			<point x="450" y="28" type="line"/>
			<point x="355" y="18" type="line"/>
			<point x="353" y="0" type="line"/>
			<point x="755" y="0" type="line"/>
			<point x="757" y="18" type="line"/>
			<point x="677" y="28" type="line"/>
			<point x="499" y="397" type="line"/>
			<point x="701" y="702" type="line"/>
			<point x="770" y="712" type="line"/>
			<point x="772" y="730" type="line"/>
			<point x="570" y="730" type="line"/>
			<point x="567" y="712" type="line"/>
			<point x="673" y="702" type="line"/>
			<point x="489" y="419" type="line"/>
			<point x="353" y="702" type="line"/>
			<point x="448" y="712" type="line"/>
			<point x="450" y="730" type="line"/>
			<point x="48" y="730" type="line"/>
			<point x="46" y="712" type="line"/>
			<point x="126" y="702" type="line"/>
			<point x="289" y="363" type="line"/>
			<point x="77" y="28" type="line"/>
			<point x="8" y="18" type="line"/>
		</contour>
	</outline>
</glyph>
<glyph name="Y" format="2">
	<unicode hex="0059"/>
	<advance width="765"/>
	<outline>
		<contour>
			<point x="481" y="368" type="line"/>
			<point x="318" y="702" type="line"/>
			<point x="423" y="712" type="line"/>
			<point x="425" y="730" type="line"/>
			<point x="23" y="730" type="line"/>
			<point x="21" y="712" type="line"/>
			<point x="104" y="702" type="line"/>
			<point x="273" y="335" type="line"/>
			<point x="260" y="27" type="line"/>
			<point x="179" y="18" type="line"/>
			<point x="177" y="0" type="line"/>
			<point x="571" y="0" type="line"/>
			<point x="573" y="18" type="line"/>
			<point x="487" y="28" type="line"/>
			<point x="499" y="351" type="line"/>
			<point x="705" y="702" type="line"/>
			<point x="774" y="712" type="line"/>
			<point x="776" y="730" type="line"/>
			<point x="594" y="730" type="line"/>
			<point x="591" y="712" type="line"/>
			<point x="677" y="702" type="line"/>
			<point x="484" y="368" type="line"/>
		</contour>
	</outline>
	<anchor name="bottom" x="374" y="-30"/>
	<anchor name="top" x="430" y="730"/>
</glyph>
<glyph name="asciicircum" format="2">
	<unicode hex="005E"/>
	<advance width="604"/>
	<outline>
		<contour>
			<point x="570" y="374" type="line"/>
			<point x="347" y="712" type="line"/>
			<point x="323" y="712" type="line"/>
			<point x="70" y="374" type="line"/>
			<point x="89" y="360" type="line"/>
			<point x="335" y="685" type="line"/>
			<point x="551" y="362" type="line"/>
		</contour>
	</outline>
</glyph>
<glyph name="e" format="2">
	<unicode hex="0065"/>
	<advance width="583"/>
	<outline>
		<contour>
			<point x="358" y="537" type="curve" smooth="yes"/>
			<point x="155" y="537"/>
			<point x="33" y="408"/>
			<point x="33" y="223" type="curve" smooth="yes"/>
			<point x="33" y="73"/>
			<point x="120" y="-14"/>
			<point x="294" y="-14" type="curve" smooth="yes"/>
			<point x="447" y="-14"/>
			<point x="510" y="96"/>
			<point x="524" y="122" type="curve"/>
			<point x="512" y="130" type="line"/>
			<point x="479" y="80"/>
			<point x="427" y="23"/>
			<point x="368" y="23" type="curve" smooth="yes"/>
			<point x="298" y="23"/>
			<point x="264" y="79"/>
			<point x="258" y="239" type="curve"/>
			<point x="345" y="254" type="line" smooth="yes"/>
			<point x="415" y="266"/>
			<point x="558" y="280"/>
			<point x="558" y="400" type="curve" smooth="yes"/>
			<point x="558" y="482"/>
			<point x="501" y="537"/>
		</contour>
		<contour>
			<point x="384" y="417" type="curve" smooth="yes"/>
			<point x="384" y="301"/>
			<point x="359" y="280"/>
			<point x="305" y="268" type="curve" smooth="yes"/>
			<point x="258" y="258" type="line"/>
			<point x="264" y="414"/>
			<point x="278" y="519"/>
			<point x="339" y="519" type="curve" smooth="yes"/>
			<point x="378" y="519"/>
			<point x="384" y="473"/>
		</contour>
	</outline>
	<anchor name="bottom" x="315" y="-30"/>
	<anchor name="top" x="337" y="550"/>
</glyph>
<glyph name="g" format="2">
	<unicode hex="0067"/>
	<advance width="641"/>
	<outline>
		<contour>
			<point x="442" y="363" type="line"/>
			<point x="388" y="119" type="line" smooth="yes"/>
			<point x="335" y="-121"/>
			<point x="296" y="-209"/>
			<point x="244" y="-209" type="curve" smooth="yes"/>
			<point x="204" y="-209"/>
			<point x="197" y="-175"/>
			<point x="216" y="-110" type="curve" smooth="yes"/>
			<point x="227" y="-73" type="line"/>
			<point x="202" y="-50"/>
			<point x="170" y="-36"/>
			<point x="132" y="-36" type="curve" smooth="yes"/>
			<point x="78" y="-36"/>
			<point x="41" y="-71"/>
			<point x="41" y="-121" type="curve" smooth="yes"/>
			<point x="41" y="-215"/>
			<point x="171" y="-230"/>
			<point x="219" y="-230" type="curve" smooth="yes"/>
			<point x="491" y="-230"/>
			<point x="564" y="-31"/>
			<point x="569" y="61" type="curve" smooth="yes"/>
			<point x="595" y="533" type="line"/>
			<point x="582" y="545" type="line"/>
			<point x="428" y="510" type="line"/>
			<point x="379" y="531"/>
			<point x="346" y="537"/>
			<point x="310" y="537" type="curve" smooth="yes"/>
			<point x="139" y="537"/>
			<point x="36" y="397"/>
			<point x="36" y="213" type="curve" smooth="yes"/>
			<point x="36" y="86"/>
			<point x="83" y="-6"/>
			<point x="213" y="-6" type="curve" smooth="yes"/>
			<point x="320" y="-6"/>
			<point x="345" y="65"/>
			<point x="392" y="227" type="curve" smooth="yes"/>
			<point x="432" y="365" type="line"/>
		</contour>
		<contour>
			<point x="299" y="102" type="curve" smooth="yes"/>
			<point x="269" y="102"/>
			<point x="257" y="120"/>
			<point x="257" y="207" type="curve" smooth="yes"/>
			<point x="257" y="413"/>
			<point x="299" y="511"/>
			<point x="353" y="511" type="curve" smooth="yes"/>
			<point x="388" y="511"/>
			<point x="411" y="499"/>
			<point x="439" y="481" type="curve"/>
			<point x="397" y="328" type="line" smooth="yes"/>
			<point x="347" y="144"/>
			<point x="329" y="102"/>
		</contour>
	</outline>
	<anchor name="top" x="339" y="550"/>
</glyph>
<glyph name="h" format="2">
	<unicode hex="0068"/>
	<advance width="672"/>
	<outline>
		<contour>
			<point x="685" y="71" type="curve"/>
			<point x="675" y="87" type="line"/>
			<point x="649" y="66"/>
			<point x="625" y="56"/>
			<point x="606" y="56" type="curve" smooth="yes"/>
			<point x="587" y="56"/>
			<point x="584" y="68"/>
			<point x="587" y="103" type="curve" smooth="yes"/>
			<point x="609" y="347" type="line" smooth="yes"/>
			<point x="623" y="499"/>
			<point x="541" y="540"/>
			<point x="467" y="540" type="curve" smooth="yes"/>
			<point x="359" y="540"/>
			<point x="341" y="498"/>
			<point x="300" y="350" type="curve" smooth="yes"/>
			<point x="247" y="158" type="line"/>
			<point x="237" y="159" type="line"/>
			<point x="281" y="445" type="line"/>
			<point x="292" y="756" type="line"/>
			<point x="280" y="767" type="line"/>
			<point x="5" y="767" type="line"/>
			<point x="2" y="751" type="line"/>
			<point x="95" y="728" type="line"/>
			<point x="62" y="0" type="line"/>
			<point x="233" y="0" type="line"/>
			<point x="322" y="324" type="line" smooth="yes"/>
			<point x="348" y="420"/>
			<point x="357" y="440"/>
			<point x="382" y="440" type="curve" smooth="yes"/>
			<point x="407" y="440"/>
			<point x="404" y="415"/>
			<point x="399" y="360" type="curve" smooth="yes"/>
			<point x="376" y="114" type="line" smooth="yes"/>
			<point x="368" y="32"/>
			<point x="389" y="-14"/>
			<point x="493" y="-14" type="curve" smooth="yes"/>
			<point x="561" y="-14"/>
			<point x="662" y="46"/>
		</contour>
	</outline>
	<anchor name="bottom" x="336" y="-30"/>
	<anchor name="top" x="151" y="760"/>
</glyph>
<glyph name="i" format="2">
	<unicode hex="0069"/>
	<advance width="370"/>
	<outline>
		<contour>
			<point x="99" y="457" type="curve" smooth="yes"/>
			<point x="73" y="142" type="line" smooth="yes"/>
			<point x="65" y="40"/>
			<point x="81" y="-14"/>
			<point x="184" y="-14" type="curve" smooth="yes"/>
			<point x="266" y="-14"/>
			<point x="355" y="46"/>
			<point x="378" y="68" type="curve"/>
			<point x="367" y="84" type="line"/>
			<point x="350" y="70"/>
			<point x="326" y="56"/>
			<point x="304" y="56" type="curve" smooth="yes"/>
			<point x="282" y="56"/>
			<point x="280" y="70"/>
			<point x="283" y="112" type="curve" smooth="yes"/>
			<point x="302" y="395" type="line" smooth="yes"/>
			<point x="308" y="480"/>
			<point x="270" y="537"/>
			<point x="177" y="537" type="curve" smooth="yes"/>
			<point x="107" y="537"/>
			<point x="39" y="513"/>
			<point x="3" y="497" type="curve"/>
			<point x="10" y="477" type="line"/>
			<point x="36" y="488"/>
			<point x="63" y="494"/>
			<point x="75" y="494" type="curve" smooth="yes"/>
			<point x="97" y="494"/>
			<point x="101" y="481"/>
		</contour>
		<contour>
			<point x="73" y="701" type="curve" smooth="yes"/>
			<point x="73" y="643"/>
			<point x="120" y="597"/>
			<point x="199" y="597" type="curve" smooth="yes"/>
			<point x="269" y="597"/>
			<point x="320" y="636"/>
			<point x="320" y="698" type="curve" smooth="yes"/>
			<point x="320" y="754"/>
			<point x="266" y="801"/>
			<point x="197" y="801" type="curve" smooth="yes"/>
			<point x="120" y="801"/>
			<point x="73" y="757"/>
		</contour>
	</outline>
	<anchor name="bottom" x="198" y="-30"/>
</glyph>
<glyph name="n" format="2">
	<unicode hex="006E"/>
	<advance width="670"/>
	<outline>
		<contour>
			<point x="683" y="68" type="curve"/>
			<point x="672" y="84" type="line"/>
			<point x="655" y="71"/>
			<point x="631" y="56"/>
			<point x="609" y="56" type="curve" smooth="yes"/>
			<point x="585" y="56"/>
			<point x="585" y="70"/>
			<point x="587" y="96" type="curve" smooth="yes"/>
			<point x="610" y="346" type="line" smooth="yes"/>
			<point x="622" y="476"/>
			<point x="559" y="540"/>
			<point x="467" y="540" type="curve" smooth="yes"/>
			<point x="357" y="540"/>
			<point x="336" y="482"/>
			<point x="313" y="398" type="curve" smooth="yes"/>
			<point x="254" y="179" type="line"/>
			<point x="244" y="180" type="line"/>
			<point x="268" y="413" type="line" smooth="yes"/>
			<point x="276" y="490"/>
			<point x="230" y="537"/>
			<point x="153" y="537" type="curve" smooth="yes"/>
			<point x="94" y="537"/>
			<point x="13" y="509"/>
			<point x="-4" y="502" type="curve"/>
			<point x="4" y="481" type="line"/>
			<point x="23" y="487"/>
			<point x="45" y="494"/>
			<point x="59" y="494" type="curve" smooth="yes"/>
			<point x="82" y="494"/>
			<point x="81" y="478"/>
			<point x="81" y="462" type="curve" smooth="yes"/>
			<point x="70" y="0" type="line"/>
			<point x="233" y="0" type="line"/>
			<point x="334" y="368" type="line" smooth="yes"/>
			<point x="350" y="426"/>
			<point x="358" y="440"/>
			<point x="382" y="440" type="curve" smooth="yes"/>
			<point x="401" y="440"/>
			<point x="405" y="426"/>
			<point x="402" y="392" type="curve" smooth="yes"/>
			<point x="375" y="98" type="line" smooth="yes"/>
			<point x="369" y="31"/>
			<point x="400" y="-14"/>
			<point x="489" y="-14" type="curve" smooth="yes"/>
			<point x="563" y="-14"/>
			<point x="649" y="39"/>
		</contour>
	</outline>
	<anchor name="bottom" x="309" y="-30"/>
	<anchor name="top" x="346" y="550"/>
</glyph>
<glyph name="r" format="2">
	<unicode hex="0072"/>
	<advance width="589"/>
	<outline>
		<contour>
			<point x="81" y="459" type="curve" smooth="yes"/>
			<point x="69" y="0" type="line"/>
			<point x="232" y="0" type="line"/>
			<point x="253" y="80" type="line" smooth="yes"/>
			<point x="273" y="156"/>
			<point x="280" y="188"/>
			<point x="316" y="297" type="curve" smooth="yes"/>
			<point x="350" y="403"/>
			<point x="370" y="414"/>
			<point x="386" y="414" type="curve" smooth="yes"/>
			<point x="401" y="414"/>
			<point x="413" y="404"/>
			<point x="433" y="381" type="curve" smooth="yes"/>
			<point x="477" y="330" type="line"/>
			<point x="527" y="357"/>
			<point x="565" y="387"/>
			<point x="565" y="445" type="curve" smooth="yes"/>
			<point x="565" y="498"/>
			<point x="521" y="537"/>
			<point x="462" y="537" type="curve" smooth="yes"/>
			<point x="372" y="537"/>
			<point x="335" y="480"/>
			<point x="307" y="378" type="curve" smooth="yes"/>
			<point x="252" y="180" type="line"/>
			<point x="243" y="180" type="line"/>
			<point x="266" y="408" type="line" smooth="yes"/>
			<point x="274" y="485"/>
			<point x="242" y="537"/>
			<point x="158" y="537" type="curve" smooth="yes"/>
			<point x="108" y="537"/>
			<point x="34" y="520"/>
			<point x="-4" y="502" type="curve"/>
			<point x="4" y="481" type="line"/>
			<point x="36" y="492"/>
			<point x="49" y="494"/>
			<point x="60" y="494" type="curve" smooth="yes"/>
			<point x="81" y="494"/>
			<point x="81" y="476"/>
		</contour>
	</outline>
	<anchor name="bottom" x="150" y="-30"/>
	<anchor name="top" x="314" y="550"/>
</glyph>
<glyph name="braceleft" format="2">
	<unicode hex="007B"/>
	<advance width="439"/>
	<outline>
		<contour>
			<point x="85" y="314" type="curve"/>
			<point x="84" y="303" type="line"/>
			<point x="150" y="297"/>
			<point x="161" y="285"/>
			<point x="161" y="222" type="curve" smooth="yes"/>
			<point x="161" y="131"/>
			<point x="121" y="-38"/>
			<point x="121" y="-99" type="curve" smooth="yes"/>
			<point x="121" y="-168"/>
			<point x="160" y="-220"/>
			<point x="263" y="-220" type="curve" smooth="yes"/>
			<point x="308" y="-220"/>
			<point x="353" y="-214"/>
			<point x="380" y="-203" type="curve"/>
			<point x="376" y="-191" type="line"/>
			<point x="365" y="-193"/>
			<point x="354" y="-195"/>
			<point x="344" y="-195" type="curve" smooth="yes"/>
			<point x="317" y="-195"/>
			<point x="310" y="-178"/>
			<point x="310" y="-132" type="curve" smooth="yes"/>
			<point x="310" y="-77"/>
			<point x="350" y="71"/>
			<point x="350" y="163" type="curve" smooth="yes"/>
			<point x="350" y="247"/>
			<point x="318" y="307"/>
			<point x="147" y="313" type="curve"/>
			<point x="330" y="331"/>
			<point x="358" y="378"/>
			<point x="358" y="466" type="curve" smooth="yes"/>
			<point x="358" y="518"/>
			<point x="338" y="629"/>
			<point x="338" y="714" type="curve" smooth="yes"/>
			<point x="338" y="765"/>
			<point x="360" y="774"/>
			<point x="380" y="774" type="curve" smooth="yes"/>
			<point x="389" y="774"/>
			<point x="399" y="773"/>
			<point x="410" y="771" type="curve"/>
			<point x="413" y="783" type="line"/>
			<point x="379" y="793"/>
			<point x="338" y="800"/>
			<point x="297" y="800" type="curve" smooth="yes"/>
			<point x="206" y="800"/>
			<point x="151" y="760"/>
			<point x="151" y="685" type="curve" smooth="yes"/>
			<point x="151" y="618"/>
			<point x="169" y="496"/>
			<point x="169" y="413" type="curve" smooth="yes"/>
			<point x="169" y="361"/>
			<point x="158" y="320"/>
		</contour>
	</outline>
</glyph>
<glyph name="braceright" format="2">
	<unicode hex="007D"/>
	<advance width="444"/>
	<outline>
		<contour>
			<point x="363" y="280" type="curve"/>
			<point x="364" y="291" type="line"/>
			<point x="298" y="297"/>
			<point x="287" y="309"/>
			<point x="287" y="372" type="curve" smooth="yes"/>
			<point x="287" y="449"/>
			<point x="327" y="618"/>
			<point x="327" y="679" type="curve" smooth="yes"/>
			<point x="327" y="748"/>
			<point x="288" y="800"/>
			<point x="185" y="800" type="curve" smooth="yes"/>
			<point x="140" y="800"/>
			<point x="95" y="794"/>
			<point x="68" y="783" type="curve"/>
			<point x="72" y="771" type="line"/>
			<point x="84" y="773"/>
			<point x="94" y="775"/>
			<point x="104" y="775" type="curve" smooth="yes"/>
			<point x="131" y="775"/>
			<point x="138" y="758"/>
			<point x="138" y="712" type="curve" smooth="yes"/>
			<point x="138" y="657"/>
			<point x="98" y="509"/>
			<point x="98" y="431" type="curve" smooth="yes"/>
			<point x="98" y="345"/>
			<point x="132" y="288"/>
			<point x="301" y="281" type="curve"/>
			<point x="118" y="263"/>
			<point x="90" y="215"/>
			<point x="90" y="128" type="curve" smooth="yes"/>
			<point x="90" y="62"/>
			<point x="110" y="-50"/>
			<point x="110" y="-134" type="curve" smooth="yes"/>
			<point x="110" y="-185"/>
			<point x="88" y="-194"/>
			<point x="68" y="-194" type="curve" smooth="yes"/>
			<point x="59" y="-194"/>
			<point x="49" y="-193"/>
			<point x="38" y="-191" type="curve"/>
			<point x="35" y="-203" type="line"/>
			<point x="69" y="-213"/>
			<point x="110" y="-220"/>
			<point x="151" y="-220" type="curve" smooth="yes"/>
			<point x="242" y="-220"/>
			<point x="297" y="-180"/>
			<point x="297" y="-105" type="curve" smooth="yes"/>
			<point x="297" y="-38"/>
			<point x="279" y="84"/>
			<point x="279" y="167" type="curve" smooth="yes"/>
			<point x="279" y="236"/>
			<point x="290" y="274"/>
		</contour>
	</outline>
</glyph>
<glyph name="asciitilde" format="2">
	<unicode hex="007E"/>
	<advance width="652"/>
	<outline>
		<contour>
			<point x="484" y="299" type="curve" smooth="yes"/>
			<point x="527" y="299"/>
			<point x="553" y="316"/>
			<point x="579" y="371" type="curve"/>
			<point x="560" y="381" type="line"/>
			<point x="533" y="329"/>
			<point x="521" y="323"/>
			<point x="484" y="323" type="curve" smooth="yes"/>
			<point x="410" y="323"/>
			<point x="255" y="374"/>
			<point x="181" y="374" type="curve" smooth="yes"/>
			<point x="138" y="374"/>
			<point x="112" y="352"/>
			<point x="86" y="297" type="curve"/>
			<point x="105" y="287" type="line"/>
			<point x="132" y="339"/>
			<point x="144" y="350"/>
			<point x="181" y="350" type="curve" smooth="yes"/>
			<point x="252" y="350"/>
			<point x="409" y="299"/>
		</contour>
	</outline>
</glyph>
<glyph name="yen" format="2">
	<unicode hex="00A5"/>
	<advance width="765"/>
	<outline>
		<contour>
			<point x="177" y="0" type="line"/>
			<point x="571" y="0" type="line"/>
			<point x="573" y="18" type="line"/>
			<point x="487" y="28" type="line"/>
			<point x="496" y="271" type="line"/>
			<point x="674" y="271" type="line"/>
			<point x="678" y="294" type="line"/>
			<point x="497" y="294" type="line"/>
			<point x="499" y="351" type="line"/>
			<point x="520" y="386" type="line"/>
			<point x="685" y="386" type="line"/>
			<point x="689" y="409" type="line"/>
			<point x="533" y="409" type="line"/>
			<point x="705" y="702" type="line"/>
			<point x="774" y="712" type="line"/>
			<point x="776" y="730" type="line"/>
			<point x="594" y="730" type="line"/>
			<point x="591" y="712" type="line"/>
			<point x="677" y="702" type="line"/>
			<point x="484" y="368" type="line"/>
			<point x="481" y="368" type="line"/>
			<point x="318" y="702" type="line"/>
			<point x="423" y="712" type="line"/>
			<point x="425" y="730" type="line"/>
			<point x="23" y="730" type="line"/>
			<point x="21" y="712" type="line"/>
			<point x="104" y="702" type="line"/>
			<point x="239" y="409" type="line"/>
			<point x="114" y="409" type="line"/>
			<point x="109" y="386" type="line"/>
			<point x="250" y="386" type="line"/>
			<point x="273" y="335" type="line"/>
			<point x="271" y="294" type="line"/>
			<point x="106" y="294" type="line"/>
			<point x="101" y="271" type="line"/>
			<point x="270" y="271" type="line"/>
			<point x="260" y="27" type="line"/>
			<point x="179" y="18" type="line"/>
		</contour>
	</outline>
</glyph>
<glyph name="section" format="2">
	<unicode hex="00A7"/>
	<advance width="609"/>
	<outline>
		<contour>
			<point x="580" y="300" type="curve" smooth="yes"/>
			<point x="580" y="478"/>
			<point x="229" y="469"/>
			<point x="229" y="606" type="curve" smooth="yes"/>
			<point x="229" y="671"/>
			<point x="267" y="698"/>
			<point x="313" y="698" type="curve" smooth="yes"/>
			<point x="390" y="698"/>
			<point x="402" y="655"/>
			<point x="367" y="583" type="curve" smooth="yes"/>
			<point x="343" y="534" type="line"/>
			<point x="367" y="512"/>
			<point x="399" y="495"/>
			<point x="433" y="495" type="curve" smooth="yes"/>
			<point x="481" y="495"/>
			<point x="523" y="516"/>
			<point x="523" y="579" type="curve" smooth="yes"/>
			<point x="523" y="664"/>
			<point x="439" y="715"/>
			<point x="322" y="715" type="curve" smooth="yes"/>
			<point x="203" y="715"/>
			<point x="80" y="658"/>
			<point x="80" y="513" type="curve" smooth="yes"/>
			<point x="80" y="293"/>
			<point x="533" y="316"/>
			<point x="508" y="159" type="curve"/>
			<point x="517" y="154" type="line"/>
			<point x="555" y="187"/>
			<point x="580" y="240"/>
		</contour>
		<contour>
			<point x="20" y="261" type="curve" smooth="yes"/>
			<point x="20" y="83"/>
			<point x="371" y="92"/>
			<point x="371" y="-45" type="curve" smooth="yes"/>
			<point x="371" y="-110"/>
			<point x="333" y="-137"/>
			<point x="287" y="-137" type="curve" smooth="yes"/>
			<point x="210" y="-137"/>
			<point x="198" y="-94"/>
			<point x="233" y="-22" type="curve" smooth="yes"/>
			<point x="257" y="27" type="line"/>
			<point x="233" y="49"/>
			<point x="201" y="66"/>
			<point x="167" y="66" type="curve" smooth="yes"/>
			<point x="119" y="66"/>
			<point x="77" y="45"/>
			<point x="77" y="-18" type="curve" smooth="yes"/>
			<point x="77" y="-103"/>
			<point x="161" y="-154"/>
			<point x="278" y="-154" type="curve" smooth="yes"/>
			<point x="397" y="-154"/>
			<point x="520" y="-96"/>
			<point x="520" y="49" type="curve" smooth="yes"/>
			<point x="520" y="270"/>
			<point x="67" y="247"/>
			<point x="92" y="403" type="curve"/>
			<point x="83" y="408" type="line"/>
			<point x="45" y="375"/>
			<point x="20" y="321"/>
		</contour>
	</outline>
</glyph>
<glyph name="degree" format="2">
	<unicode hex="00B0"/>
	<advance width="315"/>
	<outline>
		<contour>
			<point x="161" y="550" type="curve" smooth="yes"/>
			<point x="240" y="550"/>
			<point x="285" y="603"/>
			<point x="285" y="673" type="curve" smooth="yes"/>
			<point x="285" y="738"/>
			<point x="238" y="781"/>
			<point x="166" y="781" type="curve" smooth="yes"/>
			<point x="85" y="781"/>
			<point x="43" y="726"/>
			<point x="43" y="661" type="curve" smooth="yes"/>
			<point x="43" y="596"/>
			<point x="85" y="550"/>
		</contour>
		<contour>
			<point x="162" y="583" type="curve" smooth="yes"/>
			<point x="111" y="583"/>
			<point x="84" y="616"/>
			<point x="84" y="661" type="curve" smooth="yes"/>
			<point x="84" y="714"/>
			<point x="114" y="748"/>
			<point x="164" y="748" type="curve" smooth="yes"/>
			<point x="213" y="748"/>
			<point x="244" y="717"/>
			<point x="244" y="671" type="curve" smooth="yes"/>
			<point x="244" y="619"/>
			<point x="213" y="583"/>
		</contour>
	</outline>
</glyph>
<glyph name="twosuperior" format="2">
	<unicode hex="00B2"/>
	<advance width="467"/>
	<outline>
		<contour>
			<point x="189" y="813" type="curve" smooth="yes"/>
			<point x="238" y="813"/>
			<point x="263" y="774"/>
			<point x="263" y="719" type="curve" smooth="yes"/>
			<point x="263" y="631"/>
			<point x="210" y="574"/>
			<point x="40" y="440" type="curve"/>
			<point x="59" y="374" type="line"/>
			<point x="416" y="374" type="line"/>
			<point x="439" y="562" type="line"/>
			<point x="422" y="562" type="line"/>
			<point x="400" y="505"/>
			<point x="381" y="492"/>
			<point x="321" y="492" type="curve" smooth="yes"/>
			<point x="132" y="492" type="line"/>
			<point x="322" y="572"/>
			<point x="432" y="620"/>
			<point x="432" y="725" type="curve" smooth="yes"/>
			<point x="432" y="791"/>
			<point x="363" y="837"/>
			<point x="240" y="837" type="curve" smooth="yes"/>
			<point x="103" y="837"/>
			<point x="31" y="781"/>
			<point x="31" y="716" type="curve" smooth="yes"/>
			<point x="31" y="679"/>
			<point x="49" y="643"/>
			<point x="104" y="643" type="curve" smooth="yes"/>
			<point x="134" y="643"/>
			<point x="165" y="654"/>
			<point x="179" y="689" type="curve"/>
			<point x="157" y="712" type="line" smooth="yes"/>
			<point x="114" y="757"/>
			<point x="133" y="813"/>
		</contour>
	</outline>
</glyph>
<glyph name="paragraph" format="2">
	<unicode hex="00B6"/>
	<advance width="745"/>
	<outline>
		<contour>
			<point x="415" y="-109" type="curve" smooth="yes"/>
			<point x="411" y="-145"/>
			<point x="392" y="-146"/>
			<point x="369" y="-126" type="curve" smooth="yes"/>
			<point x="313" y="-77" type="line"/>
			<point x="278" y="-105"/>
			<point x="262" y="-127"/>
			<point x="262" y="-163" type="curve" smooth="yes"/>
			<point x="262" y="-196"/>
			<point x="291" y="-229"/>
			<point x="344" y="-229" type="curve" smooth="yes"/>
			<point x="386" y="-229"/>
			<point x="430" y="-208"/>
			<point x="477" y="-151" type="curve" smooth="yes"/>
			<point x="589" y="-15"/>
			<point x="636" y="87"/>
			<point x="641" y="170" type="curve" smooth="yes"/>
			<point x="659" y="670" type="line"/>
			<point x="732" y="682" type="line"/>
			<point x="735" y="700" type="line"/>
			<point x="453" y="700" type="line"/>
			<point x="422" y="14" type="line" smooth="yes"/>
			<point x="420" y="-30"/>
			<point x="419" y="-73"/>
		</contour>
		<contour>
			<point x="388" y="148" type="line"/>
			<point x="408" y="700" type="line"/>
			<point x="374" y="700" type="line" smooth="yes"/>
			<point x="148" y="700"/>
			<point x="32" y="619"/>
			<point x="32" y="419" type="curve" smooth="yes"/>
			<point x="32" y="249"/>
			<point x="154" y="148"/>
			<point x="348" y="148" type="curve" smooth="yes"/>
		</contour>
	</outline>
</glyph>
<glyph name="periodcentered" format="2">
	<unicode hex="00B7"/>
	<advance width="435"/>
	<outline>
		<contour>
			<point x="81" y="302" type="curve" smooth="yes"/>
			<point x="81" y="247"/>
			<point x="120" y="188"/>
			<point x="210" y="188" type="curve" smooth="yes"/>
			<point x="282" y="188"/>
			<point x="356" y="235"/>
			<point x="356" y="326" type="curve" smooth="yes"/>
			<point x="356" y="385"/>
			<point x="307" y="443"/>
			<point x="225" y="443" type="curve" smooth="yes"/>
			<point x="134" y="443"/>
			<point x="81" y="378"/>
		</contour>
	</outline>
</glyph>
<glyph name="cedilla" format="2">
	<unicode hex="00B8"/>
	<advance width="492.5"/>
	<outline>
		<contour>
			<point x="234" y="6" type="line"/>
			<point x="206" y="6" type="line"/>
			<point x="164" y="-82" type="line"/>
			<point x="173" y="-95" type="line"/>
			<point x="201" y="-87"/>
			<point x="239" y="-95"/>
			<point x="239" y="-139" type="curve" smooth="yes"/>
			<point x="239" y="-184"/>
			<point x="211" y="-195"/>
			<point x="180" y="-195" type="curve" smooth="yes"/>
			<point x="155" y="-195"/>
			<point x="127" y="-190"/>
			<point x="94" y="-176" type="curve"/>
			<point x="86" y="-190" type="line"/>
			<point x="129" y="-230"/>
			<point x="170" y="-256"/>
			<point x="234" y="-256" type="curve" smooth="yes"/>
			<point x="329" y="-256"/>
			<point x="367" y="-204"/>
			<point x="367" y="-143" type="curve" smooth="yes"/>
			<point x="367" y="-60"/>
			<point x="269" y="-33"/>
			<point x="204" y="-59" type="curve"/>
		</contour>
	</outline>
	<anchor name="_bottom" x="248" y="-30"/>
</glyph>
<glyph name="AE" format="2">
	<unicode hex="00C6"/>
	<advance width="981"/>
	<outline>
		<contour>
			<point x="-4" y="0" type="line"/>
			<point x="197" y="0" type="line"/>
			<point x="200" y="18" type="line"/>
			<point x="100" y="27" type="line"/>
			<point x="178" y="262" type="line"/>
			<point x="399" y="262" type="line"/>
			<point x="451" y="27" type="line"/>
			<point x="365" y="18" type="line"/>
			<point x="362" y="0" type="line"/>
			<point x="912" y="0" type="line"/>
			<point x="943" y="185" type="line"/>
			<point x="922" y="186" type="line"/>
			<point x="897" y="110" type="line" smooth="yes"/>
			<point x="877" y="48"/>
			<point x="837" y="23"/>
			<point x="762" y="23" type="curve" smooth="yes"/>
			<point x="679" y="23" type="line"/>
			<point x="597" y="362" type="line"/>
			<point x="779" y="362" type="line"/>
			<point x="780" y="386" type="line"/>
			<point x="590" y="386" type="line"/>
			<point x="515" y="707" type="line"/>
			<point x="646" y="707" type="line" smooth="yes"/>
			<point x="714" y="707"/>
			<point x="745" y="688"/>
			<point x="768" y="601" type="curve" smooth="yes"/>
			<point x="785" y="537" type="line"/>
			<point x="806" y="538" type="line"/>
			<point x="786" y="730" type="line"/>
			<point x="307" y="730" type="line"/>
			<point x="72" y="27" type="line"/>
			<point x="-2" y="18" type="line"/>
		</contour>
		<contour>
			<point x="187" y="286" type="line"/>
			<point x="312" y="676" type="line"/>
			<point x="316" y="676" type="line"/>
			<point x="393" y="286" type="line"/>
		</contour>
	</outline>
	<anchor name="top" x="540" y="730"/>
</glyph>
<glyph name="multiply" format="2">
	<unicode hex="00D7"/>
	<advance width="582"/>
	<outline>
		<contour>
			<point x="442" y="140" type="line"/>
			<point x="456" y="154" type="line"/>
			<point x="307" y="308" type="line"/>
			<point x="462" y="457" type="line"/>
			<point x="448" y="472" type="line"/>
			<point x="293" y="323" type="line"/>
			<point x="144" y="477" type="line"/>
			<point x="129" y="464" type="line"/>
			<point x="279" y="309" type="line"/>
			<point x="119" y="155" type="line"/>
			<point x="133" y="140" type="line"/>
			<point x="293" y="295" type="line"/>
		</contour>
	</outline>
</glyph>
<glyph name="Oslash" format="2">
	<unicode hex="00D8"/>
	<advance width="796"/>
	<outline>
		<contour>
			<point x="84" y="-14" type="line"/>
			<point x="113" y="-14" type="line"/>
			<point x="161" y="45" type="line"/>
			<point x="213" y="7"/>
			<point x="283" y="-14"/>
			<point x="373" y="-14" type="curve" smooth="yes"/>
			<point x="600" y="-14"/>
			<point x="761" y="153"/>
			<point x="761" y="407" type="curve" smooth="yes"/>
			<point x="761" y="521"/>
			<point x="728" y="608"/>
			<point x="666" y="665" type="curve"/>
			<point x="730" y="744" type="line"/>
			<point x="701" y="744" type="line"/>
			<point x="649" y="680" type="line"/>
			<point x="594" y="723"/>
			<point x="520" y="745"/>
			<point x="428" y="745" type="curve" smooth="yes"/>
			<point x="203" y="745"/>
			<point x="49" y="594"/>
			<point x="45" y="339" type="curve" smooth="yes"/>
			<point x="43" y="218"/>
			<point x="75" y="121"/>
			<point x="144" y="59" type="curve"/>
		</contour>
		<contour>
			<point x="391" y="4" type="curve" smooth="yes"/>
			<point x="332" y="4"/>
			<point x="298" y="75"/>
			<point x="285" y="198" type="curve"/>
			<point x="524" y="491" type="line"/>
			<point x="526" y="457"/>
			<point x="526" y="419"/>
			<point x="525" y="378" type="curve" smooth="yes"/>
			<point x="518" y="127"/>
			<point x="499" y="4"/>
		</contour>
		<contour>
			<point x="283" y="230" type="line"/>
			<point x="280" y="272"/>
			<point x="279" y="320"/>
			<point x="280" y="372" type="curve" smooth="yes"/>
			<point x="285" y="610"/>
			<point x="305" y="729"/>
			<point x="409" y="729" type="curve" smooth="yes"/>
			<point x="478" y="729"/>
			<point x="512" y="657"/>
			<point x="522" y="525" type="curve"/>
		</contour>
	</outline>
</glyph>
<glyph name="Thorn" format="2">
	<unicode hex="00DE"/>
	<advance width="717"/>
	<outline>
		<contour>
			<point x="10" y="0" type="line"/>
			<point x="421" y="0" type="line"/>
			<point x="422" y="19" type="line"/>
			<point x="320" y="28" type="line"/>
			<point x="326" y="185" type="line"/>
			<point x="394" y="185" type="line" smooth="yes"/>
			<point x="602" y="185"/>
			<point x="693" y="265"/>
			<point x="693" y="372" type="curve" smooth="yes"/>
			<point x="693" y="496"/>
			<point x="601" y="540"/>
			<point x="423" y="540" type="curve" smooth="yes"/>
			<point x="339" y="540" type="line"/>
			<point x="345" y="700" type="line"/>
			<point x="445" y="712" type="line"/>
			<point x="447" y="730" type="line"/>
			<point x="51" y="730" type="line"/>
			<point x="47" y="712" type="line"/>
			<point x="121" y="697" type="line"/>
			<point x="93" y="27" type="line"/>
			<point x="12" y="18" type="line"/>
		</contour>
		<contour>
			<point x="327" y="208" type="line"/>
			<point x="338" y="517" type="line"/>
			<point x="346" y="517" type="line" smooth="yes"/>
			<point x="428" y="517"/>
			<point x="466" y="490"/>
			<point x="466" y="378" type="curve" smooth="yes"/>
			<point x="466" y="244"/>
			<point x="427" y="208"/>
			<point x="350" y="208" type="curve" smooth="yes"/>
		</contour>
	</outline>
</glyph>
<glyph name="divide" format="2">
	<unicode hex="00F7"/>
	<advance width="582"/>
	<outline>
		<contour>
			<point x="77" y="295" type="line"/>
			<point x="505" y="295" type="line"/>
			<point x="507" y="318" type="line"/>
			<point x="79" y="318" type="line"/>
		</contour>
		<contour>
			<point x="274" y="58" type="curve" smooth="yes"/>
			<point x="327" y="58"/>
			<point x="372" y="100"/>
			<point x="372" y="153" type="curve" smooth="yes"/>
			<point x="372" y="198"/>
			<point x="336" y="232"/>
			<point x="283" y="232" type="curve" smooth="yes"/>
			<point x="232" y="232"/>
			<point x="187" y="192"/>
			<point x="187" y="139" type="curve" smooth="yes"/>
			<point x="187" y="92"/>
			<point x="223" y="58"/>
		</contour>
		<contour>
			<point x="300" y="377" type="curve" smooth="yes"/>
			<point x="353" y="377"/>
			<point x="398" y="417"/>
			<point x="398" y="470" type="curve" smooth="yes"/>
			<point x="398" y="517"/>
			<point x="362" y="551"/>
			<point x="309" y="551" type="curve" smooth="yes"/>
			<point x="258" y="551"/>
			<point x="213" y="509"/>
			<point x="213" y="456" type="curve" smooth="yes"/>
			<point x="213" y="411"/>
			<point x="249" y="377"/>
		</contour>
	</outline>
</glyph>
<glyph name="oslash" format="2">
	<unicode hex="00F8"/>
	<advance width="644"/>
	<outline>
		<contour>
			<point x="69" y="-14" type="line"/>
			<point x="102" y="-14" type="line"/>
			<point x="137" y="26" type="line"/>
			<point x="178" y="0"/>
			<point x="233" y="-14"/>
			<point x="302" y="-14" type="curve" smooth="yes"/>
			<point x="531" y="-14"/>
			<point x="610" y="131"/>
			<point x="610" y="283" type="curve" smooth="yes"/>
			<point x="610" y="369"/>
			<point x="585" y="436"/>
			<point x="534" y="480" type="curve"/>
			<point x="584" y="537" type="line"/>
			<point x="551" y="537" type="line"/>
			<point x="514" y="495" type="line"/>
			<point x="472" y="522"/>
			<point x="416" y="537"/>
			<point x="346" y="537" type="curve" smooth="yes"/>
			<point x="121" y="537"/>
			<point x="34" y="401"/>
			<point x="34" y="241" type="curve" smooth="yes"/>
			<point x="34" y="156"/>
			<point x="60" y="85"/>
			<point x="117" y="40" type="curve"/>
		</contour>
		<contour>
			<point x="317" y="8" type="curve" smooth="yes"/>
			<point x="274" y="8"/>
			<point x="264" y="53"/>
			<point x="262" y="168" type="curve"/>
			<point x="389" y="314" type="line"/>
			<point x="389" y="303"/>
			<point x="389" y="292"/>
			<point x="389" y="281" type="curve" smooth="yes"/>
			<point x="389" y="109"/>
			<point x="386" y="8"/>
		</contour>
		<contour>
			<point x="261" y="206" type="line"/>
			<point x="261" y="216"/>
			<point x="261" y="225"/>
			<point x="261" y="235" type="curve" smooth="yes"/>
			<point x="261" y="481"/>
			<point x="290" y="519"/>
			<point x="333" y="519" type="curve" smooth="yes"/>
			<point x="379" y="519"/>
			<point x="387" y="470"/>
			<point x="389" y="351" type="curve"/>
		</contour>
	</outline>
</glyph>
<glyph name="Eogonek" format="2">
	<unicode hex="0118"/>
	<advance width="640"/>
	<outline>
		<contour>
			<point x="10" y="0" type="line"/>
			<point x="531" y="0" type="line"/>
			<point x="354" y="-79"/>
			<point x="324" y="-114"/>
			<point x="324" y="-168" type="curve" smooth="yes"/>
			<point x="324" y="-224"/>
			<point x="366" y="-249"/>
			<point x="424" y="-249" type="curve" smooth="yes"/>
			<point x="483" y="-249"/>
			<point x="544" y="-217"/>
			<point x="575" y="-135" type="curve"/>
			<point x="565" y="-130" type="line"/>
			<point x="545" y="-155"/>
			<point x="523" y="-163"/>
			<point x="504" y="-163" type="curve" smooth="yes"/>
			<point x="485" y="-163"/>
			<point x="469" y="-151"/>
			<point x="469" y="-124" type="curve" smooth="yes"/>
			<point x="469" y="-83"/>
			<point x="488" y="-46"/>
			<point x="571" y="0" type="curve"/>
			<point x="602" y="185" type="line"/>
			<point x="581" y="186" type="line"/>
			<point x="557" y="116" type="line" smooth="yes"/>
			<point x="536" y="55"/>
			<point x="487" y="23"/>
			<point x="411" y="23" type="curve" smooth="yes"/>
			<point x="320" y="23" type="line"/>
			<point x="332" y="362" type="line"/>
			<point x="537" y="362" type="line"/>
			<point x="539" y="386" type="line"/>
			<point x="333" y="386" type="line"/>
			<point x="345" y="707" type="line"/>
			<point x="433" y="707" type="line" smooth="yes"/>
			<point x="501" y="707"/>
			<point x="542" y="683"/>
			<point x="565" y="599" type="curve" smooth="yes"/>
			<point x="582" y="537" type="line"/>
			<point x="603" y="538" type="line"/>
			<point x="583" y="730" type="line"/>
			<point x="51" y="730" type="line"/>
			<point x="47" y="712" type="line"/>
			<point x="121" y="697" type="line"/>
			<point x="93" y="27" type="line"/>
			<point x="12" y="18" type="line"/>
		</contour>
	</outline>
</glyph>
<glyph name="Hbar" format="2">
	<unicode hex="0126"/>
	<advance width="848"/>
	<outline>
		<contour>
			<point x="10" y="0" type="line"/>
			<point x="395" y="0" type="line"/>
			<point x="397" y="18" type="line"/>
			<point x="319" y="28" type="line"/>
			<point x="333" y="362" type="line"/>
			<point x="525" y="362" type="line"/>
			<point x="511" y="27" type="line"/>
			<point x="445" y="18" type="line"/>
			<point x="443" y="0" type="line"/>
			<point x="821" y="0" type="line"/>
			<point x="823" y="18" type="line"/>
			<point x="737" y="28" type="line"/>
			<point x="755" y="524" type="line"/>
			<point x="851" y="524" type="line"/>
			<point x="850" y="553" type="line"/>
			<point x="757" y="553" type="line"/>
			<point x="762" y="700" type="line"/>
			<point x="835" y="712" type="line"/>
			<point x="838" y="730" type="line"/>
			<point x="471" y="730" type="line"/>
			<point x="467" y="712" type="line"/>
			<point x="538" y="700" type="line"/>
			<point x="532" y="553" type="line"/>
			<point x="342" y="553" type="line"/>
			<point x="348" y="697" type="line"/>
			<point x="420" y="712" type="line"/>
			<point x="423" y="730" type="line"/>
			<point x="51" y="730" type="line"/>
			<point x="47" y="712" type="line"/>
			<point x="121" y="697" type="line"/>
			<point x="115" y="553" type="line"/>
			<point x="20" y="553" type="line"/>
			<point x="18" y="524" type="line"/>
			<point x="114" y="524" type="line"/>
			<point x="93" y="27" type="line"/>
			<point x="12" y="18" type="line"/>
		</contour>
		<contour>
			<point x="335" y="386" type="line"/>
			<point x="341" y="524" type="line"/>
			<point x="531" y="524" type="line"/>
			<point x="525" y="386" type="line"/>
		</contour>
	</outline>
</glyph>
<glyph name="idotless" format="2">
	<unicode hex="0131"/>
	<advance width="370"/>
	<outline>
		<contour>
			<point x="99" y="457" type="curve" smooth="yes"/>
			<point x="73" y="142" type="line" smooth="yes"/>
			<point x="65" y="40"/>
			<point x="81" y="-14"/>
			<point x="184" y="-14" type="curve" smooth="yes"/>
			<point x="266" y="-14"/>
			<point x="355" y="46"/>
			<point x="378" y="68" type="curve"/>
			<point x="367" y="84" type="line"/>
			<point x="350" y="70"/>
			<point x="326" y="56"/>
			<point x="304" y="56" type="curve" smooth="yes"/>
			<point x="281" y="56"/>
			<point x="280" y="70"/>
			<point x="283" y="112" type="curve" smooth="yes"/>
			<point x="302" y="395" type="line" smooth="yes"/>
			<point x="308" y="477"/>
			<point x="273" y="537"/>
			<point x="177" y="537" type="curve" smooth="yes"/>
			<point x="107" y="537"/>
			<point x="39" y="513"/>
			<point x="3" y="497" type="curve"/>
			<point x="10" y="477" type="line"/>
			<point x="36" y="488"/>
			<point x="63" y="494"/>
			<point x="75" y="494" type="curve" smooth="yes"/>
			<point x="97" y="494"/>
			<point x="101" y="481"/>
		</contour>
	</outline>
	<anchor name="bottom" x="189" y="-30"/>
	<anchor name="top" x="168" y="550"/>
</glyph>
<glyph name="lslash" format="2">
	<unicode hex="0142"/>
	<advance width="348.5"/>
	<outline>
		<contour>
			<point x="177" y="-14" type="curve" smooth="yes"/>
			<point x="264" y="-14"/>
			<point x="349" y="51"/>
			<point x="374" y="80" type="curve"/>
			<point x="362" y="93" type="line"/>
			<point x="339" y="72"/>
			<point x="309" y="56"/>
			<point x="289" y="56" type="curve" smooth="yes"/>
			<point x="268" y="56"/>
			<point x="263" y="69"/>
			<point x="264" y="99" type="curve" smooth="yes"/>
			<point x="278" y="433" type="line"/>
			<point x="348" y="473" type="line"/>
			<point x="351" y="507" type="line"/>
			<point x="279" y="466" type="line"/>
			<point x="291" y="756" type="line"/>
			<point x="279" y="767" type="line"/>
			<point x="5" y="767" type="line"/>
			<point x="2" y="751" type="line"/>
			<point x="94" y="728" type="line"/>
			<point x="79" y="402" type="line"/>
			<point x="6" y="363" type="line"/>
			<point x="3" y="329" type="line"/>
			<point x="77" y="369" type="line"/>
			<point x="65" y="112" type="line" smooth="yes"/>
			<point x="62" y="56"/>
			<point x="76" y="-14"/>
		</contour>
	</outline>
</glyph>
<glyph name="eng" format="2">
	<unicode hex="014B"/>
	<advance width="673"/>
	<outline>
		<contour>
			<point x="291" y="-229" type="curve" smooth="yes"/>
			<point x="333" y="-229"/>
			<point x="382" y="-201"/>
			<point x="429" y="-144" type="curve" smooth="yes"/>
			<point x="544" y="-5"/>
			<point x="586" y="88"/>
			<point x="594" y="170" type="curve" smooth="yes"/>
			<point x="610" y="346" type="line" smooth="yes"/>
			<point x="622" y="476"/>
			<point x="559" y="540"/>
			<point x="467" y="540" type="curve" smooth="yes"/>
			<point x="357" y="540"/>
			<point x="336" y="482"/>
			<point x="313" y="398" type="curve" smooth="yes"/>
			<point x="254" y="179" type="line"/>
			<point x="244" y="180" type="line"/>
			<point x="268" y="413" type="line" smooth="yes"/>
			<point x="276" y="490"/>
			<point x="230" y="537"/>
			<point x="153" y="537" type="curve" smooth="yes"/>
			<point x="94" y="537"/>
			<point x="13" y="509"/>
			<point x="-4" y="502" type="curve"/>
			<point x="4" y="481" type="line"/>
			<point x="23" y="487"/>
			<point x="45" y="494"/>
			<point x="59" y="494" type="curve" smooth="yes"/>
			<point x="82" y="494"/>
			<point x="81" y="478"/>
			<point x="81" y="462" type="curve" smooth="yes"/>
			<point x="70" y="0" type="line"/>
			<point x="235" y="0" type="line"/>
			<point x="334" y="368" type="line" smooth="yes"/>
			<point x="351" y="431"/>
			<point x="360" y="440"/>
			<point x="382" y="440" type="curve" smooth="yes"/>
			<point x="399" y="440"/>
			<point x="405" y="430"/>
			<point x="402" y="392" type="curve"/>
			<point x="355" y="-109" type="line" smooth="yes"/>
			<point x="352" y="-145"/>
			<point x="332" y="-146"/>
			<point x="309" y="-126" type="curve" smooth="yes"/>
			<point x="253" y="-77" type="line"/>
			<point x="218" y="-105"/>
			<point x="202" y="-127"/>
			<point x="202" y="-163" type="curve" smooth="yes"/>
			<point x="202" y="-196"/>
			<point x="238" y="-229"/>
		</contour>
	</outline>
</glyph>
<glyph name="Scedilla" format="2">
	<unicode hex="015E"/>
	<advance width="598"/>
	<outline>
		<contour>
			<point x="267" y="-256" type="curve" smooth="yes"/>
			<point x="362" y="-256"/>
			<point x="400" y="-204"/>
			<point x="400" y="-143" type="curve" smooth="yes"/>
			<point x="400" y="-60"/>
			<point x="302" y="-33"/>
			<point x="237" y="-59" type="curve"/>
			<point x="258" y="-14" type="line"/>
			<point x="414" y="-17"/>
			<point x="571" y="81"/>
			<point x="571" y="217" type="curve" smooth="yes"/>
			<point x="571" y="306"/>
			<point x="528" y="371"/>
			<point x="395" y="437" type="curve" smooth="yes"/>
			<point x="240" y="514"/>
			<point x="209" y="548"/>
			<point x="209" y="619" type="curve" smooth="yes"/>
			<point x="209" y="689"/>
			<point x="272" y="726"/>
			<point x="326" y="726" type="curve" smooth="yes"/>
			<point x="413" y="726"/>
			<point x="418" y="673"/>
			<point x="390" y="614" type="curve" smooth="yes"/>
			<point x="363" y="557" type="line"/>
			<point x="389" y="533"/>
			<point x="433" y="511"/>
			<point x="478" y="511" type="curve" smooth="yes"/>
			<point x="539" y="511"/>
			<point x="577" y="541"/>
			<point x="577" y="597" type="curve" smooth="yes"/>
			<point x="577" y="690"/>
			<point x="470" y="745"/>
			<point x="336" y="745" type="curve" smooth="yes"/>
			<point x="203" y="745"/>
			<point x="49" y="686"/>
			<point x="49" y="521" type="curve" smooth="yes"/>
			<point x="49" y="421"/>
			<point x="92" y="346"/>
			<point x="269" y="265" type="curve" smooth="yes"/>
			<point x="381" y="214"/>
			<point x="411" y="184"/>
			<point x="411" y="118" type="curve" smooth="yes"/>
			<point x="411" y="56"/>
			<point x="344" y="5"/>
			<point x="270" y="5" type="curve" smooth="yes"/>
			<point x="180" y="5"/>
			<point x="166" y="42"/>
			<point x="204" y="130" type="curve" smooth="yes"/>
			<point x="223" y="174" type="line"/>
			<point x="198" y="206"/>
			<point x="157" y="228"/>
			<point x="115" y="228" type="curve" smooth="yes"/>
			<point x="50" y="228"/>
			<point x="16" y="184"/>
			<point x="16" y="138" type="curve" smooth="yes"/>
			<point x="16" y="36"/>
			<point x="112" y="-5"/>
			<point x="230" y="-13" type="curve"/>
			<point x="197" y="-82" type="line"/>
			<point x="206" y="-95" type="line"/>
			<point x="234" y="-87"/>
			<point x="272" y="-95"/>
			<point x="272" y="-139" type="curve" smooth="yes"/>
			<point x="272" y="-184"/>
			<point x="244" y="-195"/>
			<point x="213" y="-195" type="curve" smooth="yes"/>
			<point x="188" y="-195"/>
			<point x="160" y="-190"/>
			<point x="127" y="-176" type="curve"/>
			<point x="119" y="-190" type="line"/>
			<point x="162" y="-230"/>
			<point x="203" y="-256"/>
		</contour>
	</outline>
</glyph>
<glyph name="scedilla" format="2">
	<unicode hex="015F"/>
	<advance width="538"/>
	<outline>
		<contour>
			<point x="233" y="-256" type="curve" smooth="yes"/>
			<point x="328" y="-256"/>
			<point x="366" y="-204"/>
			<point x="366" y="-143" type="curve" smooth="yes"/>
			<point x="366" y="-60"/>
			<point x="268" y="-33"/>
			<point x="203" y="-59" type="curve"/>
			<point x="224" y="-14" type="line"/>
			<point x="390" y="-18"/>
			<point x="497" y="62"/>
			<point x="497" y="186" type="curve" smooth="yes"/>
			<point x="497" y="271"/>
			<point x="437" y="320"/>
			<point x="310" y="354" type="curve" smooth="yes"/>
			<point x="249" y="370"/>
			<point x="211" y="403"/>
			<point x="211" y="446" type="curve" smooth="yes"/>
			<point x="211" y="491"/>
			<point x="240" y="515"/>
			<point x="295" y="515" type="curve" smooth="yes"/>
			<point x="350" y="515"/>
			<point x="375" y="488"/>
			<point x="365" y="440" type="curve" smooth="yes"/>
			<point x="353" y="383" type="line"/>
			<point x="377" y="372"/>
			<point x="409" y="364"/>
			<point x="432" y="364" type="curve" smooth="yes"/>
			<point x="477" y="364"/>
			<point x="506" y="388"/>
			<point x="506" y="424" type="curve" smooth="yes"/>
			<point x="506" y="487"/>
			<point x="416" y="537"/>
			<point x="304" y="537" type="curve" smooth="yes"/>
			<point x="160" y="537"/>
			<point x="52" y="460"/>
			<point x="52" y="356" type="curve" smooth="yes"/>
			<point x="52" y="275"/>
			<point x="124" y="210"/>
			<point x="227" y="187" type="curve" smooth="yes"/>
			<point x="311" y="168"/>
			<point x="350" y="144"/>
			<point x="350" y="99" type="curve" smooth="yes"/>
			<point x="350" y="44"/>
			<point x="314" y="10"/>
			<point x="255" y="10" type="curve" smooth="yes"/>
			<point x="214" y="10"/>
			<point x="194" y="29"/>
			<point x="189" y="73" type="curve" smooth="yes"/>
			<point x="182" y="138" type="line"/>
			<point x="160" y="149"/>
			<point x="137" y="155"/>
			<point x="116" y="155" type="curve" smooth="yes"/>
			<point x="69" y="155"/>
			<point x="39" y="128"/>
			<point x="39" y="86" type="curve" smooth="yes"/>
			<point x="39" y="30"/>
			<point x="96" y="-5"/>
			<point x="196" y="-13" type="curve"/>
			<point x="163" y="-82" type="line"/>
			<point x="172" y="-95" type="line"/>
			<point x="200" y="-87"/>
			<point x="238" y="-95"/>
			<point x="238" y="-139" type="curve" smooth="yes"/>
			<point x="238" y="-184"/>
			<point x="210" y="-195"/>
			<point x="179" y="-195" type="curve" smooth="yes"/>
			<point x="154" y="-195"/>
			<point x="126" y="-190"/>
			<point x="93" y="-176" type="curve"/>
			<point x="85" y="-190" type="line"/>
			<point x="128" y="-230"/>
			<point x="169" y="-256"/>
		</contour>
	</outline>
</glyph>
<glyph name="Tcedilla" format="2">
	<unicode hex="0162"/>
	<advance width="705"/>
	<outline>
		<contour>
			<point x="325" y="-256" type="curve" smooth="yes"/>
			<point x="420" y="-256"/>
			<point x="458" y="-204"/>
			<point x="458" y="-143" type="curve" smooth="yes"/>
			<point x="458" y="-60"/>
			<point x="360" y="-33"/>
			<point x="295" y="-59" type="curve"/>
			<point x="322" y="0" type="line"/>
			<point x="570" y="0" type="line"/>
			<point x="572" y="18" type="line"/>
			<point x="457" y="30" type="line"/>
			<point x="483" y="707" type="line"/>
			<point x="532" y="707" type="line" smooth="yes"/>
			<point x="617" y="707"/>
			<point x="651" y="684"/>
			<point x="673" y="580" type="curve" smooth="yes"/>
			<point x="687" y="513" type="line"/>
			<point x="708" y="516" type="line"/>
			<point x="694" y="730" type="line"/>
			<point x="51" y="730" type="line"/>
			<point x="25" y="524" type="line"/>
			<point x="46" y="518" type="line"/>
			<point x="72" y="611" type="line" smooth="yes"/>
			<point x="94" y="691"/>
			<point x="144" y="707"/>
			<point x="210" y="707" type="curve" smooth="yes"/>
			<point x="260" y="707" type="line"/>
			<point x="230" y="28" type="line"/>
			<point x="117" y="18" type="line"/>
			<point x="115" y="0" type="line"/>
			<point x="294" y="0" type="line"/>
			<point x="255" y="-82" type="line"/>
			<point x="264" y="-95" type="line"/>
			<point x="292" y="-87"/>
			<point x="330" y="-95"/>
			<point x="330" y="-139" type="curve" smooth="yes"/>
			<point x="330" y="-184"/>
			<point x="302" y="-195"/>
			<point x="271" y="-195" type="curve" smooth="yes"/>
			<point x="246" y="-195"/>
			<point x="218" y="-190"/>
			<point x="185" y="-176" type="curve"/>
			<point x="177" y="-190" type="line"/>
			<point x="220" y="-230"/>
			<point x="261" y="-256"/>
		</contour>
	</outline>
</glyph>
<glyph name="tbar" format="2">
	<unicode hex="0167"/>
	<advance width="501"/>
	<outline>
		<contour>
			<point x="249" y="-14" type="curve" smooth="yes"/>
			<point x="358" y="-14"/>
			<point x="404" y="30"/>
			<point x="441" y="76" type="curve"/>
			<point x="421" y="93" type="line"/>
			<point x="382" y="49"/>
			<point x="350" y="26"/>
			<point x="320" y="26" type="curve" smooth="yes"/>
			<point x="284" y="26"/>
			<point x="280" y="53"/>
			<point x="283" y="108" type="curve" smooth="yes"/>
			<point x="292" y="269" type="line"/>
			<point x="414" y="269" type="line"/>
			<point x="415" y="317" type="line"/>
			<point x="294" y="317" type="line"/>
			<point x="304" y="498" type="line"/>
			<point x="415" y="498" type="line"/>
			<point x="416" y="523" type="line"/>
			<point x="304" y="523" type="line"/>
			<point x="312" y="653" type="line"/>
			<point x="213" y="653" type="line"/>
			<point x="102" y="524" type="line"/>
			<point x="27" y="518" type="line"/>
			<point x="23" y="498" type="line"/>
			<point x="97" y="498" type="line"/>
			<point x="87" y="317" type="line"/>
			<point x="29" y="317" type="line"/>
			<point x="18" y="269" type="line"/>
			<point x="84" y="269" type="line"/>
			<point x="77" y="144" type="line" smooth="yes"/>
			<point x="71" y="44"/>
			<point x="131" y="-14"/>
		</contour>
	</outline>
</glyph>
<glyph name="uogonek" format="2">
	<unicode hex="0173"/>
	<advance width="673"/>
	<outline>
		<contour>
			<point x="8" y="502" type="curve"/>
			<point x="16" y="481" type="line"/>
			<point x="33" y="487"/>
			<point x="49" y="494"/>
			<point x="71" y="494" type="curve" smooth="yes"/>
			<point x="95" y="494"/>
			<point x="96" y="477"/>
			<point x="93" y="451" type="curve" smooth="yes"/>
			<point x="65" y="177" type="line" smooth="yes"/>
			<point x="52" y="47"/>
			<point x="109" y="-17"/>
			<point x="202" y="-17" type="curve" smooth="yes"/>
			<point x="304" y="-17"/>
			<point x="333" y="41"/>
			<point x="363" y="147" type="curve" smooth="yes"/>
			<point x="419" y="344" type="line"/>
			<point x="429" y="343" type="line"/>
			<point x="395" y="110" type="line" smooth="yes"/>
			<point x="382" y="17"/>
			<point x="456" y="-30"/>
			<point x="551" y="-4" type="curve"/>
			<point x="409" y="-82"/>
			<point x="381" y="-126"/>
			<point x="381" y="-168" type="curve" smooth="yes"/>
			<point x="381" y="-224"/>
			<point x="419" y="-249"/>
			<point x="481" y="-249" type="curve" smooth="yes"/>
			<point x="540" y="-249"/>
			<point x="601" y="-217"/>
			<point x="632" y="-135" type="curve"/>
			<point x="622" y="-130" type="line"/>
			<point x="602" y="-155"/>
			<point x="580" y="-163"/>
			<point x="561" y="-163" type="curve" smooth="yes"/>
			<point x="542" y="-163"/>
			<point x="526" y="-151"/>
			<point x="526" y="-124" type="curve" smooth="yes"/>
			<point x="526" y="-51"/>
			<point x="566" y="-7"/>
			<point x="681" y="68" type="curve"/>
			<point x="669" y="85" type="line"/>
			<point x="643" y="66"/>
			<point x="621" y="56"/>
			<point x="607" y="56" type="curve" smooth="yes"/>
			<point x="587" y="56"/>
			<point x="583" y="68"/>
			<point x="584" y="89" type="curve" smooth="yes"/>
			<point x="607" y="523" type="line"/>
			<point x="437" y="523" type="line"/>
			<point x="336" y="155" type="line" smooth="yes"/>
			<point x="321" y="100"/>
			<point x="312" y="83"/>
			<point x="293" y="83" type="curve" smooth="yes"/>
			<point x="276" y="83"/>
			<point x="269" y="93"/>
			<point x="273" y="131" type="curve" smooth="yes"/>
			<point x="303" y="425" type="line" smooth="yes"/>
			<point x="310" y="496"/>
			<point x="274" y="537"/>
			<point x="189" y="537" type="curve" smooth="yes"/>
			<point x="115" y="537"/>
			<point x="48" y="519"/>
		</contour>
	</outline>
</glyph>
<glyph name="Schwa" format="2">
	<unicode hex="018F"/>
	<advance width="766"/>
	<outline>
		<contour>
			<point x="340" y="-14" type="curve" smooth="yes"/>
			<point x="569" y="-14"/>
			<point x="731" y="154"/>
			<point x="731" y="409" type="curve" smooth="yes"/>
			<point x="731" y="639"/>
			<point x="578" y="745"/>
			<point x="382" y="745" type="curve" smooth="yes"/>
			<point x="263" y="745"/>
			<point x="170" y="697"/>
			<point x="98" y="591" type="curve"/>
			<point x="112" y="580" type="line"/>
			<point x="181" y="658"/>
			<point x="244" y="680"/>
			<point x="318" y="680" type="curve" smooth="yes"/>
			<point x="434" y="680"/>
			<point x="494" y="604"/>
			<point x="494" y="355" type="curve"/>
			<point x="55" y="355" type="line"/>
			<point x="44" y="322"/>
			<point x="42" y="296"/>
			<point x="42" y="245" type="curve" smooth="yes"/>
			<point x="42" y="101"/>
			<point x="145" y="-14"/>
		</contour>
		<contour>
			<point x="362" y="4" type="curve" smooth="yes"/>
			<point x="277" y="4"/>
			<point x="250" y="147"/>
			<point x="250" y="249" type="curve" smooth="yes"/>
			<point x="250" y="265"/>
			<point x="250" y="295"/>
			<point x="254" y="320" type="curve"/>
			<point x="492" y="320" type="line"/>
			<point x="485" y="152"/>
			<point x="471" y="4"/>
		</contour>
	</outline>
</glyph>
<glyph name="Ohorn" format="2">
	<unicode hex="01A0"/>
	<advance width="971"/>
	<outline>
		<contour>
			<point x="373" y="-14" type="curve" smooth="yes"/>
			<point x="600" y="-14"/>
			<point x="761" y="153"/>
			<point x="761" y="407" type="curve" smooth="yes"/>
			<point x="761" y="417"/>
			<point x="761" y="428"/>
			<point x="760" y="437" type="curve"/>
			<point x="920" y="481"/>
			<point x="985" y="558"/>
			<point x="985" y="656" type="curve" smooth="yes"/>
			<point x="985" y="709"/>
			<point x="943" y="761"/>
			<point x="880" y="761" type="curve" smooth="yes"/>
			<point x="814" y="761"/>
			<point x="785" y="725"/>
			<point x="785" y="676" type="curve" smooth="yes"/>
			<point x="785" y="661"/>
			<point x="790" y="640"/>
			<point x="800" y="625" type="curve"/>
			<point x="857" y="609" type="line" smooth="yes"/>
			<point x="882" y="602"/>
			<point x="888" y="591"/>
			<point x="888" y="571" type="curve" smooth="yes"/>
			<point x="888" y="543"/>
			<point x="857" y="493"/>
			<point x="758" y="459" type="curve"/>
			<point x="740" y="643"/>
			<point x="623" y="745"/>
			<point x="428" y="745" type="curve" smooth="yes"/>
			<point x="203" y="745"/>
			<point x="49" y="594"/>
			<point x="45" y="339" type="curve" smooth="yes"/>
			<point x="42" y="125"/>
			<point x="142" y="-14"/>
		</contour>
		<contour>
			<point x="391" y="4" type="curve" smooth="yes"/>
			<point x="308" y="4"/>
			<point x="275" y="145"/>
			<point x="280" y="372" type="curve" smooth="yes"/>
			<point x="285" y="610"/>
			<point x="305" y="729"/>
			<point x="409" y="729" type="curve" smooth="yes"/>
			<point x="500" y="729"/>
			<point x="531" y="603"/>
			<point x="525" y="378" type="curve" smooth="yes"/>
			<point x="518" y="127"/>
			<point x="499" y="4"/>
		</contour>
	</outline>
</glyph>
<glyph name="Uhorn" format="2">
	<unicode hex="01AF"/>
	<advance width="999"/>
	<outline>
		<contour>
			<point x="243" y="-14" type="curve" smooth="yes"/>
			<point x="431" y="-14"/>
			<point x="471" y="157"/>
			<point x="514" y="403" type="curve"/>
			<point x="519" y="403" type="line"/>
			<point x="490" y="12" type="line"/>
			<point x="497" y="0" type="line"/>
			<point x="787" y="0" type="line"/>
			<point x="789" y="18" type="line"/>
			<point x="703" y="28" type="line"/>
			<point x="728" y="424" type="line"/>
			<point x="937" y="462"/>
			<point x="1013" y="550"/>
			<point x="1013" y="656" type="curve" smooth="yes"/>
			<point x="1013" y="709"/>
			<point x="971" y="761"/>
			<point x="908" y="761" type="curve" smooth="yes"/>
			<point x="842" y="761"/>
			<point x="813" y="725"/>
			<point x="813" y="676" type="curve" smooth="yes"/>
			<point x="813" y="661"/>
			<point x="818" y="640"/>
			<point x="828" y="625" type="curve"/>
			<point x="885" y="609" type="line" smooth="yes"/>
			<point x="910" y="602"/>
			<point x="916" y="591"/>
			<point x="916" y="571" type="curve" smooth="yes"/>
			<point x="916" y="540"/>
			<point x="877" y="477"/>
			<point x="730" y="445" type="curve"/>
			<point x="748" y="730" type="line"/>
			<point x="458" y="730" type="line"/>
			<point x="454" y="712" type="line"/>
			<point x="529" y="700" type="line"/>
			<point x="514" y="558" type="line" smooth="yes"/>
			<point x="493" y="356"/>
			<point x="466" y="229"/>
			<point x="435" y="153" type="curve" smooth="yes"/>
			<point x="407" y="87"/>
			<point x="376" y="61"/>
			<point x="342" y="61" type="curve" smooth="yes"/>
			<point x="301" y="61"/>
			<point x="288" y="84"/>
			<point x="295" y="202" type="curve" smooth="yes"/>
			<point x="322" y="697" type="line"/>
			<point x="394" y="712" type="line"/>
			<point x="397" y="730" type="line"/>
			<point x="35" y="730" type="line"/>
			<point x="31" y="712" type="line"/>
			<point x="105" y="697" type="line"/>
			<point x="82" y="232" type="line" smooth="yes"/>
			<point x="73" y="57"/>
			<point x="125" y="-14"/>
		</contour>
	</outline>
	<anchor name="bottom" x="392" y="-30"/>
	<anchor name="top" x="427" y="730"/>
</glyph>
<glyph name="Oogonek" format="2">
	<unicode hex="01EA"/>
	<advance width="796"/>
	<outline>
		<contour>
			<point x="384" y="-249" type="curve" smooth="yes"/>
			<point x="443" y="-249"/>
			<point x="504" y="-217"/>
			<point x="535" y="-135" type="curve"/>
			<point x="525" y="-130" type="line"/>
			<point x="505" y="-155"/>
			<point x="483" y="-163"/>
			<point x="464" y="-163" type="curve" smooth="yes"/>
			<point x="445" y="-163"/>
			<point x="429" y="-151"/>
			<point x="429" y="-124" type="curve" smooth="yes"/>
			<point x="429" y="-95"/>
			<point x="442" y="-62"/>
			<point x="506" y="7" type="curve"/>
			<point x="661" y="60"/>
			<point x="761" y="206"/>
			<point x="761" y="407" type="curve" smooth="yes"/>
			<point x="761" y="624"/>
			<point x="641" y="745"/>
			<point x="428" y="745" type="curve" smooth="yes"/>
			<point x="203" y="745"/>
			<point x="49" y="594"/>
			<point x="45" y="339" type="curve" smooth="yes"/>
			<point x="42" y="125"/>
			<point x="142" y="-14"/>
			<point x="373" y="-14" type="curve" smooth="yes"/>
			<point x="399" y="-14"/>
			<point x="424" y="-12"/>
			<point x="447" y="-8" type="curve"/>
			<point x="311" y="-76"/>
			<point x="284" y="-126"/>
			<point x="284" y="-168" type="curve" smooth="yes"/>
			<point x="284" y="-224"/>
			<point x="322" y="-249"/>
		</contour>
		<contour>
			<point x="391" y="4" type="curve" smooth="yes"/>
			<point x="308" y="4"/>
			<point x="275" y="145"/>
			<point x="280" y="372" type="curve" smooth="yes"/>
			<point x="285" y="610"/>
			<point x="305" y="729"/>
			<point x="409" y="729" type="curve" smooth="yes"/>
			<point x="500" y="729"/>
			<point x="531" y="603"/>
			<point x="525" y="378" type="curve" smooth="yes"/>
			<point x="518" y="127"/>
			<point x="499" y="4"/>
		</contour>
	</outline>
</glyph>
<glyph name="jdotless" format="2">
	<unicode hex="0237"/>
	<advance width="363"/>
	<outline>
		<contour>
			<point x="294" y="170" type="curve" smooth="yes"/>
			<point x="308" y="412" type="line" smooth="yes"/>
			<point x="312" y="483"/>
			<point x="264" y="537"/>
			<point x="172" y="537" type="curve" smooth="yes"/>
			<point x="101" y="537"/>
			<point x="27" y="511"/>
			<point x="-2" y="497" type="curve"/>
			<point x="4" y="478" type="line"/>
			<point x="16" y="482"/>
			<point x="49" y="494"/>
			<point x="70" y="494" type="curve" smooth="yes"/>
			<point x="88" y="494"/>
			<point x="95" y="484"/>
			<point x="94" y="457" type="curve" smooth="yes"/>
			<point x="75" y="14" type="line" smooth="yes"/>
			<point x="73" y="-30"/>
			<point x="72" y="-73"/>
			<point x="68" y="-109" type="curve" smooth="yes"/>
			<point x="64" y="-145"/>
			<point x="45" y="-146"/>
			<point x="22" y="-126" type="curve" smooth="yes"/>
			<point x="-34" y="-77" type="line"/>
			<point x="-69" y="-105"/>
			<point x="-85" y="-127"/>
			<point x="-85" y="-163" type="curve" smooth="yes"/>
			<point x="-85" y="-196"/>
			<point x="-56" y="-229"/>
			<point x="-3" y="-229" type="curve" smooth="yes"/>
			<point x="39" y="-229"/>
			<point x="83" y="-208"/>
			<point x="130" y="-151" type="curve" smooth="yes"/>
			<point x="244" y="-16"/>
			<point x="289" y="87"/>
		</contour>
	</outline>
	<anchor name="top" x="173" y="550"/>
</glyph>
<glyph name="schwa" format="2">
	<unicode hex="0259"/>
	<advance width="599"/>
	<outline>
		<contour>
			<point x="241" y="-14" type="curve" smooth="yes"/>
			<point x="444" y="-14"/>
			<point x="566" y="115"/>
			<point x="566" y="300" type="curve" smooth="yes"/>
			<point x="566" y="450"/>
			<point x="479" y="537"/>
			<point x="305" y="537" type="curve" smooth="yes"/>
			<point x="152" y="537"/>
			<point x="89" y="427"/>
			<point x="75" y="401" type="curve"/>
			<point x="87" y="393" type="line"/>
			<point x="120" y="443"/>
			<point x="172" y="500"/>
			<point x="231" y="500" type="curve" smooth="yes"/>
			<point x="301" y="500"/>
			<point x="335" y="444"/>
			<point x="341" y="284" type="curve"/>
			<point x="254" y="269" type="line" smooth="yes"/>
			<point x="184" y="257"/>
			<point x="41" y="243"/>
			<point x="41" y="123" type="curve" smooth="yes"/>
			<point x="41" y="41"/>
			<point x="98" y="-14"/>
		</contour>
		<contour>
			<point x="260" y="4" type="curve" smooth="yes"/>
			<point x="221" y="4"/>
			<point x="215" y="50"/>
			<point x="215" y="106" type="curve" smooth="yes"/>
			<point x="215" y="208"/>
			<point x="232" y="242"/>
			<point x="294" y="255" type="curve" smooth="yes"/>
			<point x="341" y="265" type="line"/>
			<point x="335" y="109"/>
			<point x="321" y="4"/>
		</contour>
	</outline>
</glyph>
<glyph name="ringhalfright" format="2">
	<unicode hex="02BE"/>
	<advance width="497.5"/>
	<outline>
		<contour>
			<point x="221" y="822" type="curve" smooth="yes"/>
			<point x="195" y="822" type="line"/>
			<point x="195" y="804" type="line"/>
			<point x="204" y="804" type="line" smooth="yes"/>
			<point x="232" y="804"/>
			<point x="252" y="784"/>
			<point x="252" y="704" type="curve" smooth="yes"/>
			<point x="252" y="624"/>
			<point x="228" y="596"/>
			<point x="199" y="596" type="curve" smooth="yes"/>
			<point x="188" y="596" type="line"/>
			<point x="187" y="578" type="line"/>
			<point x="216" y="578" type="line" smooth="yes"/>
			<point x="316" y="578"/>
			<point x="384" y="624"/>
			<point x="384" y="706" type="curve" smooth="yes"/>
			<point x="384" y="775"/>
			<point x="340" y="822"/>
		</contour>
	</outline>
	<anchor name="_top" x="248" y="550"/>
</glyph>
<glyph name="ringhalfleft" format="2">
	<unicode hex="02BF"/>
	<advance width="500"/>
	<outline>
		<contour>
			<point x="311" y="578" type="curve" smooth="yes"/>
			<point x="337" y="578" type="line"/>
			<point x="337" y="596" type="line"/>
			<point x="328" y="596" type="line" smooth="yes"/>
			<point x="300" y="596"/>
			<point x="280" y="616"/>
			<point x="280" y="696" type="curve" smooth="yes"/>
			<point x="280" y="776"/>
			<point x="304" y="804"/>
			<point x="333" y="804" type="curve" smooth="yes"/>
			<point x="344" y="804" type="line"/>
			<point x="345" y="822" type="line"/>
			<point x="316" y="822" type="line" smooth="yes"/>
			<point x="216" y="822"/>
			<point x="148" y="776"/>
			<point x="148" y="694" type="curve" smooth="yes"/>
			<point x="148" y="625"/>
			<point x="192" y="578"/>
		</contour>
	</outline>
	<anchor name="_top" x="276" y="550"/>
</glyph>
<glyph name="caron" format="2">
	<unicode hex="02C7"/>
	<advance width="502.5"/>
	<outline>
		<contour>
			<point x="88" y="805" type="line"/>
			<point x="208" y="604" type="line"/>
			<point x="228" y="595"/>
			<point x="246" y="588"/>
			<point x="267" y="588" type="curve" smooth="yes"/>
			<point x="289" y="588"/>
			<point x="315" y="599"/>
			<point x="333" y="626" type="curve" smooth="yes"/>
			<point x="456" y="805" type="line"/>
			<point x="447" y="814" type="line"/>
			<point x="267" y="718" type="line"/>
			<point x="99" y="816" type="line"/>
		</contour>
	</outline>
	<anchor name="_top" x="266" y="550"/>
</glyph>
<glyph name="verticallinemod" format="2">
	<unicode hex="02C8"/>
	<advance width="485"/>
	<outline>
		<contour>
			<point x="218" y="824" type="line"/>
			<point x="206" y="579" type="line"/>
			<point x="317" y="579" type="line"/>
			<point x="329" y="824" type="line"/>
		</contour>
	</outline>
	<anchor name="_top" x="261" y="550"/>
</glyph>
<glyph name="breve" format="2">
	<unicode hex="02D8"/>
	<advance width="497.5"/>
	<outline>
		<contour>
			<point x="268" y="587" type="curve" smooth="yes"/>
			<point x="387" y="587"/>
			<point x="431" y="687"/>
			<point x="453" y="809" type="curve"/>
			<point x="441" y="812" type="line"/>
			<point x="396" y="736"/>
			<point x="352" y="711"/>
			<point x="272" y="711" type="curve" smooth="yes"/>
			<point x="206" y="711"/>
			<point x="157" y="738"/>
			<point x="116" y="814" type="curve"/>
			<point x="104" y="811" type="line"/>
			<point x="109" y="692"/>
			<point x="149" y="587"/>
		</contour>
	</outline>
	<anchor name="_top" x="266" y="549"/>
</glyph>
<glyph name="dotaccent" format="2">
	<unicode hex="02D9"/>
	<advance width="492.5"/>
	<outline>
		<contour>
			<point x="147" y="701" type="curve" smooth="yes"/>
			<point x="147" y="643"/>
			<point x="194" y="597"/>
			<point x="273" y="597" type="curve" smooth="yes"/>
			<point x="343" y="597"/>
			<point x="394" y="636"/>
			<point x="394" y="698" type="curve" smooth="yes"/>
			<point x="394" y="754"/>
			<point x="340" y="801"/>
			<point x="271" y="801" type="curve" smooth="yes"/>
			<point x="194" y="801"/>
			<point x="147" y="757"/>
		</contour>
	</outline>
	<anchor name="_top" x="266" y="549"/>
</glyph>
<glyph name="ogonek" format="2">
	<unicode hex="02DB"/>
	<advance width="492.5"/>
	<outline>
		<contour>
			<point x="332" y="9" type="curve"/>
			<point x="306" y="9" type="line"/>
			<point x="140" y="-68"/>
			<point x="108" y="-123"/>
			<point x="108" y="-168" type="curve" smooth="yes"/>
			<point x="108" y="-224"/>
			<point x="146" y="-249"/>
			<point x="208" y="-249" type="curve" smooth="yes"/>
			<point x="267" y="-249"/>
			<point x="328" y="-217"/>
			<point x="359" y="-135" type="curve"/>
			<point x="349" y="-130" type="line"/>
			<point x="329" y="-155"/>
			<point x="307" y="-163"/>
			<point x="288" y="-163" type="curve" smooth="yes"/>
			<point x="269" y="-163"/>
			<point x="253" y="-151"/>
			<point x="253" y="-124" type="curve" smooth="yes"/>
			<point x="253" y="-95"/>
			<point x="266" y="-61"/>
		</contour>
	</outline>
	<anchor name="_bottom" x="243" y="-30"/>
</glyph>
<glyph name="hookabovecomb" format="2">
	<unicode hex="0309"/>
	<outline>
		<contour>
			<point x="-35" y="827" type="curve" smooth="yes"/>
			<point x="1" y="827"/>
			<point x="25" y="810"/>
			<point x="25" y="774" type="curve" smooth="yes"/>
			<point x="25" y="712"/>
			<point x="-49" y="694"/>
			<point x="-50" y="630" type="curve" smooth="yes"/>
			<point x="-51" y="583" type="line"/>
			<point x="87" y="583" type="line"/>
			<point x="88" y="610" type="line" smooth="yes"/>
			<point x="90" y="655"/>
			<point x="168" y="667"/>
			<point x="168" y="746" type="curve" smooth="yes"/>
			<point x="168" y="815"/>
			<point x="110" y="853"/>
			<point x="6" y="853" type="curve" smooth="yes"/>
			<point x="-124" y="853"/>
			<point x="-180" y="794"/>
			<point x="-180" y="736" type="curve" smooth="yes"/>
			<point x="-180" y="702"/>
			<point x="-160" y="681"/>
			<point x="-120" y="681" type="curve" smooth="yes"/>
			<point x="-71" y="681"/>
			<point x="-55" y="713"/>
			<point x="-59" y="753" type="curve"/>
			<point x="-78" y="767" type="line" smooth="yes"/>
			<point x="-91" y="776"/>
			<point x="-94" y="782"/>
			<point x="-94" y="790" type="curve" smooth="yes"/>
			<point x="-94" y="815"/>
			<point x="-66" y="827"/>
		</contour>
	</outline>
	<anchor name="_top" x="15" y="550"/>
</glyph>
<glyph name="dblgravecomb" format="2">
	<unicode hex="030F"/>
	<outline>
		<contour>
			<point x="-31" y="688" type="curve" smooth="yes"/>
			<point x="128" y="581" type="line"/>
			<point x="139" y="592" type="line"/>
			<point x="24" y="820" type="line"/>
			<point x="-46" y="829"/>
			<point x="-71" y="794"/>
			<point x="-71" y="754" type="curve" smooth="yes"/>
			<point x="-71" y="724"/>
			<point x="-53" y="703"/>
		</contour>
		<contour>
			<point x="-226" y="683" type="curve" smooth="yes"/>
			<point x="-54" y="580" type="line"/>
			<point x="-43" y="591" type="line"/>
			<point x="-168" y="820" type="line"/>
			<point x="-241" y="824"/>
			<point x="-265" y="792"/>
			<point x="-265" y="749" type="curve" smooth="yes"/>
			<point x="-265" y="719"/>
			<point x="-248" y="696"/>
		</contour>
	</outline>
	<anchor name="_top" x="9" y="550"/>
</glyph>
<glyph name="horncomb" format="2">
	<unicode hex="031B"/>
	<outline>
		<contour>
			<point x="-96" y="370" type="curve"/>
			<point x="-98" y="349" type="line"/>
			<point x="93" y="390"/>
			<point x="170" y="472"/>
			<point x="170" y="578" type="curve" smooth="yes"/>
			<point x="170" y="631"/>
			<point x="128" y="683"/>
			<point x="65" y="683" type="curve" smooth="yes"/>
			<point x="-1" y="683"/>
			<point x="-30" y="647"/>
			<point x="-30" y="598" type="curve" smooth="yes"/>
			<point x="-30" y="583"/>
			<point x="-25" y="562"/>
			<point x="-15" y="547" type="curve"/>
			<point x="42" y="531" type="line" smooth="yes"/>
			<point x="67" y="524"/>
			<point x="73" y="513"/>
			<point x="73" y="493" type="curve" smooth="yes"/>
			<point x="73" y="462"/>
			<point x="34" y="402"/>
		</contour>
	</outline>
</glyph>
<glyph name="ypogegrammeni" format="2">
	<unicode hex="037A"/>
	<advance width="267"/>
	<outline>
		<contour>
			<point x="104" y="-233" type="curve" smooth="yes"/>
			<point x="170" y="-233"/>
			<point x="200" y="-186"/>
			<point x="230" y="-143" type="curve"/>
			<point x="225" y="-137" type="line"/>
			<point x="215" y="-144"/>
			<point x="206" y="-148"/>
			<point x="194" y="-148" type="curve" smooth="yes"/>
			<point x="176" y="-148"/>
			<point x="170" y="-136"/>
			<point x="170" y="-117" type="curve" smooth="yes"/>
			<point x="170" y="-101"/>
			<point x="175" y="-69"/>
			<point x="182" y="-37" type="curve"/>
			<point x="171" y="-32" type="line"/>
			<point x="15" y="-40" type="line"/>
			<point x="10" y="-131" type="line" smooth="yes"/>
			<point x="6" y="-199"/>
			<point x="48" y="-233"/>
		</contour>
	</outline>
	<anchor name="_bottom" x="111" y="-30"/>
</glyph>
<glyph name="Gamma" format="2">
	<unicode hex="0393"/>
	<advance width="615"/>
	<outline>
		<contour>
			<point x="10" y="0" type="line"/>
			<point x="433" y="0" type="line"/>
			<point x="435" y="18" type="line"/>
			<point x="320" y="27" type="line"/>
			<point x="345" y="707" type="line"/>
			<point x="423" y="707" type="line" smooth="yes"/>
			<point x="492" y="707"/>
			<point x="523" y="687"/>
			<point x="550" y="602" type="curve" smooth="yes"/>
			<point x="572" y="532" type="line"/>
			<point x="594" y="533" type="line"/>
			<point x="573" y="730" type="line"/>
			<point x="51" y="730" type="line"/>
			<point x="47" y="712" type="line"/>
			<point x="121" y="697" type="line"/>
			<point x="93" y="27" type="line"/>
			<point x="12" y="18" type="line"/>
		</contour>
	</outline>
</glyph>
<glyph name="Theta" format="2">
	<unicode hex="0398"/>
	<advance width="796"/>
	<outline>
		<contour>
			<point x="373" y="-14" type="curve" smooth="yes"/>
			<point x="600" y="-14"/>
			<point x="761" y="153"/>
			<point x="761" y="407" type="curve" smooth="yes"/>
			<point x="761" y="624"/>
			<point x="641" y="745"/>
			<point x="428" y="745" type="curve" smooth="yes"/>
			<point x="200" y="745"/>
			<point x="45" y="590"/>
			<point x="45" y="330" type="curve" smooth="yes"/>
			<point x="45" y="121"/>
			<point x="145" y="-14"/>
		</contour>
		<contour>
			<point x="391" y="4" type="curve" smooth="yes"/>
			<point x="313" y="4"/>
			<point x="280" y="127"/>
			<point x="280" y="329" type="curve" smooth="yes"/>
			<point x="280" y="549"/>
			<point x="288" y="729"/>
			<point x="409" y="729" type="curve" smooth="yes"/>
			<point x="493" y="729"/>
			<point x="526" y="622"/>
			<point x="526" y="430" type="curve" smooth="yes"/>
			<point x="526" y="198"/>
			<point x="515" y="4"/>
		</contour>
		<contour>
			<point x="310" y="341" type="line"/>
			<point x="492" y="341" type="line"/>
			<point x="498" y="426" type="line"/>
			<point x="316" y="426" type="line"/>
		</contour>
	</outline>
</glyph>
<glyph name="Lambda" format="2">
	<unicode hex="039B"/>
	<advance width="755"/>
	<outline>
		<contour>
			<point x="-4" y="0" type="line"/>
			<point x="197" y="0" type="line"/>
			<point x="200" y="18" type="line"/>
			<point x="100" y="27" type="line"/>
			<point x="302" y="676" type="line"/>
			<point x="306" y="676" type="line"/>
			<point x="431" y="27" type="line"/>
			<point x="345" y="18" type="line"/>
			<point x="343" y="0" type="line"/>
			<point x="739" y="0" type="line"/>
			<point x="741" y="18" type="line"/>
			<point x="658" y="28" type="line"/>
			<point x="495" y="749" type="line"/>
			<point x="293" y="717" type="line"/>
			<point x="72" y="27" type="line"/>
			<point x="-2" y="18" type="line"/>
		</contour>
	</outline>
</glyph>
<glyph name="Xi" format="2">
	<unicode hex="039E"/>
	<advance width="584"/>
	<outline>
		<contour>
			<point x="37" y="0" type="line"/>
			<point x="515" y="0" type="line"/>
			<point x="546" y="185" type="line"/>
			<point x="525" y="186" type="line"/>
			<point x="520" y="171" type="line" smooth="yes"/>
			<point x="506" y="128"/>
			<point x="493" y="129"/>
			<point x="391" y="129" type="curve" smooth="yes"/>
			<point x="179" y="129" type="line" smooth="yes"/>
			<point x="77" y="129"/>
			<point x="65" y="127"/>
			<point x="56" y="171" type="curve" smooth="yes"/>
			<point x="53" y="186" type="line"/>
			<point x="32" y="185" type="line"/>
		</contour>
		<contour>
			<point x="128" y="362" type="line"/>
			<point x="453" y="362" type="line"/>
			<point x="455" y="386" type="line"/>
			<point x="130" y="386" type="line"/>
		</contour>
		<contour>
			<point x="91" y="537" type="line"/>
			<point x="103" y="567" type="line" smooth="yes"/>
			<point x="118" y="605"/>
			<point x="139" y="601"/>
			<point x="207" y="601" type="curve" smooth="yes"/>
			<point x="418" y="601" type="line" smooth="yes"/>
			<point x="486" y="601"/>
			<point x="508" y="605"/>
			<point x="518" y="567" type="curve" smooth="yes"/>
			<point x="526" y="537" type="line"/>
			<point x="547" y="538" type="line"/>
			<point x="527" y="730" type="line"/>
			<point x="114" y="730" type="line"/>
			<point x="70" y="538" type="line"/>
		</contour>
	</outline>
</glyph>
<glyph name="Pi" format="2">
	<unicode hex="03A0"/>
	<advance width="838"/>
	<outline>
		<contour>
			<point x="10" y="0" type="line"/>
			<point x="395" y="0" type="line"/>
			<point x="397" y="18" type="line"/>
			<point x="319" y="28" type="line"/>
			<point x="345" y="706" type="line"/>
			<point x="533" y="706" type="line"/>
			<point x="501" y="27" type="line"/>
			<point x="435" y="18" type="line"/>
			<point x="433" y="0" type="line"/>
			<point x="811" y="0" type="line"/>
			<point x="813" y="18" type="line"/>
			<point x="727" y="28" type="line"/>
			<point x="752" y="700" type="line"/>
			<point x="825" y="712" type="line"/>
			<point x="828" y="730" type="line"/>
			<point x="51" y="730" type="line"/>
			<point x="47" y="712" type="line"/>
			<point x="121" y="697" type="line"/>
			<point x="93" y="27" type="line"/>
			<point x="12" y="18" type="line"/>
		</contour>
	</outline>
</glyph>
<glyph name="Phi" format="2">
	<unicode hex="03A6"/>
	<advance width="987"/>
	<outline>
		<contour>
			<point x="293" y="0" type="line"/>
			<point x="677" y="3" type="line"/>
			<point x="679" y="18" type="line"/>
			<point x="593" y="28" type="line"/>
			<point x="597" y="122" type="line"/>
			<point x="853" y="135"/>
			<point x="950" y="238"/>
			<point x="950" y="364" type="curve" smooth="yes"/>
			<point x="950" y="501"/>
			<point x="856" y="574"/>
			<point x="614" y="599" type="curve"/>
			<point x="618" y="700" type="line"/>
			<point x="691" y="712" type="line"/>
			<point x="694" y="730" type="line"/>
			<point x="334" y="730" type="line"/>
			<point x="330" y="712" type="line"/>
			<point x="404" y="697" type="line"/>
			<point x="401" y="599" type="line"/>
			<point x="143" y="587"/>
			<point x="45" y="483"/>
			<point x="45" y="357" type="curve" smooth="yes"/>
			<point x="45" y="220"/>
			<point x="139" y="147"/>
			<point x="380" y="122" type="curve"/>
			<point x="376" y="27" type="line"/>
			<point x="295" y="18" type="line"/>
		</contour>
		<contour>
			<point x="381" y="139" type="line"/>
			<point x="307" y="151"/>
			<point x="271" y="221"/>
			<point x="271" y="336" type="curve" smooth="yes"/>
			<point x="271" y="488"/>
			<point x="322" y="581"/>
			<point x="399" y="587" type="curve"/>
		</contour>
		<contour>
			<point x="597" y="134" type="curve"/>
			<point x="614" y="582" type="line"/>
			<point x="688" y="570"/>
			<point x="724" y="500"/>
			<point x="724" y="385" type="curve" smooth="yes"/>
			<point x="724" y="234"/>
			<point x="673" y="141"/>
		</contour>
	</outline>
</glyph>
<glyph name="Omega" format="2">
	<unicode hex="03A9"/>
	<advance width="794"/>
	<outline>
		<contour>
			<point x="55" y="0" type="line"/>
			<point x="353" y="0" type="line"/>
			<point x="359" y="164" type="line"/>
			<point x="317" y="189"/>
			<point x="279" y="209"/>
			<point x="279" y="379" type="curve" smooth="yes"/>
			<point x="279" y="574"/>
			<point x="299" y="729"/>
			<point x="425" y="729" type="curve" smooth="yes"/>
			<point x="524" y="729"/>
			<point x="551" y="646"/>
			<point x="551" y="487" type="curve" smooth="yes"/>
			<point x="551" y="353"/>
			<point x="556" y="224"/>
			<point x="452" y="164" type="curve"/>
			<point x="447" y="0" type="line"/>
			<point x="730" y="0" type="line"/>
			<point x="757" y="209" type="line"/>
			<point x="735" y="209" type="line"/>
			<point x="727" y="186" type="line" smooth="yes"/>
			<point x="707" y="124"/>
			<point x="697" y="113"/>
			<point x="644" y="113" type="curve" smooth="yes"/>
			<point x="471" y="113" type="line"/>
			<point x="472" y="143" type="line"/>
			<point x="598" y="156"/>
			<point x="759" y="223"/>
			<point x="759" y="442" type="curve" smooth="yes"/>
			<point x="759" y="633"/>
			<point x="629" y="745"/>
			<point x="426" y="745" type="curve" smooth="yes"/>
			<point x="210" y="742"/>
			<point x="71" y="623"/>
			<point x="71" y="431" type="curve" smooth="yes"/>
			<point x="71" y="221"/>
			<point x="215" y="156"/>
			<point x="338" y="143" type="curve"/>
			<point x="337" y="113" type="line"/>
			<point x="143" y="113" type="line" smooth="yes"/>
			<point x="90" y="113"/>
			<point x="77" y="124"/>
			<point x="61" y="186" type="curve" smooth="yes"/>
			<point x="55" y="209" type="line"/>
			<point x="33" y="209" type="line"/>
		</contour>
	</outline>
	<anchor name="bottom" x="411" y="-45"/>
	<anchor name="side" x="813" y="217"/>
	<anchor name="topleft" x="51" y="730"/>
</glyph>
<glyph name="alpha" format="2">
	<unicode hex="03B1"/>
	<advance width="749"/>
	<outline>
		<contour>
			<point x="244" y="-14" type="curve" smooth="yes"/>
			<point x="336" y="-14"/>
			<point x="403" y="30"/>
			<point x="427" y="141" type="curve"/>
			<point x="428" y="141" type="line"/>
			<point x="428" y="34"/>
			<point x="483" y="-14"/>
			<point x="560" y="-14" type="curve" smooth="yes"/>
			<point x="627" y="-14"/>
			<point x="709" y="34"/>
			<point x="737" y="65" type="curve"/>
			<point x="725" y="79" type="line"/>
			<point x="701" y="58"/>
			<point x="673" y="46"/>
			<point x="658" y="46" type="curve" smooth="yes"/>
			<point x="621" y="46"/>
			<point x="608" y="92"/>
			<point x="580" y="230" type="curve" smooth="yes"/>
			<point x="572" y="269" type="line"/>
			<point x="610" y="352"/>
			<point x="638" y="412"/>
			<point x="694" y="533" type="curve"/>
			<point x="682" y="540" type="line"/>
			<point x="500" y="527" type="line"/>
			<point x="487" y="473"/>
			<point x="477" y="436"/>
			<point x="455" y="366" type="curve"/>
			<point x="454" y="366" type="line"/>
			<point x="423" y="525"/>
			<point x="365" y="542"/>
			<point x="300" y="542" type="curve" smooth="yes"/>
			<point x="118" y="542"/>
			<point x="39" y="388"/>
			<point x="39" y="233" type="curve" smooth="yes"/>
			<point x="39" y="101"/>
			<point x="103" y="-14"/>
		</contour>
		<contour>
			<point x="309" y="28" type="curve" smooth="yes"/>
			<point x="268" y="28"/>
			<point x="253" y="91"/>
			<point x="253" y="200" type="curve" smooth="yes"/>
			<point x="253" y="346"/>
			<point x="264" y="523"/>
			<point x="330" y="523" type="curve" smooth="yes"/>
			<point x="375" y="523"/>
			<point x="410" y="462"/>
			<point x="431" y="307" type="curve" smooth="yes"/>
			<point x="435" y="278" type="line"/>
			<point x="405" y="122"/>
			<point x="368" y="28"/>
		</contour>
	</outline>
	<anchor name="bottom" x="254" y="-30"/>
	<anchor name="top" x="334" y="554"/>
</glyph>
<glyph name="beta" format="2">
	<unicode hex="03B2"/>
	<advance width="642"/>
	<outline>
		<contour>
			<point x="315" y="-14" type="curve" smooth="yes"/>
			<point x="507" y="-14"/>
			<point x="595" y="85"/>
			<point x="599" y="207" type="curve" smooth="yes"/>
			<point x="602" y="295"/>
			<point x="553" y="373"/>
			<point x="445" y="396" type="curve"/>
			<point x="586" y="468"/>
			<point x="620" y="550"/>
			<point x="622" y="619" type="curve" smooth="yes"/>
			<point x="626" y="721"/>
			<point x="552" y="782"/>
			<point x="421" y="782" type="curve" smooth="yes"/>
			<point x="190" y="782"/>
			<point x="46" y="616"/>
			<point x="36" y="319" type="curve" smooth="yes"/>
			<point x="30" y="148"/>
			<point x="71" y="-14"/>
		</contour>
		<contour>
			<point x="322" y="8" type="curve" smooth="yes"/>
			<point x="267" y="8"/>
			<point x="249" y="138"/>
			<point x="256" y="337" type="curve"/>
			<point x="295" y="342"/>
			<point x="315" y="349"/>
			<point x="336" y="361" type="curve"/>
			<point x="366" y="342"/>
			<point x="381" y="278"/>
			<point x="378" y="182" type="curve" smooth="yes"/>
			<point x="373" y="49"/>
			<point x="357" y="8"/>
		</contour>
		<contour>
			<point x="258" y="361" type="curve"/>
			<point x="286" y="654"/>
			<point x="328" y="764"/>
			<point x="380" y="764" type="curve" smooth="yes"/>
			<point x="412" y="764"/>
			<point x="420" y="735"/>
			<point x="419" y="657" type="curve" smooth="yes"/>
			<point x="416" y="564"/>
			<point x="388" y="405"/>
		</contour>
	</outline>
</glyph>
<glyph name="delta" format="2">
	<unicode hex="03B4"/>
	<advance width="656"/>
	<outline>
		<contour>
			<point x="308" y="-14" type="curve" smooth="yes"/>
			<point x="490" y="-14"/>
			<point x="601" y="103"/>
			<point x="601" y="259" type="curve" smooth="yes"/>
			<point x="601" y="329"/>
			<point x="569" y="449"/>
			<point x="433" y="566" type="curve" smooth="yes"/>
			<point x="343" y="644"/>
			<point x="331" y="661"/>
			<point x="331" y="703" type="curve" smooth="yes"/>
			<point x="331" y="743"/>
			<point x="359" y="767"/>
			<point x="411" y="767" type="curve" smooth="yes"/>
			<point x="450" y="767"/>
			<point x="498" y="758"/>
			<point x="498" y="714" type="curve" smooth="yes"/>
			<point x="498" y="694"/>
			<point x="490" y="675"/>
			<point x="466" y="612" type="curve"/>
			<point x="480" y="599"/>
			<point x="519" y="569"/>
			<point x="559" y="569" type="curve" smooth="yes"/>
			<point x="615" y="569"/>
			<point x="640" y="608"/>
			<point x="640" y="646" type="curve" smooth="yes"/>
			<point x="640" y="737"/>
			<point x="522" y="782"/>
			<point x="411" y="782" type="curve" smooth="yes"/>
			<point x="215" y="782"/>
			<point x="129" y="714"/>
			<point x="129" y="620" type="curve" smooth="yes"/>
			<point x="129" y="568"/>
			<point x="164" y="515"/>
			<point x="272" y="434" type="curve"/>
			<point x="106" y="434"/>
			<point x="23" y="336"/>
			<point x="23" y="215" type="curve" smooth="yes"/>
			<point x="23" y="71"/>
			<point x="125" y="-14"/>
		</contour>
		<contour>
			<point x="298" y="8" type="curve" smooth="yes"/>
			<point x="257" y="8"/>
			<point x="232" y="64"/>
			<point x="232" y="173" type="curve" smooth="yes"/>
			<point x="232" y="248"/>
			<point x="244" y="383"/>
			<point x="289" y="425" type="curve"/>
			<point x="337" y="388"/>
			<point x="363" y="312"/>
			<point x="359" y="192" type="curve" smooth="yes"/>
			<point x="355" y="81"/>
			<point x="348" y="8"/>
		</contour>
	</outline>
</glyph>
<glyph name="zeta" format="2">
	<unicode hex="03B6"/>
	<advance width="532"/>
	<outline>
		<contour>
			<point x="297" y="-229" type="line"/>
			<point x="413" y="-163"/>
			<point x="506" y="-83"/>
			<point x="506" y="17" type="curve" smooth="yes"/>
			<point x="506" y="103"/>
			<point x="438" y="142"/>
			<point x="349" y="183" type="curve" smooth="yes"/>
			<point x="256" y="226"/>
			<point x="226" y="280"/>
			<point x="226" y="362" type="curve" smooth="yes"/>
			<point x="226" y="423"/>
			<point x="262" y="503"/>
			<point x="294" y="559" type="curve"/>
			<point x="416" y="548"/>
			<point x="562" y="592"/>
			<point x="562" y="680" type="curve" smooth="yes"/>
			<point x="562" y="720"/>
			<point x="537" y="757"/>
			<point x="491" y="770" type="curve"/>
			<point x="454" y="755"/>
			<point x="379" y="688"/>
			<point x="274" y="578" type="curve"/>
			<point x="233" y="587"/>
			<point x="206" y="615"/>
			<point x="206" y="668" type="curve" smooth="yes"/>
			<point x="206" y="699"/>
			<point x="215" y="736"/>
			<point x="234" y="774" type="curve"/>
			<point x="218" y="789"/>
			<point x="195" y="802"/>
			<point x="158" y="802" type="curve" smooth="yes"/>
			<point x="94" y="802"/>
			<point x="53" y="760"/>
			<point x="51" y="704" type="curve" smooth="yes"/>
			<point x="47" y="601"/>
			<point x="146" y="559"/>
			<point x="256" y="559" type="curve"/>
			<point x="200" y="505"/>
			<point x="32" y="356"/>
			<point x="32" y="198" type="curve" smooth="yes"/>
			<point x="32" y="101"/>
			<point x="103" y="33"/>
			<point x="238" y="-28" type="curve" smooth="yes"/>
			<point x="315" y="-63"/>
			<point x="332" y="-75"/>
			<point x="332" y="-119" type="curve" smooth="yes"/>
			<point x="332" y="-161"/>
			<point x="314" y="-187"/>
			<point x="287" y="-219" type="curve"/>
		</contour>
	</outline>
</glyph>
<glyph name="eta" format="2">
	<unicode hex="03B7"/>
	<advance width="635"/>
	<outline>
		<contour>
			<point x="545" y="-230" type="line"/>
			<point x="555" y="-219" type="line"/>
			<point x="577" y="-71"/>
			<point x="615" y="251"/>
			<point x="615" y="377" type="curve" smooth="yes"/>
			<point x="615" y="494"/>
			<point x="575" y="540"/>
			<point x="472" y="540" type="curve" smooth="yes"/>
			<point x="366" y="540"/>
			<point x="318" y="455"/>
			<point x="255" y="231" type="curve"/>
			<point x="253" y="232" type="line"/>
			<point x="261" y="282"/>
			<point x="273" y="360"/>
			<point x="273" y="424" type="curve" smooth="yes"/>
			<point x="273" y="507"/>
			<point x="234" y="537"/>
			<point x="166" y="537" type="curve" smooth="yes"/>
			<point x="115" y="537"/>
			<point x="61" y="522"/>
			<point x="13" y="502" type="curve"/>
			<point x="21" y="481" type="line"/>
			<point x="41" y="490"/>
			<point x="64" y="494"/>
			<point x="79" y="494" type="curve" smooth="yes"/>
			<point x="113" y="494"/>
			<point x="135" y="472"/>
			<point x="145" y="392" type="curve" smooth="yes"/>
			<point x="156" y="302"/>
			<point x="161" y="251"/>
			<point x="161" y="196" type="curve"/>
			<point x="136" y="150"/>
			<point x="121" y="91"/>
			<point x="121" y="17" type="curve"/>
			<point x="128" y="3"/>
			<point x="165" y="-13"/>
			<point x="188" y="-13" type="curve" smooth="yes"/>
			<point x="283" y="-13"/>
			<point x="280" y="98"/>
			<point x="267" y="161" type="curve"/>
			<point x="351" y="403"/>
			<point x="361" y="440"/>
			<point x="388" y="440" type="curve" smooth="yes"/>
			<point x="403" y="440"/>
			<point x="406" y="428"/>
			<point x="406" y="410" type="curve" smooth="yes"/>
			<point x="406" y="372"/>
			<point x="349" y="-72"/>
			<point x="323" y="-195" type="curve"/>
		</contour>
	</outline>
	<anchor name="bottom" x="191" y="-30"/>
	<anchor name="top" x="326" y="554"/>
</glyph>
<glyph name="theta" format="2">
	<unicode hex="03B8"/>
	<advance width="701"/>
	<outline>
		<contour>
			<point x="335" y="-14" type="curve" smooth="yes"/>
			<point x="508" y="-14"/>
			<point x="658" y="88"/>
			<point x="664" y="464" type="curve" smooth="yes"/>
			<point x="669" y="715"/>
			<point x="520" y="782"/>
			<point x="364" y="782" type="curve" smooth="yes"/>
			<point x="238" y="782"/>
			<point x="125" y="729"/>
			<point x="123" y="592" type="curve" smooth="yes"/>
			<point x="121" y="487"/>
			<point x="205" y="404"/>
			<point x="441" y="350" type="curve"/>
			<point x="408" y="86"/>
			<point x="381" y="8"/>
			<point x="335" y="8" type="curve" smooth="yes"/>
			<point x="314" y="8"/>
			<point x="305" y="16"/>
			<point x="305" y="40" type="curve" smooth="yes"/>
			<point x="305" y="75"/>
			<point x="328" y="213"/>
			<point x="329" y="253" type="curve" smooth="yes"/>
			<point x="330" y="305"/>
			<point x="303" y="348"/>
			<point x="208" y="348" type="curve" smooth="yes"/>
			<point x="154" y="348"/>
			<point x="93" y="329"/>
			<point x="46" y="308" type="curve"/>
			<point x="53" y="287" type="line"/>
			<point x="68" y="293"/>
			<point x="85" y="299"/>
			<point x="106" y="299" type="curve" smooth="yes"/>
			<point x="125" y="299"/>
			<point x="131" y="285"/>
			<point x="131" y="271" type="curve" smooth="yes"/>
			<point x="131" y="243"/>
			<point x="112" y="170"/>
			<point x="111" y="122" type="curve" smooth="yes"/>
			<point x="110" y="29"/>
			<point x="184" y="-14"/>
		</contour>
		<contour>
			<point x="443" y="382" type="curve"/>
			<point x="355" y="435"/>
			<point x="331" y="494"/>
			<point x="331" y="620" type="curve" smooth="yes"/>
			<point x="331" y="733"/>
			<point x="360" y="764"/>
			<point x="385" y="764" type="curve" smooth="yes"/>
			<point x="430" y="764"/>
			<point x="444" y="678"/>
			<point x="446" y="574" type="curve" smooth="yes"/>
			<point x="448" y="511"/>
			<point x="445" y="442"/>
		</contour>
	</outline>
</glyph>
<glyph name="kappa" format="2">
	<unicode hex="03BA"/>
	<advance width="702"/>
	<outline>
		<contour>
			<point x="454" y="-14" type="curve" smooth="yes"/>
			<point x="516" y="-14"/>
			<point x="594" y="26"/>
			<point x="633" y="65" type="curve"/>
			<point x="621" y="79" type="line"/>
			<point x="599" y="62"/>
			<point x="578" y="45"/>
			<point x="538" y="45" type="curve" smooth="yes"/>
			<point x="476" y="45"/>
			<point x="459" y="100"/>
			<point x="459" y="159" type="curve" smooth="yes"/>
			<point x="459" y="220"/>
			<point x="469" y="268"/>
			<point x="485" y="302" type="curve"/>
			<point x="537" y="343"/>
			<point x="630" y="359"/>
			<point x="680" y="350" type="curve"/>
			<point x="686" y="364" type="line"/>
			<point x="632" y="537" type="line"/>
			<point x="496" y="530"/>
			<point x="384" y="470"/>
			<point x="283" y="248" type="curve"/>
			<point x="281" y="249" type="line"/>
			<point x="312" y="349"/>
			<point x="332" y="407"/>
			<point x="332" y="449" type="curve" smooth="yes"/>
			<point x="332" y="504"/>
			<point x="298" y="537"/>
			<point x="229" y="537" type="curve" smooth="yes"/>
			<point x="192" y="537"/>
			<point x="119" y="524"/>
			<point x="37" y="494" type="curve"/>
			<point x="45" y="473" type="line"/>
			<point x="74" y="486"/>
			<point x="99" y="489"/>
			<point x="108" y="489" type="curve" smooth="yes"/>
			<point x="128" y="489"/>
			<point x="135" y="477"/>
			<point x="135" y="450" type="curve" smooth="yes"/>
			<point x="135" y="415"/>
			<point x="86" y="176"/>
			<point x="56" y="0" type="curve"/>
			<point x="227" y="0" type="line"/>
			<point x="287" y="146"/>
			<point x="322" y="193"/>
			<point x="411" y="271" type="curve"/>
			<point x="384" y="226"/>
			<point x="344" y="162"/>
			<point x="344" y="94" type="curve" smooth="yes"/>
			<point x="344" y="43"/>
			<point x="367" y="-14"/>
		</contour>
	</outline>
</glyph>
<glyph name="mu" format="2">
	<unicode hex="03BC"/>
	<advance width="660"/>
	<outline>
		<contour>
			<point x="38" y="-231" type="line"/>
			<point x="267" y="-206" type="line"/>
			<point x="253" y="-138"/>
			<point x="243" y="-60"/>
			<point x="241" y="-8" type="curve"/>
			<point x="243" y="-8" type="line"/>
			<point x="249" y="-10"/>
			<point x="270" y="-14"/>
			<point x="283" y="-14" type="curve" smooth="yes"/>
			<point x="331" y="-14"/>
			<point x="347" y="17"/>
			<point x="363" y="73" type="curve"/>
			<point x="364" y="73" type="line"/>
			<point x="371" y="17"/>
			<point x="408" y="-14"/>
			<point x="479" y="-14" type="curve" smooth="yes"/>
			<point x="550" y="-14"/>
			<point x="639" y="54"/>
			<point x="653" y="68" type="curve"/>
			<point x="642" y="84" type="line"/>
			<point x="612" y="61"/>
			<point x="589" y="56"/>
			<point x="573" y="56" type="curve" smooth="yes"/>
			<point x="556" y="56"/>
			<point x="535" y="65"/>
			<point x="535" y="99" type="curve" smooth="yes"/>
			<point x="535" y="149"/>
			<point x="563" y="378"/>
			<point x="589" y="523" type="curve"/>
			<point x="581" y="531" type="line"/>
			<point x="380" y="518" type="line"/>
			<point x="351" y="155" type="line" smooth="yes"/>
			<point x="347" y="99"/>
			<point x="315" y="44"/>
			<point x="282" y="44" type="curve" smooth="yes"/>
			<point x="275" y="44"/>
			<point x="252" y="44"/>
			<point x="236" y="52" type="curve"/>
			<point x="236" y="182"/>
			<point x="255" y="309"/>
			<point x="286" y="523" type="curve"/>
			<point x="278" y="531" type="line"/>
			<point x="59" y="518" type="line"/>
			<point x="45" y="381"/>
			<point x="26" y="148"/>
			<point x="26" y="13" type="curve" smooth="yes"/>
			<point x="26" y="-75"/>
			<point x="22" y="-164"/>
			<point x="30" y="-223" type="curve"/>
		</contour>
	</outline>
</glyph>
<glyph name="xi" format="2">
	<unicode hex="03BE"/>
	<advance width="552"/>
	<outline>
		<contour>
			<point x="296" y="-229" type="line"/>
			<point x="401" y="-169"/>
			<point x="487" y="-116"/>
			<point x="487" y="-9" type="curve" smooth="yes"/>
			<point x="487" y="55"/>
			<point x="450" y="106"/>
			<point x="333" y="158" type="curve" smooth="yes"/>
			<point x="198" y="217"/>
			<point x="186" y="250"/>
			<point x="186" y="284" type="curve" smooth="yes"/>
			<point x="186" y="318"/>
			<point x="207" y="343"/>
			<point x="260" y="354" type="curve"/>
			<point x="297" y="318"/>
			<point x="338" y="289"/>
			<point x="382" y="289" type="curve" smooth="yes"/>
			<point x="424" y="289"/>
			<point x="462" y="323"/>
			<point x="462" y="363" type="curve" smooth="yes"/>
			<point x="462" y="412"/>
			<point x="432" y="437"/>
			<point x="385" y="437" type="curve" smooth="yes"/>
			<point x="347" y="437"/>
			<point x="311" y="422"/>
			<point x="263" y="380" type="curve"/>
			<point x="214" y="388"/>
			<point x="175" y="415"/>
			<point x="175" y="453" type="curve" smooth="yes"/>
			<point x="175" y="512"/>
			<point x="231" y="529"/>
			<point x="485" y="578" type="curve" smooth="yes"/>
			<point x="524" y="585"/>
			<point x="551" y="610"/>
			<point x="551" y="656" type="curve" smooth="yes"/>
			<point x="551" y="704"/>
			<point x="521" y="731"/>
			<point x="475" y="731" type="curve" smooth="yes"/>
			<point x="398" y="731"/>
			<point x="287" y="693"/>
			<point x="199" y="628" type="curve"/>
			<point x="184" y="643"/>
			<point x="174" y="669"/>
			<point x="174" y="704" type="curve" smooth="yes"/>
			<point x="174" y="735"/>
			<point x="180" y="756"/>
			<point x="192" y="775" type="curve"/>
			<point x="175" y="793"/>
			<point x="146" y="802"/>
			<point x="116" y="802" type="curve" smooth="yes"/>
			<point x="55" y="802"/>
			<point x="20" y="769"/>
			<point x="20" y="721" type="curve" smooth="yes"/>
			<point x="20" y="674"/>
			<point x="49" y="629"/>
			<point x="169" y="603" type="curve"/>
			<point x="118" y="564"/>
			<point x="86" y="517"/>
			<point x="86" y="465" type="curve" smooth="yes"/>
			<point x="86" y="424"/>
			<point x="114" y="379"/>
			<point x="196" y="361" type="curve"/>
			<point x="196" y="359" type="line"/>
			<point x="86" y="320"/>
			<point x="30" y="264"/>
			<point x="30" y="175" type="curve" smooth="yes"/>
			<point x="30" y="83"/>
			<point x="96" y="38"/>
			<point x="214" y="-16" type="curve" smooth="yes"/>
			<point x="304" y="-57"/>
			<point x="331" y="-69"/>
			<point x="331" y="-119" type="curve" smooth="yes"/>
			<point x="331" y="-164"/>
			<point x="310" y="-191"/>
			<point x="286" y="-219" type="curve"/>
		</contour>
	</outline>
</glyph>
<glyph name="pi" format="2">
	<unicode hex="03C0"/>
	<advance width="771"/>
	<outline>
		<contour>
			<point x="477" y="-14" type="curve" smooth="yes"/>
			<point x="565" y="-14"/>
			<point x="646" y="40"/>
			<point x="667" y="65" type="curve"/>
			<point x="655" y="79" type="line"/>
			<point x="626" y="52"/>
			<point x="598" y="46"/>
			<point x="588" y="46" type="curve" smooth="yes"/>
			<point x="571" y="46"/>
			<point x="525" y="48"/>
			<point x="525" y="82" type="curve" smooth="yes"/>
			<point x="525" y="146"/>
			<point x="531" y="242"/>
			<point x="535" y="375" type="curve"/>
			<point x="601" y="371"/>
			<point x="651" y="368"/>
			<point x="660" y="368" type="curve" smooth="yes"/>
			<point x="715" y="368"/>
			<point x="758" y="404"/>
			<point x="758" y="459" type="curve" smooth="yes"/>
			<point x="758" y="495"/>
			<point x="736" y="524"/>
			<point x="717" y="537" type="curve"/>
			<point x="588" y="490" type="line"/>
			<point x="129" y="525" type="line" smooth="yes"/>
			<point x="48" y="531"/>
			<point x="-1" y="484"/>
			<point x="-1" y="418" type="curve" smooth="yes"/>
			<point x="-1" y="356"/>
			<point x="56" y="328"/>
			<point x="102" y="332" type="curve"/>
			<point x="110" y="356" type="line" smooth="yes"/>
			<point x="119" y="383"/>
			<point x="125" y="400"/>
			<point x="154" y="398" type="curve" smooth="yes"/>
			<point x="174" y="397"/>
			<point x="194" y="395"/>
			<point x="214" y="394" type="curve"/>
			<point x="52" y="7" type="line"/>
			<point x="58" y="0" type="line"/>
			<point x="273" y="0" type="line"/>
			<point x="306" y="389" type="line"/>
			<point x="344" y="387"/>
			<point x="383" y="384"/>
			<point x="421" y="382" type="curve"/>
			<point x="395" y="279"/>
			<point x="359" y="145"/>
			<point x="359" y="92" type="curve" smooth="yes"/>
			<point x="359" y="37"/>
			<point x="398" y="-14"/>
		</contour>
	</outline>
</glyph>
<glyph name="rho" format="2">
	<unicode hex="03C1"/>
	<advance width="647"/>
	<outline>
		<contour>
			<point x="17" y="-231" type="line"/>
			<point x="258" y="-195" type="line"/>
			<point x="244" y="-139"/>
			<point x="236" y="-45"/>
			<point x="241" y="11" type="curve"/>
			<point x="242" y="11" type="line"/>
			<point x="262" y="-3"/>
			<point x="282" y="-14"/>
			<point x="323" y="-14" type="curve" smooth="yes"/>
			<point x="490" y="-14"/>
			<point x="616" y="100"/>
			<point x="616" y="294" type="curve" smooth="yes"/>
			<point x="616" y="436"/>
			<point x="531" y="537"/>
			<point x="351" y="537" type="curve" smooth="yes"/>
			<point x="60" y="537"/>
			<point x="5" y="279"/>
			<point x="5" y="-38" type="curve" smooth="yes"/>
			<point x="5" y="-129"/>
			<point x="6" y="-176"/>
			<point x="9" y="-223" type="curve"/>
		</contour>
		<contour>
			<point x="296" y="11" type="curve" smooth="yes"/>
			<point x="282" y="11"/>
			<point x="261" y="17"/>
			<point x="241" y="41" type="curve"/>
			<point x="245" y="344"/>
			<point x="278" y="519"/>
			<point x="345" y="519" type="curve" smooth="yes"/>
			<point x="379" y="519"/>
			<point x="393" y="480"/>
			<point x="393" y="380" type="curve" smooth="yes"/>
			<point x="393" y="219"/>
			<point x="379" y="11"/>
		</contour>
	</outline>
	<anchor name="top" x="282" y="554"/>
</glyph>
<glyph name="sigmafinal" format="2">
	<unicode hex="03C2"/>
	<advance width="560"/>
	<outline>
		<contour>
			<point x="298" y="-229" type="line"/>
			<point x="414" y="-163"/>
			<point x="507" y="-83"/>
			<point x="507" y="17" type="curve" smooth="yes"/>
			<point x="507" y="103"/>
			<point x="439" y="142"/>
			<point x="350" y="183" type="curve" smooth="yes"/>
			<point x="271" y="220"/>
			<point x="263" y="262"/>
			<point x="263" y="325" type="curve" smooth="yes"/>
			<point x="263" y="371"/>
			<point x="280" y="519"/>
			<point x="370" y="519" type="curve" smooth="yes"/>
			<point x="400" y="519"/>
			<point x="418" y="502"/>
			<point x="418" y="473" type="curve" smooth="yes"/>
			<point x="418" y="453"/>
			<point x="409" y="427"/>
			<point x="390" y="398" type="curve" smooth="yes"/>
			<point x="369" y="366" type="line"/>
			<point x="382" y="334"/>
			<point x="422" y="304"/>
			<point x="458" y="304" type="curve" smooth="yes"/>
			<point x="503" y="304"/>
			<point x="539" y="336"/>
			<point x="539" y="390" type="curve" smooth="yes"/>
			<point x="539" y="500"/>
			<point x="440" y="537"/>
			<point x="353" y="537" type="curve" smooth="yes"/>
			<point x="112" y="537"/>
			<point x="33" y="367"/>
			<point x="33" y="236" type="curve" smooth="yes"/>
			<point x="33" y="101"/>
			<point x="104" y="33"/>
			<point x="239" y="-28" type="curve" smooth="yes"/>
			<point x="316" y="-63"/>
			<point x="333" y="-75"/>
			<point x="333" y="-119" type="curve" smooth="yes"/>
			<point x="333" y="-161"/>
			<point x="315" y="-187"/>
			<point x="288" y="-219" type="curve"/>
		</contour>
	</outline>
</glyph>
<glyph name="sigma" format="2">
	<unicode hex="03C3"/>
	<advance width="752"/>
	<outline>
		<contour>
			<point x="314" y="-14" type="curve" smooth="yes"/>
			<point x="487" y="-14"/>
			<point x="600" y="100"/>
			<point x="603" y="231" type="curve" smooth="yes"/>
			<point x="604" y="319"/>
			<point x="567" y="362"/>
			<point x="517" y="410" type="curve"/>
			<point x="517" y="412" type="line"/>
			<point x="569" y="376"/>
			<point x="619" y="358"/>
			<point x="639" y="356" type="curve" smooth="yes"/>
			<point x="706" y="349"/>
			<point x="733" y="408"/>
			<point x="733" y="448" type="curve" smooth="yes"/>
			<point x="733" y="474"/>
			<point x="721" y="506"/>
			<point x="688" y="533" type="curve"/>
			<point x="535" y="498" type="line"/>
			<point x="467" y="511"/>
			<point x="404" y="523"/>
			<point x="338" y="523" type="curve" smooth="yes"/>
			<point x="138" y="523"/>
			<point x="34" y="401"/>
			<point x="34" y="244" type="curve" smooth="yes"/>
			<point x="34" y="97"/>
			<point x="120" y="-14"/>
		</contour>
		<contour>
			<point x="314" y="8" type="curve" smooth="yes"/>
			<point x="280" y="8"/>
			<point x="245" y="52"/>
			<point x="250" y="236" type="curve" smooth="yes"/>
			<point x="254" y="392"/>
			<point x="295" y="463"/>
			<point x="342" y="463" type="curve" smooth="yes"/>
			<point x="353" y="463"/>
			<point x="360" y="462"/>
			<point x="366" y="459" type="curve"/>
			<point x="377" y="447"/>
			<point x="397" y="410"/>
			<point x="393" y="264" type="curve" smooth="yes"/>
			<point x="388" y="85"/>
			<point x="362" y="8"/>
		</contour>
	</outline>
</glyph>
<glyph name="phi" format="2">
	<unicode hex="03C6"/>
	<advance width="849"/>
	<outline>
		<contour>
			<point x="276" y="-229" type="line"/>
			<point x="402" y="-210" type="line"/>
			<point x="445" y="-13" type="line"/>
			<point x="731" y="3"/>
			<point x="817" y="172"/>
			<point x="817" y="322" type="curve" smooth="yes"/>
			<point x="817" y="453"/>
			<point x="751" y="537"/>
			<point x="582" y="537" type="curve" smooth="yes"/>
			<point x="458" y="537"/>
			<point x="371" y="491"/>
			<point x="334" y="255" type="curve" smooth="yes"/>
			<point x="296" y="11" type="line"/>
			<point x="234" y="36"/>
			<point x="230" y="130"/>
			<point x="235" y="242" type="curve" smooth="yes"/>
			<point x="241" y="370"/>
			<point x="288" y="464"/>
			<point x="344" y="513" type="curve"/>
			<point x="336" y="528" type="line"/>
			<point x="165" y="512"/>
			<point x="42" y="399"/>
			<point x="33" y="238" type="curve" smooth="yes"/>
			<point x="24" y="72"/>
			<point x="136" y="-1"/>
			<point x="292" y="-13" type="curve"/>
			<point x="259" y="-223" type="line"/>
		</contour>
		<contour>
			<point x="450" y="14" type="curve"/>
			<point x="535" y="442" type="line" smooth="yes"/>
			<point x="548" y="506"/>
			<point x="564" y="519"/>
			<point x="582" y="519" type="curve" smooth="yes"/>
			<point x="604" y="519"/>
			<point x="621" y="501"/>
			<point x="621" y="449" type="curve" smooth="yes"/>
			<point x="621" y="285"/>
			<point x="550" y="53"/>
		</contour>
	</outline>
</glyph>
<glyph name="chi" format="2">
	<unicode hex="03C7"/>
	<advance width="586"/>
	<outline>
		<contour>
			<point x="105" y="-230" type="curve" smooth="yes"/>
			<point x="171" y="-230"/>
			<point x="195" y="-181"/>
			<point x="186" y="-110" type="curve"/>
			<point x="130" y="-90" type="line" smooth="yes"/>
			<point x="101" y="-80"/>
			<point x="87" y="-75"/>
			<point x="87" y="-55" type="curve" smooth="yes"/>
			<point x="87" y="-12"/>
			<point x="169" y="64"/>
			<point x="226" y="111" type="curve"/>
			<point x="294" y="-97" type="line" smooth="yes"/>
			<point x="327" y="-197"/>
			<point x="332" y="-230"/>
			<point x="428" y="-230" type="curve" smooth="yes"/>
			<point x="488" y="-230"/>
			<point x="570" y="-208"/>
			<point x="620" y="-187" type="curve"/>
			<point x="612" y="-166" type="line"/>
			<point x="589" y="-173"/>
			<point x="575" y="-181"/>
			<point x="552" y="-181" type="curve" smooth="yes"/>
			<point x="532" y="-181"/>
			<point x="525" y="-174"/>
			<point x="509" y="-127" type="curve" smooth="yes"/>
			<point x="410" y="170" type="line"/>
			<point x="557" y="290"/>
			<point x="617" y="334"/>
			<point x="617" y="428" type="curve" smooth="yes"/>
			<point x="617" y="498"/>
			<point x="578" y="537"/>
			<point x="523" y="537" type="curve" smooth="yes"/>
			<point x="457" y="537"/>
			<point x="433" y="488"/>
			<point x="442" y="417" type="curve"/>
			<point x="498" y="397" type="line" smooth="yes"/>
			<point x="527" y="387"/>
			<point x="541" y="382"/>
			<point x="541" y="362" type="curve" smooth="yes"/>
			<point x="541" y="319"/>
			<point x="459" y="243"/>
			<point x="402" y="196" type="curve"/>
			<point x="334" y="404" type="line" smooth="yes"/>
			<point x="301" y="504"/>
			<point x="296" y="537"/>
			<point x="200" y="537" type="curve" smooth="yes"/>
			<point x="140" y="537"/>
			<point x="58" y="515"/>
			<point x="8" y="494" type="curve"/>
			<point x="16" y="473" type="line"/>
			<point x="39" y="480"/>
			<point x="53" y="488"/>
			<point x="76" y="488" type="curve" smooth="yes"/>
			<point x="96" y="488"/>
			<point x="103" y="481"/>
			<point x="119" y="434" type="curve" smooth="yes"/>
			<point x="218" y="137" type="line"/>
			<point x="71" y="17"/>
			<point x="11" y="-28"/>
			<point x="11" y="-122" type="curve" smooth="yes"/>
			<point x="11" y="-192"/>
			<point x="50" y="-230"/>
		</contour>
	</outline>
</glyph>
<glyph name="kaiSymbol" format="2">
	<unicode hex="03D7"/>
	<advance width="711"/>
	<outline>
		<contour>
			<point x="389" y="-229" type="curve" smooth="yes"/>
			<point x="586" y="-229"/>
			<point x="681" y="-140"/>
			<point x="681" y="-14" type="curve" smooth="yes"/>
			<point x="681" y="64"/>
			<point x="633" y="134"/>
			<point x="569" y="186" type="curve" smooth="yes"/>
			<point x="518" y="227"/>
			<point x="483" y="250"/>
			<point x="483" y="278" type="curve" smooth="yes"/>
			<point x="483" y="286"/>
			<point x="484" y="296"/>
			<point x="488" y="305" type="curve"/>
			<point x="539" y="337"/>
			<point x="621" y="362"/>
			<point x="680" y="350" type="curve"/>
			<point x="685" y="364" type="line"/>
			<point x="632" y="537" type="line"/>
			<point x="476" y="530"/>
			<point x="377" y="449"/>
			<point x="283" y="248" type="curve"/>
			<point x="281" y="249" type="line"/>
			<point x="313" y="347"/>
			<point x="332" y="406"/>
			<point x="332" y="449" type="curve" smooth="yes"/>
			<point x="332" y="510"/>
			<point x="293" y="537"/>
			<point x="229" y="537" type="curve" smooth="yes"/>
			<point x="183" y="537"/>
			<point x="101" y="517"/>
			<point x="37" y="494" type="curve"/>
			<point x="45" y="473" type="line"/>
			<point x="57" y="479"/>
			<point x="88" y="489"/>
			<point x="108" y="489" type="curve" smooth="yes"/>
			<point x="123" y="489"/>
			<point x="135" y="481"/>
			<point x="135" y="456" type="curve" smooth="yes"/>
			<point x="135" y="408"/>
			<point x="88" y="176"/>
			<point x="56" y="0" type="curve"/>
			<point x="227" y="0" type="line"/>
			<point x="284" y="154"/>
			<point x="339" y="206"/>
			<point x="411" y="271" type="curve"/>
			<point x="387" y="231"/>
			<point x="365" y="182"/>
			<point x="363" y="162" type="curve" smooth="yes"/>
			<point x="360" y="129"/>
			<point x="368" y="98"/>
			<point x="406" y="54" type="curve" smooth="yes"/>
			<point x="438" y="17"/>
			<point x="463" y="-10"/>
			<point x="463" y="-39" type="curve" smooth="yes"/>
			<point x="463" y="-121"/>
			<point x="386" y="-148"/>
			<point x="163" y="-148" type="curve"/>
			<point x="160" y="-170" type="line"/>
			<point x="200" y="-197"/>
			<point x="303" y="-229"/>
		</contour>
	</outline>
</glyph>
<glyph name="KoppaArchaic" format="2">
	<unicode hex="03D8"/>
	<advance width="796"/>
	<outline>
		<contour>
			<point x="327" y="-220" type="line"/>
			<point x="450" y="-208" type="line"/>
			<point x="449" y="-181"/>
			<point x="450" y="-79"/>
			<point x="451" y="-7" type="curve"/>
			<point x="636" y="27"/>
			<point x="761" y="183"/>
			<point x="761" y="407" type="curve" smooth="yes"/>
			<point x="761" y="624"/>
			<point x="641" y="745"/>
			<point x="428" y="745" type="curve" smooth="yes"/>
			<point x="200" y="745"/>
			<point x="45" y="590"/>
			<point x="45" y="329" type="curve" smooth="yes"/>
			<point x="45" y="134"/>
			<point x="133" y="4"/>
			<point x="331" y="-12" type="curve"/>
			<point x="324" y="-82"/>
			<point x="315" y="-160"/>
			<point x="309" y="-209" type="curve"/>
		</contour>
		<contour>
			<point x="455" y="26" type="curve"/>
			<point x="463" y="102"/>
			<point x="472" y="179"/>
			<point x="480" y="255" type="curve"/>
			<point x="462" y="266" type="line"/>
			<point x="339" y="254" type="line"/>
			<point x="339" y="185"/>
			<point x="337" y="128"/>
			<point x="334" y="34" type="curve"/>
			<point x="282" y="102"/>
			<point x="280" y="238"/>
			<point x="280" y="372" type="curve" smooth="yes"/>
			<point x="285" y="610"/>
			<point x="305" y="729"/>
			<point x="409" y="729" type="curve" smooth="yes"/>
			<point x="493" y="729"/>
			<point x="526" y="622"/>
			<point x="526" y="430" type="curve" smooth="yes"/>
			<point x="526" y="259"/>
			<point x="517" y="78"/>
		</contour>
	</outline>
</glyph>
<glyph name="koppaArchaic" format="2">
	<unicode hex="03D9"/>
	<advance width="644"/>
	<outline>
		<contour>
			<point x="262" y="-159" type="line"/>
			<point x="355" y="-148" type="line"/>
			<point x="353" y="-103"/>
			<point x="350" y="-57"/>
			<point x="348" y="-12" type="curve"/>
			<point x="542" y="6"/>
			<point x="610" y="142"/>
			<point x="610" y="283" type="curve" smooth="yes"/>
			<point x="610" y="442"/>
			<point x="524" y="537"/>
			<point x="346" y="537" type="curve" smooth="yes"/>
			<point x="121" y="537"/>
			<point x="34" y="401"/>
			<point x="34" y="241" type="curve" smooth="yes"/>
			<point x="34" y="97"/>
			<point x="108" y="-4"/>
			<point x="276" y="-13" type="curve"/>
			<point x="268" y="-55"/>
			<point x="259" y="-99"/>
			<point x="250" y="-152" type="curve"/>
		</contour>
		<contour>
			<point x="347" y="17" type="curve"/>
			<point x="346" y="54"/>
			<point x="346" y="94"/>
			<point x="347" y="146" type="curve"/>
			<point x="336" y="151" type="line"/>
			<point x="305" y="150" type="line"/>
			<point x="298" y="103"/>
			<point x="291" y="63"/>
			<point x="283" y="25" type="curve"/>
			<point x="264" y="53"/>
			<point x="261" y="118"/>
			<point x="261" y="235" type="curve" smooth="yes"/>
			<point x="261" y="481"/>
			<point x="290" y="519"/>
			<point x="333" y="519" type="curve" smooth="yes"/>
			<point x="387" y="519"/>
			<point x="389" y="451"/>
			<point x="389" y="281" type="curve" smooth="yes"/>
			<point x="389" y="138"/>
			<point x="387" y="45"/>
		</contour>
	</outline>
</glyph>
<glyph name="stigma" format="2">
	<unicode hex="03DB"/>
	<advance width="557"/>
	<outline>
		<contour>
			<point x="299" y="-229" type="line"/>
			<point x="415" y="-163"/>
			<point x="508" y="-83"/>
			<point x="508" y="17" type="curve" smooth="yes"/>
			<point x="508" y="103"/>
			<point x="440" y="141"/>
			<point x="351" y="183" type="curve" smooth="yes"/>
			<point x="292" y="211"/>
			<point x="237" y="233"/>
			<point x="237" y="291" type="curve" smooth="yes"/>
			<point x="237" y="366"/>
			<point x="296" y="393"/>
			<point x="400" y="391" type="curve" smooth="yes"/>
			<point x="488" y="389"/>
			<point x="535" y="425"/>
			<point x="540" y="501" type="curve" smooth="yes"/>
			<point x="543" y="547"/>
			<point x="518" y="595"/>
			<point x="449" y="621" type="curve"/>
			<point x="440" y="616" type="line"/>
			<point x="444" y="609"/>
			<point x="446" y="596"/>
			<point x="446" y="588" type="curve" smooth="yes"/>
			<point x="446" y="543"/>
			<point x="410" y="549"/>
			<point x="344" y="549" type="curve" smooth="yes"/>
			<point x="157" y="549"/>
			<point x="34" y="443"/>
			<point x="34" y="258" type="curve" smooth="yes"/>
			<point x="34" y="101"/>
			<point x="105" y="33"/>
			<point x="240" y="-28" type="curve" smooth="yes"/>
			<point x="317" y="-63"/>
			<point x="334" y="-75"/>
			<point x="334" y="-119" type="curve" smooth="yes"/>
			<point x="334" y="-161"/>
			<point x="316" y="-187"/>
			<point x="289" y="-219" type="curve"/>
		</contour>
	</outline>
</glyph>
<glyph name="digamma" format="2">
	<unicode hex="03DD"/>
	<advance width="355"/>
	<outline>
		<contour>
			<point x="0" y="-1" type="line"/>
			<point x="199" y="0" type="line"/>
			<point x="228" y="498" type="line"/>
			<point x="329" y="498" type="line"/>
			<point x="330" y="523" type="line"/>
			<point x="229" y="523" type="line"/>
			<point x="233" y="601" type="line" smooth="yes"/>
			<point x="238" y="698"/>
			<point x="251" y="768"/>
			<point x="313" y="768" type="curve" smooth="yes"/>
			<point x="369" y="768"/>
			<point x="377" y="721"/>
			<point x="351" y="655" type="curve" smooth="yes"/>
			<point x="334" y="612" type="line"/>
			<point x="356" y="591"/>
			<point x="389" y="569"/>
			<point x="430" y="569" type="curve" smooth="yes"/>
			<point x="483" y="569"/>
			<point x="508" y="606"/>
			<point x="508" y="643" type="curve" smooth="yes"/>
			<point x="508" y="731"/>
			<point x="415" y="782"/>
			<point x="313" y="782" type="curve" smooth="yes"/>
			<point x="94" y="782"/>
			<point x="22" y="653"/>
			<point x="13" y="546" type="curve" smooth="yes"/>
			<point x="11" y="522" type="line"/>
			<point x="-62" y="519" type="line"/>
			<point x="-66" y="498" type="line"/>
			<point x="11" y="498" type="line"/>
			<point x="-10" y="8" type="line"/>
		</contour>
	</outline>
</glyph>
<glyph name="koppa" format="2">
	<unicode hex="03DF"/>
	<advance width="545"/>
	<outline>
		<contour>
			<point x="285" y="-87" type="curve" smooth="yes"/>
			<point x="342" y="-87"/>
			<point x="401" y="-65"/>
			<point x="440" y="-8" type="curve"/>
			<point x="437" y="1" type="line"/>
			<point x="419" y="-5"/>
			<point x="403" y="-8"/>
			<point x="388" y="-8" type="curve" smooth="yes"/>
			<point x="354" y="-8"/>
			<point x="336" y="10"/>
			<point x="336" y="37" type="curve" smooth="yes"/>
			<point x="336" y="65"/>
			<point x="349" y="89"/>
			<point x="380" y="130" type="curve" smooth="yes"/>
			<point x="511" y="306" type="line"/>
			<point x="512" y="321" type="line"/>
			<point x="239" y="320" type="line"/>
			<point x="282" y="363" type="line" smooth="yes"/>
			<point x="344" y="424"/>
			<point x="373" y="457"/>
			<point x="373" y="511" type="curve" smooth="yes"/>
			<point x="373" y="577"/>
			<point x="325" y="611"/>
			<point x="259" y="611" type="curve" smooth="yes"/>
			<point x="202" y="611"/>
			<point x="143" y="589"/>
			<point x="104" y="532" type="curve"/>
			<point x="107" y="523" type="line"/>
			<point x="125" y="529"/>
			<point x="141" y="532"/>
			<point x="156" y="532" type="curve" smooth="yes"/>
			<point x="190" y="532"/>
			<point x="208" y="514"/>
			<point x="208" y="487" type="curve" smooth="yes"/>
			<point x="208" y="459"/>
			<point x="195" y="435"/>
			<point x="164" y="394" type="curve" smooth="yes"/>
			<point x="33" y="218" type="line"/>
			<point x="32" y="203" type="line"/>
			<point x="304" y="203" type="line"/>
			<point x="261" y="161" type="line" smooth="yes"/>
			<point x="189" y="89"/>
			<point x="171" y="59"/>
			<point x="171" y="13" type="curve" smooth="yes"/>
			<point x="171" y="-53"/>
			<point x="219" y="-87"/>
		</contour>
	</outline>
</glyph>
<glyph name="Dje-cy" format="2">
	<unicode hex="0402"/>
	<advance width="856"/>
	<outline>
		<contour>
			<point x="134" y="18" type="line"/>
			<point x="131" y="0" type="line"/>
			<point x="498" y="0" type="line"/>
			<point x="502" y="18" type="line"/>
			<point x="431" y="30" type="line"/>
			<point x="445" y="353" type="line"/>
			<point x="471" y="374"/>
			<point x="496" y="384"/>
			<point x="533" y="384" type="curve" smooth="yes"/>
			<point x="595" y="384"/>
			<point x="631" y="325"/>
			<point x="631" y="226" type="curve" smooth="yes"/>
			<point x="631" y="106"/>
			<point x="604" y="-2"/>
			<point x="533" y="-90" type="curve"/>
			<point x="544" y="-105" type="line"/>
			<point x="699" y="-40"/>
			<point x="845" y="82"/>
			<point x="845" y="252" type="curve" smooth="yes"/>
			<point x="845" y="368"/>
			<point x="756" y="431"/>
			<point x="636" y="431" type="curve" smooth="yes"/>
			<point x="549" y="431"/>
			<point x="488" y="412"/>
			<point x="446" y="383" type="curve"/>
			<point x="457" y="707" type="line"/>
			<point x="536" y="707" type="line" smooth="yes"/>
			<point x="621" y="707"/>
			<point x="651" y="694"/>
			<point x="677" y="590" type="curve" smooth="yes"/>
			<point x="690" y="538" type="line"/>
			<point x="711" y="541" type="line"/>
			<point x="698" y="730" type="line"/>
			<point x="45" y="730" type="line"/>
			<point x="19" y="524" type="line"/>
			<point x="40" y="518" type="line"/>
			<point x="66" y="611" type="line" smooth="yes"/>
			<point x="88" y="691"/>
			<point x="137" y="707"/>
			<point x="204" y="707" type="curve" smooth="yes"/>
			<point x="233" y="707" type="line"/>
			<point x="207" y="30" type="line"/>
		</contour>
	</outline>
</glyph>
<glyph name="E-cy" format="2">
	<unicode hex="0404"/>
	<advance width="716"/>
	<outline>
		<contour>
			<point x="512" y="587" type="curve" smooth="yes"/>
			<point x="485" y="522" type="line"/>
			<point x="522" y="491"/>
			<point x="557" y="477"/>
			<point x="606" y="477" type="curve" smooth="yes"/>
			<point x="664" y="477"/>
			<point x="707" y="519"/>
			<point x="707" y="577" type="curve" smooth="yes"/>
			<point x="707" y="673"/>
			<point x="592" y="745"/>
			<point x="438" y="745" type="curve" smooth="yes"/>
			<point x="192" y="745"/>
			<point x="45" y="582"/>
			<point x="45" y="325" type="curve" smooth="yes"/>
			<point x="45" y="119"/>
			<point x="151" y="-14"/>
			<point x="375" y="-14" type="curve" smooth="yes"/>
			<point x="479" y="-14"/>
			<point x="592" y="14"/>
			<point x="670" y="158" type="curve"/>
			<point x="656" y="167" type="line"/>
			<point x="603" y="73"/>
			<point x="532" y="41"/>
			<point x="459" y="41" type="curve" smooth="yes"/>
			<point x="336" y="41"/>
			<point x="288" y="133"/>
			<point x="281" y="349" type="curve"/>
			<point x="545" y="349" type="line"/>
			<point x="547" y="373" type="line"/>
			<point x="281" y="373" type="line"/>
			<point x="285" y="626"/>
			<point x="332" y="729"/>
			<point x="439" y="729" type="curve" smooth="yes"/>
			<point x="528" y="729"/>
			<point x="547" y="673"/>
		</contour>
	</outline>
	<anchor name="top" x="405" y="730"/>
</glyph>
<glyph name="Tshe-cy" format="2">
	<unicode hex="040B"/>
	<advance width="952"/>
	<outline>
		<contour>
			<point x="456" y="381" type="curve"/>
			<point x="467" y="707" type="line"/>
			<point x="546" y="707" type="line" smooth="yes"/>
			<point x="631" y="707"/>
			<point x="661" y="694"/>
			<point x="687" y="590" type="curve" smooth="yes"/>
			<point x="700" y="538" type="line"/>
			<point x="721" y="541" type="line"/>
			<point x="708" y="730" type="line"/>
			<point x="55" y="730" type="line"/>
			<point x="29" y="524" type="line"/>
			<point x="50" y="518" type="line"/>
			<point x="76" y="611" type="line" smooth="yes"/>
			<point x="98" y="691"/>
			<point x="147" y="707"/>
			<point x="214" y="707" type="curve" smooth="yes"/>
			<point x="243" y="707" type="line"/>
			<point x="217" y="30" type="line"/>
			<point x="144" y="18" type="line"/>
			<point x="141" y="0" type="line"/>
			<point x="508" y="0" type="line"/>
			<point x="512" y="18" type="line"/>
			<point x="441" y="30" type="line"/>
			<point x="455" y="353" type="line"/>
			<point x="481" y="374"/>
			<point x="515" y="389"/>
			<point x="552" y="389" type="curve" smooth="yes"/>
			<point x="611" y="389"/>
			<point x="640" y="348"/>
			<point x="640" y="275" type="curve" smooth="yes"/>
			<point x="640" y="193"/>
			<point x="635" y="121"/>
			<point x="627" y="33" type="curve"/>
			<point x="555" y="18" type="line"/>
			<point x="552" y="0" type="line"/>
			<point x="924" y="0" type="line"/>
			<point x="928" y="18" type="line"/>
			<point x="854" y="33" type="line"/>
			<point x="861" y="109"/>
			<point x="864" y="150"/>
			<point x="864" y="216" type="curve" smooth="yes"/>
			<point x="864" y="368"/>
			<point x="763" y="431"/>
			<point x="630" y="431" type="curve" smooth="yes"/>
			<point x="559" y="431"/>
			<point x="498" y="411"/>
		</contour>
	</outline>
</glyph>
<glyph name="Ii-cy" format="2">
	<unicode hex="0418"/>
	<advance width="848"/>
	<outline>
		<contour>
			<point x="534" y="560" type="line"/>
			<point x="511" y="27" type="line"/>
			<point x="445" y="18" type="line"/>
			<point x="443" y="0" type="line"/>
			<point x="821" y="0" type="line"/>
			<point x="823" y="18" type="line"/>
			<point x="737" y="28" type="line"/>
			<point x="762" y="700" type="line"/>
			<point x="835" y="712" type="line"/>
			<point x="838" y="730" type="line"/>
			<point x="471" y="730" type="line"/>
			<point x="467" y="712" type="line"/>
			<point x="538" y="700" type="line"/>
			<point x="534" y="611" type="line"/>
			<point x="325" y="184" type="line"/>
			<point x="348" y="697" type="line"/>
			<point x="420" y="712" type="line"/>
			<point x="423" y="730" type="line"/>
			<point x="51" y="730" type="line"/>
			<point x="47" y="712" type="line"/>
			<point x="121" y="697" type="line"/>
			<point x="93" y="27" type="line"/>
			<point x="12" y="18" type="line"/>
			<point x="10" y="0" type="line"/>
			<point x="395" y="0" type="line"/>
			<point x="397" y="18" type="line"/>
			<point x="319" y="28" type="line"/>
			<point x="323" y="130" type="line"/>
		</contour>
	</outline>
	<anchor name="top" x="436" y="730"/>
	<guideline x="308" y="180" angle="0"/>
	<guideline x="553" y="561" angle="0"/>
</glyph>
<glyph name="Ka-cy" format="2">
	<unicode hex="041A"/>
	<advance width="837"/>
	<outline>
		<contour>
			<point x="384" y="393" type="curve"/>
			<point x="383" y="368" type="line"/>
			<point x="409" y="365"/>
			<point x="419" y="351"/>
			<point x="431" y="322" type="curve" smooth="yes"/>
			<point x="442" y="294"/>
			<point x="457" y="247"/>
			<point x="480" y="165" type="curve" smooth="yes"/>
			<point x="523" y="13"/>
			<point x="575" y="-14"/>
			<point x="662" y="-14" type="curve" smooth="yes"/>
			<point x="738" y="-14"/>
			<point x="812" y="22"/>
			<point x="856" y="57" type="curve"/>
			<point x="847" y="71" type="line"/>
			<point x="821" y="56"/>
			<point x="814" y="53"/>
			<point x="792" y="53" type="curve" smooth="yes"/>
			<point x="771" y="53"/>
			<point x="756" y="74"/>
			<point x="706" y="188" type="curve" smooth="yes"/>
			<point x="691" y="223"/>
			<point x="672" y="254"/>
			<point x="649" y="282" type="curve" smooth="yes"/>
			<point x="600" y="342"/>
			<point x="531" y="381"/>
			<point x="438" y="385" type="curve"/>
			<point x="439" y="389" type="line"/>
			<point x="490" y="411"/>
			<point x="517" y="452"/>
			<point x="551" y="523" type="curve" smooth="yes"/>
			<point x="579" y="582"/>
			<point x="596" y="616"/>
			<point x="616" y="616" type="curve" smooth="yes"/>
			<point x="629" y="616"/>
			<point x="651" y="589"/>
			<point x="674" y="553" type="curve" smooth="yes"/>
			<point x="705" y="505" type="line"/>
			<point x="769" y="535"/>
			<point x="808" y="586"/>
			<point x="808" y="645" type="curve" smooth="yes"/>
			<point x="808" y="704"/>
			<point x="764" y="740"/>
			<point x="714" y="740" type="curve" smooth="yes"/>
			<point x="627" y="740"/>
			<point x="583" y="651"/>
			<point x="529" y="539" type="curve" smooth="yes"/>
			<point x="482" y="442"/>
			<point x="454" y="414"/>
		</contour>
		<contour>
			<point x="151" y="697" type="line"/>
			<point x="123" y="27" type="line"/>
			<point x="42" y="18" type="line"/>
			<point x="40" y="0" type="line"/>
			<point x="425" y="0" type="line"/>
			<point x="427" y="18" type="line"/>
			<point x="349" y="28" type="line"/>
			<point x="378" y="697" type="line"/>
			<point x="450" y="712" type="line"/>
			<point x="453" y="730" type="line"/>
			<point x="81" y="730" type="line"/>
			<point x="77" y="712" type="line"/>
		</contour>
	</outline>
	<anchor name="top" x="475" y="730"/>
</glyph>
<glyph name="El-cy" format="2">
	<unicode hex="041B"/>
	<advance width="855"/>
	<outline>
		<contour>
			<point x="546" y="706" type="line"/>
			<point x="518" y="27" type="line"/>
			<point x="452" y="18" type="line"/>
			<point x="450" y="0" type="line"/>
			<point x="828" y="0" type="line"/>
			<point x="830" y="18" type="line"/>
			<point x="744" y="28" type="line"/>
			<point x="769" y="700" type="line"/>
			<point x="842" y="712" type="line"/>
			<point x="845" y="730" type="line"/>
			<point x="256" y="730" type="line"/>
			<point x="252" y="712" type="line"/>
			<point x="328" y="697" type="line"/>
			<point x="328" y="410"/>
			<point x="285" y="148"/>
			<point x="206" y="95" type="curve"/>
			<point x="122" y="224" type="line"/>
			<point x="33" y="224"/>
			<point x="-5" y="162"/>
			<point x="-5" y="108" type="curve" smooth="yes"/>
			<point x="-5" y="41"/>
			<point x="46" y="-9"/>
			<point x="116" y="-9" type="curve" smooth="yes"/>
			<point x="352" y="-9"/>
			<point x="359" y="567"/>
			<point x="359" y="706" type="curve"/>
		</contour>
	</outline>
</glyph>
<glyph name="Sha-cy" format="2">
	<unicode hex="0428"/>
	<advance width="1247"/>
	<outline>
		<contour>
			<point x="10" y="0" type="line"/>
			<point x="1220" y="0" type="line"/>
			<point x="1222" y="18" type="line"/>
			<point x="1136" y="28" type="line"/>
			<point x="1161" y="700" type="line"/>
			<point x="1234" y="712" type="line"/>
			<point x="1237" y="730" type="line"/>
			<point x="870" y="730" type="line"/>
			<point x="866" y="712" type="line"/>
			<point x="937" y="700" type="line"/>
			<point x="907" y="24" type="line"/>
			<point x="727" y="24" type="line"/>
			<point x="752" y="700" type="line"/>
			<point x="825" y="712" type="line"/>
			<point x="828" y="730" type="line"/>
			<point x="461" y="730" type="line"/>
			<point x="457" y="712" type="line"/>
			<point x="528" y="700" type="line"/>
			<point x="498" y="24" type="line"/>
			<point x="318" y="24" type="line"/>
			<point x="348" y="697" type="line"/>
			<point x="420" y="712" type="line"/>
			<point x="423" y="730" type="line"/>
			<point x="51" y="730" type="line"/>
			<point x="47" y="712" type="line"/>
			<point x="121" y="697" type="line"/>
			<point x="93" y="27" type="line"/>
			<point x="12" y="18" type="line"/>
		</contour>
	</outline>
</glyph>
<glyph name="Shcha-cy" format="2">
	<unicode hex="0429"/>
	<advance width="1282"/>
	<outline>
		<contour>
			<point x="318" y="24" type="line"/>
			<point x="348" y="697" type="line"/>
			<point x="420" y="712" type="line"/>
			<point x="423" y="730" type="line"/>
			<point x="51" y="730" type="line"/>
			<point x="47" y="712" type="line"/>
			<point x="121" y="697" type="line"/>
			<point x="93" y="27" type="line"/>
			<point x="12" y="18" type="line"/>
			<point x="10" y="0" type="line"/>
			<point x="1102" y="0" type="line" smooth="yes"/>
			<point x="1175" y="0"/>
			<point x="1216" y="-22"/>
			<point x="1219" y="-111" type="curve" smooth="yes"/>
			<point x="1221" y="-164" type="line"/>
			<point x="1242" y="-166" type="line"/>
			<point x="1259" y="23" type="line"/>
			<point x="1136" y="23" type="line"/>
			<point x="1161" y="700" type="line"/>
			<point x="1234" y="712" type="line"/>
			<point x="1237" y="730" type="line"/>
			<point x="870" y="730" type="line"/>
			<point x="866" y="712" type="line"/>
			<point x="937" y="700" type="line"/>
			<point x="907" y="24" type="line"/>
			<point x="727" y="24" type="line"/>
			<point x="752" y="700" type="line"/>
			<point x="825" y="712" type="line"/>
			<point x="828" y="730" type="line"/>
			<point x="461" y="730" type="line"/>
			<point x="457" y="712" type="line"/>
			<point x="528" y="700" type="line"/>
			<point x="498" y="24" type="line"/>
		</contour>
	</outline>
</glyph>
<glyph name="Iu-cy" format="2">
	<unicode hex="042E"/>
	<advance width="1161"/>
	<outline>
		<contour>
			<point x="333" y="362" type="line"/>
			<point x="420" y="362" type="line"/>
			<point x="420" y="118"/>
			<point x="536" y="-14"/>
			<point x="743" y="-14" type="curve" smooth="yes"/>
			<point x="970" y="-14"/>
			<point x="1126" y="153"/>
			<point x="1126" y="407" type="curve" smooth="yes"/>
			<point x="1126" y="614"/>
			<point x="995" y="745"/>
			<point x="798" y="745" type="curve" smooth="yes"/>
			<point x="588" y="745"/>
			<point x="440" y="604"/>
			<point x="422" y="386" type="curve"/>
			<point x="335" y="386" type="line"/>
			<point x="348" y="697" type="line"/>
			<point x="420" y="712" type="line"/>
			<point x="423" y="730" type="line"/>
			<point x="51" y="730" type="line"/>
			<point x="47" y="712" type="line"/>
			<point x="121" y="697" type="line"/>
			<point x="93" y="27" type="line"/>
			<point x="12" y="18" type="line"/>
			<point x="10" y="0" type="line"/>
			<point x="395" y="0" type="line"/>
			<point x="397" y="18" type="line"/>
			<point x="319" y="28" type="line"/>
		</contour>
		<contour>
			<point x="654" y="323" type="curve" smooth="yes"/>
			<point x="654" y="538"/>
			<point x="673" y="729"/>
			<point x="779" y="729" type="curve" smooth="yes"/>
			<point x="852" y="729"/>
			<point x="891" y="614"/>
			<point x="891" y="436" type="curve" smooth="yes"/>
			<point x="891" y="205"/>
			<point x="874" y="4"/>
			<point x="761" y="4" type="curve" smooth="yes"/>
			<point x="694" y="4"/>
			<point x="654" y="135"/>
		</contour>
	</outline>
	<anchor name="top" x="796" y="730"/>
</glyph>
<glyph name="zhe-cy" format="2">
	<unicode hex="0436"/>
	<advance width="897"/>
	<outline>
		<contour>
			<point x="507" y="209" type="line"/>
			<point x="555" y="523" type="line"/>
			<point x="370" y="523" type="line"/>
			<point x="350" y="324" type="line"/>
			<point x="341" y="319" type="line"/>
			<point x="329" y="358"/>
			<point x="316" y="397"/>
			<point x="304" y="436" type="curve" smooth="yes"/>
			<point x="284" y="499"/>
			<point x="243" y="536"/>
			<point x="166" y="536" type="curve" smooth="yes"/>
			<point x="99" y="536"/>
			<point x="37" y="484"/>
			<point x="11" y="444" type="curve"/>
			<point x="24" y="430" type="line"/>
			<point x="42" y="449"/>
			<point x="51" y="456"/>
			<point x="65" y="456" type="curve" smooth="yes"/>
			<point x="82" y="456"/>
			<point x="98" y="449"/>
			<point x="117" y="401" type="curve" smooth="yes"/>
			<point x="141" y="340"/>
			<point x="166" y="280"/>
			<point x="190" y="219" type="curve"/>
			<point x="119" y="168"/>
			<point x="49" y="114"/>
			<point x="49" y="59" type="curve" smooth="yes"/>
			<point x="49" y="18"/>
			<point x="81" y="-14"/>
			<point x="131" y="-14" type="curve" smooth="yes"/>
			<point x="183" y="-14"/>
			<point x="226" y="20"/>
			<point x="245" y="73" type="curve"/>
			<point x="210" y="105" type="line" smooth="yes"/>
			<point x="194" y="119"/>
			<point x="187" y="130"/>
			<point x="187" y="143" type="curve" smooth="yes"/>
			<point x="187" y="176"/>
			<point x="222" y="201"/>
			<point x="343" y="281" type="curve"/>
			<point x="311" y="0" type="line"/>
			<point x="501" y="0" type="line"/>
			<point x="518" y="159" type="line"/>
			<point x="527" y="173"/>
			<point x="535" y="188"/>
			<point x="544" y="202" type="curve"/>
			<point x="563" y="163"/>
			<point x="582" y="125"/>
			<point x="601" y="86" type="curve" smooth="yes"/>
			<point x="630" y="27"/>
			<point x="668" y="-14"/>
			<point x="741" y="-14" type="curve" smooth="yes"/>
			<point x="808" y="-14"/>
			<point x="870" y="38"/>
			<point x="896" y="78" type="curve"/>
			<point x="883" y="92" type="line"/>
			<point x="865" y="73"/>
			<point x="856" y="66"/>
			<point x="842" y="66" type="curve" smooth="yes"/>
			<point x="825" y="66"/>
			<point x="819" y="76"/>
			<point x="793" y="121" type="curve" smooth="yes"/>
			<point x="746" y="204"/>
			<point x="699" y="287"/>
			<point x="652" y="370" type="curve"/>
			<point x="659" y="380"/>
			<point x="674" y="399"/>
			<point x="684" y="410" type="curve" smooth="yes"/>
			<point x="706" y="434"/>
			<point x="745" y="439"/>
			<point x="766" y="406" type="curve" smooth="yes"/>
			<point x="798" y="359" type="line"/>
			<point x="837" y="379"/>
			<point x="880" y="416"/>
			<point x="880" y="465" type="curve" smooth="yes"/>
			<point x="880" y="512"/>
			<point x="847" y="536"/>
			<point x="805" y="536" type="curve" smooth="yes"/>
			<point x="743" y="536"/>
			<point x="714" y="501"/>
			<point x="663" y="438" type="curve" smooth="yes"/>
			<point x="633" y="401"/>
			<point x="547" y="264"/>
			<point x="511" y="207" type="curve"/>
		</contour>
	</outline>
</glyph>
<glyph name="ze-cy" format="2">
	<unicode hex="0437"/>
	<advance width="531"/>
	<outline>
		<contour>
			<point x="221" y="-14" type="curve" smooth="yes"/>
			<point x="375" y="-14"/>
			<point x="508" y="55"/>
			<point x="508" y="170" type="curve" smooth="yes"/>
			<point x="508" y="259"/>
			<point x="426" y="273"/>
			<point x="299" y="273" type="curve"/>
			<point x="299" y="278" type="line"/>
			<point x="429" y="298"/>
			<point x="497" y="343"/>
			<point x="497" y="429" type="curve" smooth="yes"/>
			<point x="497" y="505"/>
			<point x="414" y="537"/>
			<point x="310" y="537" type="curve" smooth="yes"/>
			<point x="141" y="537"/>
			<point x="85" y="451"/>
			<point x="59" y="401" type="curve"/>
			<point x="77" y="390" type="line"/>
			<point x="105" y="443"/>
			<point x="151" y="489"/>
			<point x="220" y="489" type="curve" smooth="yes"/>
			<point x="270" y="489"/>
			<point x="303" y="462"/>
			<point x="303" y="397" type="curve" smooth="yes"/>
			<point x="303" y="335"/>
			<point x="277" y="286"/>
			<point x="219" y="281" type="curve" smooth="yes"/>
			<point x="165" y="276" type="line"/>
			<point x="162" y="253" type="line"/>
			<point x="232" y="257" type="line" smooth="yes"/>
			<point x="276" y="260"/>
			<point x="304" y="230"/>
			<point x="304" y="168" type="curve" smooth="yes"/>
			<point x="304" y="68"/>
			<point x="265" y="4"/>
			<point x="219" y="4" type="curve" smooth="yes"/>
			<point x="169" y="4"/>
			<point x="152" y="49"/>
			<point x="168" y="111" type="curve" smooth="yes"/>
			<point x="185" y="177" type="line"/>
			<point x="153" y="197"/>
			<point x="131" y="204"/>
			<point x="98" y="204" type="curve" smooth="yes"/>
			<point x="51" y="204"/>
			<point x="15" y="170"/>
			<point x="15" y="116" type="curve" smooth="yes"/>
			<point x="15" y="36"/>
			<point x="99" y="-14"/>
		</contour>
	</outline>
</glyph>
<glyph name="ef-cy" format="2">
	<unicode hex="0444"/>
	<advance width="940"/>
	<outline>
		<contour>
			<point x="560" y="339" type="line"/>
			<point x="588" y="756" type="line"/>
			<point x="584" y="767" type="line"/>
			<point x="290" y="767" type="line"/>
			<point x="288" y="748" type="line"/>
			<point x="391" y="730" type="line"/>
			<point x="383" y="516" type="line"/>
			<point x="359" y="530"/>
			<point x="323" y="537"/>
			<point x="289" y="537" type="curve" smooth="yes"/>
			<point x="118" y="537"/>
			<point x="33" y="381"/>
			<point x="33" y="206" type="curve" smooth="yes"/>
			<point x="33" y="80"/>
			<point x="93" y="-14"/>
			<point x="198" y="-14" type="curve" smooth="yes"/>
			<point x="301" y="-14"/>
			<point x="345" y="101"/>
			<point x="366" y="158" type="curve"/>
			<point x="371" y="157" type="line"/>
			<point x="342" y="-215" type="line"/>
			<point x="346" y="-226" type="line"/>
			<point x="644" y="-216" type="line"/>
			<point x="646" y="-197" type="line"/>
			<point x="543" y="-179" type="line"/>
			<point x="555" y="7" type="line"/>
			<point x="580" y="-6"/>
			<point x="616" y="-14"/>
			<point x="656" y="-14" type="curve" smooth="yes"/>
			<point x="818" y="-14"/>
			<point x="907" y="152"/>
			<point x="907" y="327" type="curve" smooth="yes"/>
			<point x="907" y="453"/>
			<point x="853" y="537"/>
			<point x="743" y="537" type="curve" smooth="yes"/>
			<point x="643" y="537"/>
			<point x="598" y="470"/>
			<point x="565" y="339" type="curve"/>
		</contour>
		<contour>
			<point x="285" y="91" type="curve" smooth="yes"/>
			<point x="255" y="91"/>
			<point x="250" y="119"/>
			<point x="250" y="187" type="curve" smooth="yes"/>
			<point x="250" y="380"/>
			<point x="292" y="507"/>
			<point x="343" y="507" type="curve" smooth="yes"/>
			<point x="358" y="507"/>
			<point x="371" y="502"/>
			<point x="382" y="492" type="curve"/>
			<point x="371" y="244" type="line"/>
			<point x="355" y="177"/>
			<point x="316" y="91"/>
		</contour>
		<contour>
			<point x="652" y="429" type="curve" smooth="yes"/>
			<point x="679" y="429"/>
			<point x="690" y="414"/>
			<point x="690" y="336" type="curve" smooth="yes"/>
			<point x="690" y="168"/>
			<point x="653" y="17"/>
			<point x="601" y="17" type="curve" smooth="yes"/>
			<point x="586" y="17"/>
			<point x="573" y="21"/>
			<point x="557" y="29" type="curve"/>
			<point x="569" y="257" type="line"/>
			<point x="592" y="369"/>
			<point x="611" y="429"/>
		</contour>
	</outline>
</glyph>
<glyph name="shcha-cy" format="2">
	<unicode hex="0449"/>
	<advance width="1036"/>
	<outline>
		<contour>
			<point x="8" y="502" type="curve"/>
			<point x="16" y="481" type="line"/>
			<point x="33" y="488"/>
			<point x="49" y="494"/>
			<point x="71" y="494" type="curve" smooth="yes"/>
			<point x="95" y="494"/>
			<point x="99" y="474"/>
			<point x="97" y="448" type="curve" smooth="yes"/>
			<point x="71" y="171" type="line" smooth="yes"/>
			<point x="59" y="39"/>
			<point x="124" y="-14"/>
			<point x="206" y="-14" type="curve" smooth="yes"/>
			<point x="304" y="-14"/>
			<point x="342" y="39"/>
			<point x="366" y="128" type="curve" smooth="yes"/>
			<point x="425" y="347" type="line"/>
			<point x="435" y="345" type="line"/>
			<point x="427" y="276"/>
			<point x="420" y="206"/>
			<point x="412" y="137" type="curve" smooth="yes"/>
			<point x="402" y="42"/>
			<point x="434" y="-14"/>
			<point x="536" y="-14" type="curve" smooth="yes"/>
			<point x="644" y="-14"/>
			<point x="662" y="61"/>
			<point x="686" y="149" type="curve" smooth="yes"/>
			<point x="740" y="350" type="line"/>
			<point x="749" y="348" type="line"/>
			<point x="741" y="272"/>
			<point x="734" y="195"/>
			<point x="726" y="119" type="curve" smooth="yes"/>
			<point x="716" y="22"/>
			<point x="753" y="-14"/>
			<point x="818" y="-14" type="curve" smooth="yes"/>
			<point x="855" y="-14"/>
			<point x="895" y="2"/>
			<point x="920" y="22" type="curve"/>
			<point x="927" y="18" type="line"/>
			<point x="927" y="-53"/>
			<point x="918" y="-117"/>
			<point x="901" y="-179" type="curve"/>
			<point x="917" y="-194" type="line"/>
			<point x="1016" y="-100"/>
			<point x="1045" y="-4"/>
			<point x="1055" y="97" type="curve"/>
			<point x="992" y="114" type="line"/>
			<point x="975" y="89"/>
			<point x="961" y="70"/>
			<point x="937" y="70" type="curve" smooth="yes"/>
			<point x="920" y="70"/>
			<point x="912" y="79"/>
			<point x="912" y="95" type="curve" smooth="yes"/>
			<point x="923" y="526" type="line"/>
			<point x="760" y="526" type="line"/>
			<point x="661" y="162" type="line" smooth="yes"/>
			<point x="644" y="98"/>
			<point x="636" y="86"/>
			<point x="611" y="86" type="curve" smooth="yes"/>
			<point x="594" y="86"/>
			<point x="591" y="108"/>
			<point x="595" y="142" type="curve" smooth="yes"/>
			<point x="635" y="526" type="line"/>
			<point x="451" y="526" type="line"/>
			<point x="345" y="158" type="line" smooth="yes"/>
			<point x="329" y="102"/>
			<point x="321" y="86"/>
			<point x="301" y="86" type="curve" smooth="yes"/>
			<point x="279" y="86"/>
			<point x="269" y="97"/>
			<point x="275" y="151" type="curve" smooth="yes"/>
			<point x="303" y="425" type="line" smooth="yes"/>
			<point x="310" y="496"/>
			<point x="274" y="537"/>
			<point x="189" y="537" type="curve" smooth="yes"/>
			<point x="115" y="537"/>
			<point x="48" y="519"/>
		</contour>
	</outline>
</glyph>
<glyph name="hardsign-cy" format="2">
	<unicode hex="044A"/>
	<advance width="595"/>
	<outline>
		<contour>
			<point x="316" y="301" type="curve"/>
			<point x="343" y="377"/>
			<point x="376" y="444"/>
			<point x="434" y="519" type="curve"/>
			<point x="402" y="549" type="line"/>
			<point x="364" y="533"/>
			<point x="331" y="525"/>
			<point x="270" y="525" type="curve" smooth="yes"/>
			<point x="195" y="525"/>
			<point x="154" y="544"/>
			<point x="104" y="544" type="curve" smooth="yes"/>
			<point x="36" y="544"/>
			<point x="18" y="488"/>
			<point x="18" y="330" type="curve"/>
			<point x="38" y="329" type="line"/>
			<point x="38" y="380"/>
			<point x="60" y="401"/>
			<point x="105" y="401" type="curve" smooth="yes"/>
			<point x="173" y="401"/>
			<point x="246" y="420"/>
			<point x="335" y="489" type="curve"/>
			<point x="339" y="485" type="line"/>
			<point x="216" y="398"/>
			<point x="98" y="284"/>
			<point x="98" y="159" type="curve" smooth="yes"/>
			<point x="98" y="34"/>
			<point x="195" y="-14"/>
			<point x="314" y="-14" type="curve" smooth="yes"/>
			<point x="490" y="-14"/>
			<point x="579" y="119"/>
			<point x="579" y="216" type="curve" smooth="yes"/>
			<point x="579" y="298"/>
			<point x="524" y="336"/>
			<point x="451" y="336" type="curve" smooth="yes"/>
			<point x="394" y="336"/>
			<point x="347" y="318"/>
		</contour>
		<contour>
			<point x="309" y="276" type="curve"/>
			<point x="324" y="285"/>
			<point x="334" y="289"/>
			<point x="352" y="289" type="curve" smooth="yes"/>
			<point x="379" y="289"/>
			<point x="389" y="263"/>
			<point x="389" y="201" type="curve" smooth="yes"/>
			<point x="389" y="110"/>
			<point x="361" y="8"/>
			<point x="322" y="8" type="curve" smooth="yes"/>
			<point x="296" y="8"/>
			<point x="284" y="49"/>
			<point x="284" y="92" type="curve" smooth="yes"/>
			<point x="284" y="153"/>
			<point x="290" y="204"/>
		</contour>
	</outline>
	<anchor name="top" x="237" y="550"/>
</glyph>
<glyph name="softsign-cy" format="2">
	<unicode hex="044C"/>
	<advance width="558"/>
	<outline>
		<contour>
			<point x="272" y="300" type="curve"/>
			<point x="277" y="337"/>
			<point x="282" y="378"/>
			<point x="285" y="415" type="curve" smooth="yes"/>
			<point x="291" y="492"/>
			<point x="247" y="537"/>
			<point x="169" y="537" type="curve" smooth="yes"/>
			<point x="110" y="537"/>
			<point x="25" y="509"/>
			<point x="8" y="502" type="curve"/>
			<point x="16" y="481" type="line"/>
			<point x="35" y="487"/>
			<point x="57" y="494"/>
			<point x="71" y="494" type="curve" smooth="yes"/>
			<point x="91" y="494"/>
			<point x="96" y="483"/>
			<point x="94" y="457" type="curve" smooth="yes"/>
			<point x="86" y="352"/>
			<point x="73" y="211"/>
			<point x="73" y="150" type="curve" smooth="yes"/>
			<point x="73" y="45"/>
			<point x="162" y="-14"/>
			<point x="257" y="-14" type="curve" smooth="yes"/>
			<point x="453" y="-14"/>
			<point x="542" y="119"/>
			<point x="542" y="226" type="curve" smooth="yes"/>
			<point x="542" y="298"/>
			<point x="487" y="336"/>
			<point x="414" y="336" type="curve" smooth="yes"/>
			<point x="357" y="336"/>
			<point x="303" y="317"/>
		</contour>
		<contour>
			<point x="272" y="276" type="curve"/>
			<point x="287" y="285"/>
			<point x="297" y="289"/>
			<point x="315" y="289" type="curve" smooth="yes"/>
			<point x="342" y="289"/>
			<point x="352" y="263"/>
			<point x="352" y="201" type="curve" smooth="yes"/>
			<point x="352" y="110"/>
			<point x="324" y="8"/>
			<point x="289" y="8" type="curve" smooth="yes"/>
			<point x="265" y="8"/>
			<point x="256" y="39"/>
			<point x="256" y="82" type="curve" smooth="yes"/>
			<point x="256" y="123"/>
			<point x="266" y="234"/>
		</contour>
	</outline>
	<guideline x="893" y="8" angle="0"/>
</glyph>
<glyph name="iu-cy" format="2">
	<unicode hex="044E"/>
	<advance width="905"/>
	<outline>
		<contour>
			<point x="582" y="-14" type="curve" smooth="yes"/>
			<point x="801" y="-14"/>
			<point x="870" y="140"/>
			<point x="870" y="282" type="curve" smooth="yes"/>
			<point x="870" y="431"/>
			<point x="794" y="537"/>
			<point x="626" y="537" type="curve" smooth="yes"/>
			<point x="425" y="537"/>
			<point x="346" y="411"/>
			<point x="335" y="272" type="curve"/>
			<point x="284" y="272" type="line"/>
			<point x="287" y="323"/>
			<point x="291" y="373"/>
			<point x="294" y="424" type="curve" smooth="yes"/>
			<point x="299" y="507"/>
			<point x="263" y="537"/>
			<point x="162" y="537" type="curve" smooth="yes"/>
			<point x="112" y="537"/>
			<point x="42" y="516"/>
			<point x="8" y="502" type="curve"/>
			<point x="16" y="481" type="line"/>
			<point x="40" y="489"/>
			<point x="55" y="493"/>
			<point x="71" y="493" type="curve" smooth="yes"/>
			<point x="89" y="493"/>
			<point x="94" y="474"/>
			<point x="92" y="438" type="curve" smooth="yes"/>
			<point x="63" y="0" type="line"/>
			<point x="267" y="0" type="line"/>
			<point x="283" y="247" type="line"/>
			<point x="334" y="247" type="line"/>
			<point x="335" y="83"/>
			<point x="423" y="-14"/>
		</contour>
		<contour>
			<point x="597" y="8" type="curve" smooth="yes"/>
			<point x="567" y="8"/>
			<point x="561" y="67"/>
			<point x="561" y="222" type="curve" smooth="yes"/>
			<point x="561" y="468"/>
			<point x="590" y="519"/>
			<point x="613" y="519" type="curve" smooth="yes"/>
			<point x="640" y="519"/>
			<point x="649" y="454"/>
			<point x="649" y="286" type="curve" smooth="yes"/>
			<point x="649" y="112"/>
			<point x="633" y="8"/>
		</contour>
	</outline>
	<anchor name="top" x="627" y="550"/>
</glyph>
<glyph name="ia-cy" format="2">
	<unicode hex="044F"/>
	<advance width="617"/>
	<outline>
		<contour>
			<point x="338" y="270" type="curve"/>
			<point x="319" y="98" type="line" smooth="yes"/>
			<point x="311" y="27"/>
			<point x="341" y="-14"/>
			<point x="426" y="-14" type="curve" smooth="yes"/>
			<point x="500" y="-14"/>
			<point x="586" y="39"/>
			<point x="620" y="68" type="curve"/>
			<point x="609" y="84" type="line"/>
			<point x="592" y="71"/>
			<point x="568" y="56"/>
			<point x="546" y="56" type="curve" smooth="yes"/>
			<point x="522" y="56"/>
			<point x="522" y="70"/>
			<point x="524" y="96" type="curve" smooth="yes"/>
			<point x="553" y="523" type="line"/>
			<point x="514" y="537" type="line"/>
			<point x="373" y="508" type="line"/>
			<point x="358" y="528"/>
			<point x="323" y="545"/>
			<point x="271" y="545" type="curve" smooth="yes"/>
			<point x="144" y="545"/>
			<point x="62" y="473"/>
			<point x="62" y="360" type="curve" smooth="yes"/>
			<point x="62" y="279"/>
			<point x="124" y="222"/>
			<point x="209" y="222" type="curve"/>
			<point x="210" y="219" type="line"/>
			<point x="114" y="186"/>
			<point x="28" y="135"/>
			<point x="28" y="67" type="curve" smooth="yes"/>
			<point x="28" y="16"/>
			<point x="68" y="-14"/>
			<point x="121" y="-14" type="curve" smooth="yes"/>
			<point x="169" y="-14"/>
			<point x="211" y="13"/>
			<point x="234" y="65" type="curve"/>
			<point x="193" y="111" type="line" smooth="yes"/>
			<point x="166" y="142"/>
			<point x="177" y="163"/>
			<point x="226" y="196" type="curve" smooth="yes"/>
			<point x="263" y="221"/>
			<point x="301" y="245"/>
		</contour>
		<contour>
			<point x="363" y="487" type="curve"/>
			<point x="342" y="305" type="line"/>
			<point x="333" y="290"/>
			<point x="318" y="274"/>
			<point x="297" y="274" type="curve" smooth="yes"/>
			<point x="276" y="274"/>
			<point x="259" y="290"/>
			<point x="259" y="348" type="curve" smooth="yes"/>
			<point x="259" y="447"/>
			<point x="286" y="511"/>
			<point x="325" y="511" type="curve" smooth="yes"/>
			<point x="340" y="511"/>
			<point x="351" y="505"/>
		</contour>
	</outline>
	<anchor name="top" x="324" y="550"/>
</glyph>
<glyph name="lje-cy" format="2">
	<unicode hex="0459"/>
	<advance width="851"/>
	<outline>
		<contour>
			<point x="154" y="444" type="curve"/>
			<point x="164" y="429" type="line"/>
			<point x="200" y="441"/>
			<point x="231" y="444"/>
			<point x="260" y="444" type="curve"/>
			<point x="240" y="307"/>
			<point x="228" y="248"/>
			<point x="209" y="179" type="curve" smooth="yes"/>
			<point x="202" y="153"/>
			<point x="191" y="124"/>
			<point x="181" y="108" type="curve"/>
			<point x="84" y="184" type="line"/>
			<point x="47" y="161"/>
			<point x="14" y="126"/>
			<point x="14" y="75" type="curve" smooth="yes"/>
			<point x="14" y="29"/>
			<point x="47" y="-14"/>
			<point x="103" y="-14" type="curve" smooth="yes"/>
			<point x="162" y="-14"/>
			<point x="197" y="39"/>
			<point x="226" y="135" type="curve" smooth="yes"/>
			<point x="249" y="211"/>
			<point x="270" y="336"/>
			<point x="288" y="442" type="curve"/>
			<point x="322" y="440"/>
			<point x="356" y="436"/>
			<point x="385" y="425" type="curve"/>
			<point x="377" y="329"/>
			<point x="369" y="221"/>
			<point x="369" y="139" type="curve" smooth="yes"/>
			<point x="369" y="34"/>
			<point x="451" y="-14"/>
			<point x="558" y="-14" type="curve" smooth="yes"/>
			<point x="746" y="-14"/>
			<point x="835" y="119"/>
			<point x="835" y="226" type="curve" smooth="yes"/>
			<point x="835" y="298"/>
			<point x="780" y="336"/>
			<point x="707" y="336" type="curve" smooth="yes"/>
			<point x="650" y="336"/>
			<point x="596" y="317"/>
			<point x="565" y="300" type="curve"/>
			<point x="577" y="445" type="line"/>
			<point x="553" y="506"/>
			<point x="498" y="539"/>
			<point x="392" y="539" type="curve" smooth="yes"/>
			<point x="280" y="539"/>
			<point x="215" y="496"/>
		</contour>
		<contour>
			<point x="563" y="276" type="curve"/>
			<point x="578" y="285"/>
			<point x="590" y="289"/>
			<point x="608" y="289" type="curve" smooth="yes"/>
			<point x="635" y="289"/>
			<point x="645" y="263"/>
			<point x="645" y="201" type="curve" smooth="yes"/>
			<point x="645" y="110"/>
			<point x="617" y="8"/>
			<point x="582" y="8" type="curve" smooth="yes"/>
			<point x="558" y="8"/>
			<point x="550" y="39"/>
			<point x="550" y="82" type="curve" smooth="yes"/>
			<point x="550" y="133"/>
			<point x="557" y="234"/>
		</contour>
	</outline>
</glyph>
<glyph name="Yat-cy" format="2">
	<unicode hex="0462"/>
	<advance width="826"/>
	<outline>
		<contour>
			<point x="248" y="607" type="line"/>
			<point x="224" y="27" type="line"/>
			<point x="143" y="18" type="line"/>
			<point x="141" y="0" type="line"/>
			<point x="496" y="0" type="line" smooth="yes"/>
			<point x="694" y="0"/>
			<point x="815" y="99"/>
			<point x="815" y="245" type="curve" smooth="yes"/>
			<point x="815" y="356"/>
			<point x="728" y="415"/>
			<point x="597" y="415" type="curve" smooth="yes"/>
			<point x="554" y="415"/>
			<point x="520" y="412"/>
			<point x="484" y="403" type="curve"/>
			<point x="482" y="385" type="line"/>
			<point x="493" y="388"/>
			<point x="505" y="389"/>
			<point x="519" y="389" type="curve" smooth="yes"/>
			<point x="566" y="389"/>
			<point x="597" y="358"/>
			<point x="597" y="239" type="curve" smooth="yes"/>
			<point x="597" y="114"/>
			<point x="562" y="23"/>
			<point x="479" y="23" type="curve" smooth="yes"/>
			<point x="450" y="23" type="line"/>
			<point x="475" y="607" type="line"/>
			<point x="549" y="607" type="line" smooth="yes"/>
			<point x="633" y="607"/>
			<point x="666" y="603"/>
			<point x="690" y="500" type="curve" smooth="yes"/>
			<point x="703" y="443" type="line"/>
			<point x="724" y="446" type="line"/>
			<point x="711" y="630" type="line"/>
			<point x="476" y="630" type="line"/>
			<point x="479" y="707" type="line"/>
			<point x="551" y="722" type="line"/>
			<point x="554" y="740" type="line"/>
			<point x="182" y="740" type="line"/>
			<point x="178" y="722" type="line"/>
			<point x="252" y="707" type="line"/>
			<point x="249" y="630" type="line"/>
			<point x="48" y="630" type="line"/>
			<point x="22" y="424" type="line"/>
			<point x="43" y="418" type="line"/>
			<point x="69" y="511" type="line" smooth="yes"/>
			<point x="91" y="591"/>
			<point x="140" y="607"/>
			<point x="207" y="607" type="curve" smooth="yes"/>
		</contour>
	</outline>
</glyph>
<glyph name="Gheupturn-cy" format="2">
	<unicode hex="0490"/>
	<advance width="577"/>
	<outline>
		<contour>
			<point x="12" y="18" type="line"/>
			<point x="10" y="0" type="line"/>
			<point x="433" y="0" type="line"/>
			<point x="435" y="18" type="line"/>
			<point x="320" y="27" type="line"/>
			<point x="345" y="707" type="line"/>
			<point x="582" y="707" type="line"/>
			<point x="606" y="911" type="line"/>
			<point x="585" y="914" type="line"/>
			<point x="561" y="847" type="line" smooth="yes"/>
			<point x="525" y="747"/>
			<point x="505" y="730"/>
			<point x="420" y="730" type="curve" smooth="yes"/>
			<point x="51" y="730" type="line"/>
			<point x="47" y="712" type="line"/>
			<point x="121" y="697" type="line"/>
			<point x="93" y="27" type="line"/>
		</contour>
	</outline>
</glyph>
<glyph name="gheupturn-cy" format="2">
	<unicode hex="0491"/>
	<advance width="524"/>
	<outline>
		<contour>
			<point x="313" y="500" type="curve" smooth="yes"/>
			<point x="338" y="500"/>
			<point x="388" y="420"/>
			<point x="443" y="420" type="curve" smooth="yes"/>
			<point x="480" y="420"/>
			<point x="499" y="445"/>
			<point x="510" y="496" type="curve" smooth="yes"/>
			<point x="518" y="530"/>
			<point x="523" y="576"/>
			<point x="527" y="633" type="curve"/>
			<point x="506" y="638" type="line"/>
			<point x="497" y="609"/>
			<point x="481" y="571"/>
			<point x="421" y="560" type="curve" smooth="yes"/>
			<point x="359" y="549"/>
			<point x="322" y="543"/>
			<point x="174" y="520" type="curve" smooth="yes"/>
			<point x="113" y="511"/>
			<point x="83" y="481"/>
			<point x="80" y="407" type="curve" smooth="yes"/>
			<point x="73" y="224"/>
			<point x="69" y="110"/>
			<point x="66" y="37" type="curve" smooth="yes"/>
			<point x="62" y="-69"/>
			<point x="60" y="-89"/>
			<point x="58" y="-109" type="curve" smooth="yes"/>
			<point x="54" y="-145"/>
			<point x="35" y="-146"/>
			<point x="12" y="-126" type="curve" smooth="yes"/>
			<point x="-44" y="-77" type="line"/>
			<point x="-79" y="-105"/>
			<point x="-95" y="-127"/>
			<point x="-95" y="-163" type="curve" smooth="yes"/>
			<point x="-95" y="-196"/>
			<point x="-66" y="-229"/>
			<point x="-13" y="-229" type="curve" smooth="yes"/>
			<point x="29" y="-229"/>
			<point x="73" y="-208"/>
			<point x="120" y="-151" type="curve" smooth="yes"/>
			<point x="232" y="-15"/>
			<point x="270" y="87"/>
			<point x="274" y="170" type="curve" smooth="yes"/>
			<point x="286" y="437" type="line" smooth="yes"/>
			<point x="288" y="471"/>
			<point x="288" y="500"/>
		</contour>
	</outline>
</glyph>
<glyph name="ghestroke-cy" format="2">
	<unicode hex="0493"/>
	<advance width="504"/>
	<outline>
		<contour>
			<point x="465" y="246" type="line"/>
			<point x="467" y="271" type="line"/>
			<point x="356" y="271" type="line"/>
			<point x="408" y="319"/>
			<point x="463" y="369"/>
			<point x="463" y="431" type="curve" smooth="yes"/>
			<point x="463" y="504"/>
			<point x="393" y="537"/>
			<point x="287" y="537" type="curve" smooth="yes"/>
			<point x="142" y="537"/>
			<point x="84" y="462"/>
			<point x="47" y="401" type="curve"/>
			<point x="63" y="390" type="line"/>
			<point x="93" y="441"/>
			<point x="139" y="486"/>
			<point x="198" y="486" type="curve" smooth="yes"/>
			<point x="241" y="486"/>
			<point x="263" y="462"/>
			<point x="263" y="419" type="curve" smooth="yes"/>
			<point x="263" y="371"/>
			<point x="241" y="340"/>
			<point x="166" y="271" type="curve"/>
			<point x="43" y="271" type="line"/>
			<point x="39" y="246" type="line"/>
			<point x="139" y="246" type="line"/>
			<point x="90" y="201"/>
			<point x="46" y="155"/>
			<point x="46" y="107" type="curve" smooth="yes"/>
			<point x="46" y="42"/>
			<point x="108" y="-14"/>
			<point x="223" y="-14" type="curve" smooth="yes"/>
			<point x="370" y="-14"/>
			<point x="438" y="64"/>
			<point x="474" y="121" type="curve"/>
			<point x="458" y="132" type="line"/>
			<point x="427" y="82"/>
			<point x="373" y="37"/>
			<point x="323" y="37" type="curve" smooth="yes"/>
			<point x="276" y="37"/>
			<point x="249" y="66"/>
			<point x="249" y="108" type="curve" smooth="yes"/>
			<point x="249" y="150"/>
			<point x="278" y="194"/>
			<point x="329" y="246" type="curve"/>
		</contour>
	</outline>
</glyph>
<glyph name="Zhedescender-cy" format="2">
	<unicode hex="0496"/>
	<advance width="1246"/>
	<outline>
		<contour>
			<point x="521" y="368" type="curve"/>
			<point x="507" y="27" type="line"/>
			<point x="424" y="18" type="line"/>
			<point x="422" y="0" type="line"/>
			<point x="809" y="0" type="line"/>
			<point x="811" y="18" type="line"/>
			<point x="733" y="28" type="line"/>
			<point x="748" y="368" type="line"/>
			<point x="758" y="367"/>
			<point x="767" y="365"/>
			<point x="780" y="357" type="curve" smooth="yes"/>
			<point x="794" y="349"/>
			<point x="805" y="324"/>
			<point x="827" y="249" type="curve" smooth="yes"/>
			<point x="834" y="226"/>
			<point x="842" y="198"/>
			<point x="851" y="165" type="curve" smooth="yes"/>
			<point x="892" y="13"/>
			<point x="952" y="-14"/>
			<point x="1039" y="-14" type="curve" smooth="yes"/>
			<point x="1086" y="-14"/>
			<point x="1126" y="2"/>
			<point x="1152" y="25" type="curve"/>
			<point x="1173" y="-21"/>
			<point x="1188" y="-93"/>
			<point x="1188" y="-164" type="curve"/>
			<point x="1209" y="-166" type="line"/>
			<point x="1235" y="98" type="line"/>
			<point x="1220" y="106" type="line"/>
			<point x="1207" y="78"/>
			<point x="1187" y="57"/>
			<point x="1167" y="57" type="curve" smooth="yes"/>
			<point x="1146" y="57"/>
			<point x="1130" y="74"/>
			<point x="1080" y="188" type="curve" smooth="yes"/>
			<point x="1066" y="220"/>
			<point x="1048" y="250"/>
			<point x="1027" y="275" type="curve" smooth="yes"/>
			<point x="975" y="339"/>
			<point x="901" y="381"/>
			<point x="805" y="385" type="curve"/>
			<point x="806" y="389" type="line"/>
			<point x="865" y="412"/>
			<point x="895" y="452"/>
			<point x="929" y="523" type="curve" smooth="yes"/>
			<point x="957" y="582"/>
			<point x="976" y="613"/>
			<point x="993" y="613" type="curve" smooth="yes"/>
			<point x="1006" y="613"/>
			<point x="1027" y="587"/>
			<point x="1051" y="554" type="curve" smooth="yes"/>
			<point x="1085" y="503" type="line"/>
			<point x="1149" y="533"/>
			<point x="1188" y="584"/>
			<point x="1188" y="643" type="curve" smooth="yes"/>
			<point x="1188" y="702"/>
			<point x="1141" y="740"/>
			<point x="1091" y="740" type="curve" smooth="yes"/>
			<point x="999" y="740"/>
			<point x="956" y="650"/>
			<point x="904" y="539" type="curve" smooth="yes"/>
			<point x="870" y="467"/>
			<point x="842" y="429"/>
			<point x="799" y="409" type="curve" smooth="yes"/>
			<point x="784" y="402"/>
			<point x="767" y="397"/>
			<point x="749" y="393" type="curve"/>
			<point x="762" y="697" type="line"/>
			<point x="834" y="712" type="line"/>
			<point x="837" y="730" type="line"/>
			<point x="465" y="730" type="line"/>
			<point x="461" y="712" type="line"/>
			<point x="535" y="697" type="line"/>
			<point x="522" y="393" type="line"/>
			<point x="502" y="397"/>
			<point x="486" y="402"/>
			<point x="473" y="409" type="curve" smooth="yes"/>
			<point x="434" y="430"/>
			<point x="410" y="467"/>
			<point x="383" y="539" type="curve" smooth="yes"/>
			<point x="342" y="650"/>
			<point x="308" y="740"/>
			<point x="221" y="740" type="curve" smooth="yes"/>
			<point x="171" y="740"/>
			<point x="112" y="705"/>
			<point x="112" y="633" type="curve" smooth="yes"/>
			<point x="112" y="584"/>
			<point x="138" y="533"/>
			<point x="198" y="503" type="curve"/>
			<point x="234" y="549" type="line" smooth="yes"/>
			<point x="263" y="586"/>
			<point x="290" y="613"/>
			<point x="304" y="613" type="curve" smooth="yes"/>
			<point x="321" y="613"/>
			<point x="334" y="582"/>
			<point x="356" y="523" type="curve" smooth="yes"/>
			<point x="382" y="452"/>
			<point x="405" y="409"/>
			<point x="463" y="389" type="curve"/>
			<point x="464" y="385" type="line"/>
			<point x="364" y="381"/>
			<point x="282" y="336"/>
			<point x="221" y="268" type="curve" smooth="yes"/>
			<point x="200" y="244"/>
			<point x="181" y="217"/>
			<point x="165" y="188" type="curve" smooth="yes"/>
			<point x="101" y="74"/>
			<point x="83" y="53"/>
			<point x="62" y="53" type="curve" smooth="yes"/>
			<point x="40" y="53"/>
			<point x="33" y="56"/>
			<point x="10" y="71" type="curve"/>
			<point x="-2" y="57" type="line"/>
			<point x="38" y="22"/>
			<point x="108" y="-14"/>
			<point x="184" y="-14" type="curve" smooth="yes"/>
			<point x="271" y="-14"/>
			<point x="329" y="13"/>
			<point x="390" y="165" type="curve" smooth="yes"/>
			<point x="447" y="308"/>
			<point x="467" y="345"/>
			<point x="487" y="357" type="curve" smooth="yes"/>
			<point x="497" y="363"/>
			<point x="509" y="367"/>
		</contour>
	</outline>
</glyph>
<glyph name="zhedescender-cy" format="2">
	<unicode hex="0497"/>
	<advance width="922"/>
	<outline>
		<contour>
			<point x="507" y="209" type="line"/>
			<point x="555" y="523" type="line"/>
			<point x="370" y="523" type="line"/>
			<point x="350" y="324" type="line"/>
			<point x="341" y="319" type="line"/>
			<point x="329" y="358"/>
			<point x="318" y="397"/>
			<point x="306" y="436" type="curve" smooth="yes"/>
			<point x="287" y="499"/>
			<point x="243" y="536"/>
			<point x="166" y="536" type="curve" smooth="yes"/>
			<point x="99" y="536"/>
			<point x="37" y="484"/>
			<point x="11" y="444" type="curve"/>
			<point x="24" y="430" type="line"/>
			<point x="42" y="449"/>
			<point x="51" y="456"/>
			<point x="65" y="456" type="curve" smooth="yes"/>
			<point x="82" y="456"/>
			<point x="96" y="449"/>
			<point x="117" y="401" type="curve" smooth="yes"/>
			<point x="143" y="342"/>
			<point x="170" y="282"/>
			<point x="196" y="223" type="curve"/>
			<point x="125" y="172"/>
			<point x="49" y="114"/>
			<point x="49" y="59" type="curve" smooth="yes"/>
			<point x="49" y="18"/>
			<point x="81" y="-14"/>
			<point x="131" y="-14" type="curve" smooth="yes"/>
			<point x="181" y="-14"/>
			<point x="224" y="20"/>
			<point x="243" y="73" type="curve"/>
			<point x="208" y="105" type="line" smooth="yes"/>
			<point x="192" y="119"/>
			<point x="185" y="130"/>
			<point x="185" y="143" type="curve" smooth="yes"/>
			<point x="185" y="175"/>
			<point x="219" y="199"/>
			<point x="343" y="281" type="curve"/>
			<point x="311" y="0" type="line"/>
			<point x="501" y="0" type="line"/>
			<point x="518" y="159" type="line"/>
			<point x="527" y="173"/>
			<point x="535" y="188"/>
			<point x="544" y="202" type="curve"/>
			<point x="563" y="163"/>
			<point x="582" y="125"/>
			<point x="601" y="86" type="curve" smooth="yes"/>
			<point x="630" y="27"/>
			<point x="659" y="-14"/>
			<point x="722" y="-14" type="curve" smooth="yes"/>
			<point x="749" y="-14"/>
			<point x="784" y="1"/>
			<point x="805" y="25" type="curve"/>
			<point x="808" y="23" type="line"/>
			<point x="808" y="-47"/>
			<point x="797" y="-115"/>
			<point x="782" y="-179" type="curve"/>
			<point x="798" y="-194" type="line"/>
			<point x="897" y="-100"/>
			<point x="926" y="-4"/>
			<point x="936" y="97" type="curve"/>
			<point x="876" y="113" type="line"/>
			<point x="862" y="88"/>
			<point x="848" y="75"/>
			<point x="832" y="75" type="curve" smooth="yes"/>
			<point x="819" y="75"/>
			<point x="810" y="91"/>
			<point x="793" y="121" type="curve" smooth="yes"/>
			<point x="746" y="204"/>
			<point x="699" y="287"/>
			<point x="652" y="370" type="curve"/>
			<point x="659" y="380"/>
			<point x="674" y="399"/>
			<point x="684" y="410" type="curve" smooth="yes"/>
			<point x="706" y="434"/>
			<point x="745" y="439"/>
			<point x="766" y="406" type="curve" smooth="yes"/>
			<point x="798" y="359" type="line"/>
			<point x="837" y="379"/>
			<point x="880" y="416"/>
			<point x="880" y="465" type="curve" smooth="yes"/>
			<point x="880" y="512"/>
			<point x="847" y="536"/>
			<point x="805" y="536" type="curve" smooth="yes"/>
			<point x="743" y="536"/>
			<point x="714" y="501"/>
			<point x="663" y="438" type="curve" smooth="yes"/>
			<point x="633" y="401"/>
			<point x="547" y="264"/>
			<point x="511" y="207" type="curve"/>
		</contour>
	</outline>
</glyph>
<glyph name="Kadescender-cy" format="2">
	<unicode hex="049A"/>
	<advance width="843"/>
	<outline>
		<contour>
			<point x="354" y="393" type="curve"/>
			<point x="353" y="368" type="line"/>
			<point x="379" y="365"/>
			<point x="391" y="353"/>
			<point x="402" y="330" type="curve" smooth="yes"/>
			<point x="420" y="292"/>
			<point x="438" y="225"/>
			<point x="454" y="165" type="curve" smooth="yes"/>
			<point x="495" y="13"/>
			<point x="556" y="-14"/>
			<point x="643" y="-14" type="curve" smooth="yes"/>
			<point x="693" y="-14"/>
			<point x="742" y="1"/>
			<point x="778" y="32" type="curve"/>
			<point x="788" y="-14"/>
			<point x="790" y="-88"/>
			<point x="790" y="-164" type="curve"/>
			<point x="811" y="-166" type="line"/>
			<point x="837" y="98" type="line"/>
			<point x="822" y="106" type="line"/>
			<point x="805" y="70"/>
			<point x="789" y="57"/>
			<point x="769" y="57" type="curve" smooth="yes"/>
			<point x="748" y="57"/>
			<point x="733" y="74"/>
			<point x="683" y="188" type="curve" smooth="yes"/>
			<point x="670" y="218"/>
			<point x="653" y="247"/>
			<point x="633" y="272" type="curve" smooth="yes"/>
			<point x="581" y="337"/>
			<point x="506" y="381"/>
			<point x="408" y="385" type="curve"/>
			<point x="409" y="389" type="line"/>
			<point x="470" y="409"/>
			<point x="499" y="452"/>
			<point x="533" y="523" type="curve" smooth="yes"/>
			<point x="561" y="582"/>
			<point x="579" y="613"/>
			<point x="596" y="613" type="curve" smooth="yes"/>
			<point x="609" y="613"/>
			<point x="630" y="589"/>
			<point x="653" y="555" type="curve" smooth="yes"/>
			<point x="688" y="503" type="line"/>
			<point x="752" y="533"/>
			<point x="791" y="584"/>
			<point x="791" y="643" type="curve" smooth="yes"/>
			<point x="791" y="702"/>
			<point x="744" y="740"/>
			<point x="694" y="740" type="curve" smooth="yes"/>
			<point x="602" y="740"/>
			<point x="559" y="650"/>
			<point x="507" y="539" type="curve" smooth="yes"/>
			<point x="461" y="441"/>
			<point x="432" y="415"/>
		</contour>
		<contour>
			<point x="121" y="697" type="line"/>
			<point x="93" y="27" type="line"/>
			<point x="12" y="18" type="line"/>
			<point x="10" y="0" type="line"/>
			<point x="395" y="0" type="line"/>
			<point x="397" y="18" type="line"/>
			<point x="319" y="28" type="line"/>
			<point x="348" y="697" type="line"/>
			<point x="420" y="712" type="line"/>
			<point x="423" y="730" type="line"/>
			<point x="51" y="730" type="line"/>
			<point x="47" y="712" type="line"/>
		</contour>
	</outline>
</glyph>
<glyph name="kadescender-cy" format="2">
	<unicode hex="049B"/>
	<advance width="642"/>
	<outline>
		<contour>
			<point x="255" y="240" type="curve"/>
			<point x="251" y="242" type="line"/>
			<point x="298" y="425" type="line" smooth="yes"/>
			<point x="315" y="493"/>
			<point x="269" y="537"/>
			<point x="184" y="537" type="curve" smooth="yes"/>
			<point x="110" y="537"/>
			<point x="43" y="519"/>
			<point x="3" y="502" type="curve"/>
			<point x="11" y="481" type="line"/>
			<point x="28" y="487"/>
			<point x="44" y="494"/>
			<point x="66" y="494" type="curve" smooth="yes"/>
			<point x="85" y="494"/>
			<point x="90" y="477"/>
			<point x="88" y="451" type="curve" smooth="yes"/>
			<point x="45" y="0" type="line"/>
			<point x="151" y="0" type="line"/>
			<point x="190" y="67"/>
			<point x="229" y="135"/>
			<point x="268" y="202" type="curve"/>
			<point x="290" y="162"/>
			<point x="312" y="122"/>
			<point x="334" y="82" type="curve" smooth="yes"/>
			<point x="365" y="25"/>
			<point x="388" y="-14"/>
			<point x="445" y="-14" type="curve" smooth="yes"/>
			<point x="476" y="-14"/>
			<point x="505" y="2"/>
			<point x="528" y="28" type="curve"/>
			<point x="531" y="26" type="line"/>
			<point x="531" y="-54"/>
			<point x="521" y="-115"/>
			<point x="502" y="-179" type="curve"/>
			<point x="518" y="-194" type="line"/>
			<point x="617" y="-100"/>
			<point x="646" y="-4"/>
			<point x="656" y="97" type="curve"/>
			<point x="599" y="116" type="line"/>
			<point x="586" y="97"/>
			<point x="575" y="83"/>
			<point x="563" y="83" type="curve" smooth="yes"/>
			<point x="552" y="83"/>
			<point x="547" y="91"/>
			<point x="529" y="122" type="curve" smooth="yes"/>
			<point x="479" y="205"/>
			<point x="429" y="289"/>
			<point x="379" y="372" type="curve"/>
			<point x="386" y="381"/>
			<point x="398" y="399"/>
			<point x="408" y="410" type="curve" smooth="yes"/>
			<point x="420" y="423"/>
			<point x="433" y="429"/>
			<point x="451" y="429" type="curve" smooth="yes"/>
			<point x="473" y="429"/>
			<point x="500" y="410"/>
			<point x="520" y="376" type="curve" smooth="yes"/>
			<point x="531" y="357" type="line"/>
			<point x="570" y="377"/>
			<point x="613" y="416"/>
			<point x="613" y="465" type="curve" smooth="yes"/>
			<point x="613" y="512"/>
			<point x="577" y="536"/>
			<point x="531" y="536" type="curve" smooth="yes"/>
			<point x="469" y="536"/>
			<point x="438" y="501"/>
			<point x="387" y="438" type="curve" smooth="yes"/>
			<point x="357" y="401"/>
			<point x="291" y="297"/>
		</contour>
	</outline>
</glyph>
<glyph name="Shha-cy" format="2">
	<unicode hex="04BA"/>
	<advance width="831"/>
	<outline>
		<contour>
			<point x="335" y="381" type="curve"/>
			<point x="347" y="703" type="line"/>
			<point x="413" y="712" type="line"/>
			<point x="415" y="730" type="line"/>
			<point x="37" y="730" type="line"/>
			<point x="35" y="712" type="line"/>
			<point x="121" y="702" type="line"/>
			<point x="96" y="30" type="line"/>
			<point x="23" y="18" type="line"/>
			<point x="20" y="0" type="line"/>
			<point x="387" y="0" type="line"/>
			<point x="391" y="18" type="line"/>
			<point x="320" y="30" type="line"/>
			<point x="334" y="353" type="line"/>
			<point x="360" y="374"/>
			<point x="390" y="389"/>
			<point x="430" y="389" type="curve" smooth="yes"/>
			<point x="489" y="389"/>
			<point x="519" y="348"/>
			<point x="519" y="275" type="curve" smooth="yes"/>
			<point x="519" y="193"/>
			<point x="514" y="121"/>
			<point x="506" y="33" type="curve"/>
			<point x="434" y="18" type="line"/>
			<point x="431" y="0" type="line"/>
			<point x="803" y="0" type="line"/>
			<point x="807" y="18" type="line"/>
			<point x="733" y="33" type="line"/>
			<point x="740" y="109"/>
			<point x="743" y="150"/>
			<point x="743" y="216" type="curve" smooth="yes"/>
			<point x="743" y="368"/>
			<point x="637" y="431"/>
			<point x="504" y="431" type="curve" smooth="yes"/>
			<point x="433" y="431"/>
			<point x="377" y="411"/>
		</contour>
	</outline>
</glyph>
<glyph name="schwa-cy" format="2">
	<unicode hex="04D9"/>
	<advance width="589"/>
	<outline>
		<contour>
			<point x="230" y="-14" type="curve" smooth="yes"/>
			<point x="433" y="-14"/>
			<point x="555" y="115"/>
			<point x="555" y="300" type="curve" smooth="yes"/>
			<point x="555" y="450"/>
			<point x="468" y="537"/>
			<point x="294" y="537" type="curve" smooth="yes"/>
			<point x="141" y="537"/>
			<point x="78" y="427"/>
			<point x="64" y="401" type="curve"/>
			<point x="79" y="389" type="line"/>
			<point x="112" y="439"/>
			<point x="161" y="494"/>
			<point x="220" y="494" type="curve" smooth="yes"/>
			<point x="286" y="494"/>
			<point x="324" y="444"/>
			<point x="330" y="284" type="curve"/>
			<point x="243" y="269" type="line" smooth="yes"/>
			<point x="173" y="257"/>
			<point x="30" y="231"/>
			<point x="30" y="123" type="curve" smooth="yes"/>
			<point x="30" y="41"/>
			<point x="87" y="-14"/>
		</contour>
		<contour>
			<point x="249" y="4" type="curve" smooth="yes"/>
			<point x="210" y="4"/>
			<point x="204" y="50"/>
			<point x="204" y="106" type="curve" smooth="yes"/>
			<point x="204" y="208"/>
			<point x="221" y="242"/>
			<point x="283" y="255" type="curve" smooth="yes"/>
			<point x="330" y="265" type="line"/>
			<point x="324" y="109"/>
			<point x="310" y="4"/>
		</contour>
	</outline>
</glyph>
<glyph name="obarred-cy" format="2">
	<unicode hex="04E9"/>
	<advance width="634"/>
	<outline>
		<contour>
			<point x="34" y="243" type="curve" smooth="yes"/>
			<point x="34" y="92"/>
			<point x="116" y="-14"/>
			<point x="302" y="-14" type="curve" smooth="yes"/>
			<point x="531" y="-14"/>
			<point x="610" y="130"/>
			<point x="610" y="282" type="curve" smooth="yes"/>
			<point x="610" y="441"/>
			<point x="524" y="537"/>
			<point x="346" y="537" type="curve" smooth="yes"/>
			<point x="121" y="537"/>
			<point x="34" y="403"/>
		</contour>
		<contour>
			<point x="317" y="8" type="curve" smooth="yes"/>
			<point x="275" y="8"/>
			<point x="261" y="71"/>
			<point x="261" y="249" type="curve"/>
			<point x="389" y="249" type="line"/>
			<point x="387" y="96"/>
			<point x="369" y="8"/>
		</contour>
		<contour>
			<point x="333" y="519" type="curve" smooth="yes"/>
			<point x="376" y="519"/>
			<point x="389" y="463"/>
			<point x="389" y="274" type="curve"/>
			<point x="261" y="274" type="line"/>
			<point x="264" y="486"/>
			<point x="292" y="519"/>
		</contour>
	</outline>
</glyph>
<glyph name="Ccedillaacute" format="2">
	<unicode hex="1E08"/>
	<advance width="716"/>
	<outline>
		<contour>
			<point x="368" y="-256" type="curve" smooth="yes"/>
			<point x="463" y="-256"/>
			<point x="501" y="-204"/>
			<point x="501" y="-143" type="curve" smooth="yes"/>
			<point x="501" y="-60"/>
			<point x="403" y="-33"/>
			<point x="338" y="-59" type="curve"/>
			<point x="359" y="-14" type="line"/>
			<point x="501" y="-18"/>
			<point x="602" y="32"/>
			<point x="670" y="158" type="curve"/>
			<point x="656" y="167" type="line"/>
			<point x="603" y="73"/>
			<point x="532" y="41"/>
			<point x="457" y="41" type="curve" smooth="yes"/>
			<point x="316" y="41"/>
			<point x="281" y="130"/>
			<point x="281" y="355" type="curve" smooth="yes"/>
			<point x="281" y="623"/>
			<point x="330" y="729"/>
			<point x="439" y="729" type="curve" smooth="yes"/>
			<point x="527" y="729"/>
			<point x="548" y="674"/>
			<point x="512" y="587" type="curve" smooth="yes"/>
			<point x="485" y="522" type="line"/>
			<point x="522" y="491"/>
			<point x="557" y="477"/>
			<point x="606" y="477" type="curve" smooth="yes"/>
			<point x="664" y="477"/>
			<point x="707" y="519"/>
			<point x="707" y="577" type="curve" smooth="yes"/>
			<point x="707" y="673"/>
			<point x="592" y="745"/>
			<point x="438" y="745" type="curve" smooth="yes"/>
			<point x="203" y="745"/>
			<point x="50" y="594"/>
			<point x="45" y="339" type="curve" smooth="yes"/>
			<point x="41" y="139"/>
			<point x="133" y="5"/>
			<point x="331" y="-12" type="curve"/>
			<point x="298" y="-82" type="line"/>
			<point x="307" y="-95" type="line"/>
			<point x="335" y="-87"/>
			<point x="373" y="-95"/>
			<point x="373" y="-139" type="curve" smooth="yes"/>
			<point x="373" y="-184"/>
			<point x="345" y="-195"/>
			<point x="314" y="-195" type="curve" smooth="yes"/>
			<point x="289" y="-195"/>
			<point x="261" y="-190"/>
			<point x="228" y="-176" type="curve"/>
			<point x="220" y="-190" type="line"/>
			<point x="263" y="-230"/>
			<point x="304" y="-256"/>
		</contour>
		<contour>
			<point x="307" y="785" type="line"/>
			<point x="564" y="866" type="line"/>
			<point x="572" y="880"/>
			<point x="575" y="902"/>
			<point x="575" y="916" type="curve" smooth="yes"/>
			<point x="575" y="964"/>
			<point x="545" y="993"/>
			<point x="514" y="993" type="curve" smooth="yes"/>
			<point x="483" y="993"/>
			<point x="465" y="986"/>
			<point x="442" y="960" type="curve" smooth="yes"/>
			<point x="300" y="795" type="line"/>
		</contour>
	</outline>
</glyph>
<glyph name="psili" format="2">
	<unicode hex="1FBF"/>
	<advance width="491"/>
	<outline>
		<contour>
			<point x="194" y="579" type="line"/>
			<point x="302" y="605"/>
			<point x="340" y="683"/>
			<point x="340" y="733" type="curve" smooth="yes"/>
			<point x="340" y="774"/>
			<point x="329" y="828"/>
			<point x="256" y="828" type="curve" smooth="yes"/>
			<point x="212" y="828"/>
			<point x="174" y="806"/>
			<point x="174" y="756" type="curve" smooth="yes"/>
			<point x="174" y="712"/>
			<point x="201" y="687"/>
			<point x="259" y="694" type="curve"/>
			<point x="262" y="665"/>
			<point x="245" y="633"/>
			<point x="186" y="594" type="curve"/>
		</contour>
	</outline>
	<anchor name="_top" x="226" y="550"/>
</glyph>
